<?xml version="1.0" encoding="UTF-8"?>
<svg version="1.1" xmlns="http://www.w3.org/2000/svg" width="512" height="512">
<path d="M0 0 C0.66 -0.0103125 1.32 -0.020625 2 -0.03125 C4.95159904 0.7527685 6.0978974 2.13348794 8 4.5 C8.48101807 7.44866943 8.48101807 7.44866943 8.45410156 10.92089844 C8.45379944 12.22194519 8.45349731 13.52299194 8.45318604 14.86346436 C8.43276086 16.27877415 8.4118969 17.69407768 8.390625 19.109375 C8.38316145 20.56096619 8.37746905 22.01256748 8.37347412 23.46417236 C8.35822643 27.27846258 8.31895309 31.09214021 8.2746582 34.90618896 C8.23368623 38.80065627 8.21545906 42.69522289 8.1953125 46.58984375 C8.15245713 54.22684129 8.08421739 61.8633347 8 69.5 C8.81984375 69.45359375 9.6396875 69.4071875 10.484375 69.359375 C11.56203125 69.32328125 12.6396875 69.2871875 13.75 69.25 C14.81734375 69.20359375 15.8846875 69.1571875 16.984375 69.109375 C20 69.5 20 69.5 22.359375 71.296875 C24.74088203 74.49489872 24.5548473 76.6160689 24 80.5 C21.49588387 83.93156655 18.88654601 85.02401486 15 86.5 C15.2630896 87.69159225 15.5261792 88.88318451 15.79724121 90.11088562 C18.27502014 101.33654951 20.7472964 112.56341287 23.21417999 123.79147625 C24.48262735 129.56399152 25.75301463 135.3360656 27.02783203 141.10717773 C28.25785288 146.67583371 29.48278209 152.24558727 30.70417786 157.81614113 C31.17123465 159.94201416 31.64012974 162.06748416 32.11088562 164.19254112 C32.76953912 167.16727483 33.42166286 170.1433698 34.07226562 173.11987305 C34.36681389 174.43941483 34.36681389 174.43941483 34.66731262 175.78561401 C35.5280559 179.75392238 36.25744622 183.41075889 36 187.5 C36.928125 187.438125 37.85625 187.37625 38.8125 187.3125 C42 187.5 42 187.5 43.67431641 188.68554688 C45.45357872 191.12080977 45.38750935 192.71923333 45.3984375 195.71875 C45.40230469 196.73324219 45.40617188 197.74773437 45.41015625 198.79296875 C45.39275391 200.38044922 45.39275391 200.38044922 45.375 202 C45.38660156 203.05832031 45.39820313 204.11664063 45.41015625 205.20703125 C45.40628906 206.22152344 45.40242187 207.23601562 45.3984375 208.28125 C45.39505371 209.21001953 45.39166992 210.13878906 45.38818359 211.09570312 C45 213.5 45 213.5 43.78759766 215.32617188 C42 216.5 42 216.5 37 216.5 C37 226.73 37 236.96 37 247.5 C42.28029097 247.3430133 42.28029097 247.3430133 47.55883789 247.13964844 C53.1964543 247.05593817 56.35809414 248.29275725 61 251.5 C64.55329428 255.4086237 65.35881923 259.10029206 65.28125 264.375 C64.62790833 269.31135925 61.9335902 272.6724996 58.25 275.9375 C57.13625 276.7109375 57.13625 276.7109375 56 277.5 C56.67095703 278.37398438 56.67095703 278.37398438 57.35546875 279.265625 C67.3965024 292.88203737 70.32294108 305.57909952 69.9375 322.1875 C69.74628231 340.3473151 72.8784908 354.92268272 82.765625 370.44140625 C84 372.5 84 372.5 85 375.5 C85.45439453 373.90671875 85.45439453 373.90671875 85.91796875 372.28125 C89.69092198 359.42368289 89.69092198 359.42368289 92.4375 355.5 C102.08548743 341.45605194 101.77316118 326.68267903 101.5625 310.3125 C101.52561712 306.97592479 101.49798462 303.64066909 101.50120544 300.30387878 C101.5029657 298.24477062 101.48199134 296.18547889 101.43495178 294.12690735 C101.43636606 289.38281912 101.44164378 287.23113339 104.39770508 283.36035156 C107 281.5 107 281.5 109.1328125 281.08984375 C109.79023438 281.20457031 110.44765625 281.31929688 111.125 281.4375 C111.78757812 281.52902344 112.45015625 281.62054688 113.1328125 281.71484375 C115.69702642 282.79310107 116.53357242 284.1562524 118 286.5 C118.35835266 288.73358154 118.35835266 288.73358154 118.3371582 291.19824219 C118.33758621 292.12731384 118.33801422 293.0563855 118.3384552 294.01361084 C118.3260228 295.01458801 118.31359039 296.01556519 118.30078125 297.046875 C118.30843436 299.19401346 118.31692613 301.34114906 118.32617188 303.48828125 C118.3239787 306.85163094 118.31279515 310.21439864 118.28491211 313.57763672 C118.19509471 327.50449556 118.76383015 338.87030674 125 351.5 C125.48259781 352.48589867 125.48259781 352.48589867 125.97494507 353.49171448 C127.43306438 356.45920301 128.92910404 359.39852177 130.484375 362.31640625 C132.93726214 367.46873362 134.28155725 372.22316027 134.125 377.9375 C134.10695313 378.80246094 134.08890625 379.66742188 134.0703125 380.55859375 C134.04710937 381.19925781 134.02390625 381.83992188 134 382.5 C134.763125 382.561875 135.52625 382.62375 136.3125 382.6875 C139 383.5 139 383.5 140.6496582 385.50073242 C142.4674651 389.53829485 142.37706621 392.92642808 142.29296875 397.30078125 C142.28872391 398.13715622 142.28447906 398.97353119 142.28010559 399.83525085 C142.26337364 402.49466765 142.22573226 405.153314 142.1875 407.8125 C142.17244604 409.62043173 142.15875888 411.42837539 142.14648438 413.23632812 C142.11348816 417.65784689 142.06174428 422.07879302 142 426.5 C143.03640625 426.45359375 144.0728125 426.4071875 145.140625 426.359375 C146.51038779 426.32184725 147.88018182 426.28544816 149.25 426.25 C150.27287109 426.19972656 150.27287109 426.19972656 151.31640625 426.1484375 C154.81504793 426.08050271 156.62467601 426.20700514 159.421875 428.390625 C161.85009823 431.63626991 162.12339075 433.40335529 162.11352539 437.40869141 C162.11344986 438.42959869 162.11337433 439.45050598 162.11329651 440.50234985 C162.10813522 441.60759003 162.10297394 442.7128302 162.09765625 443.8515625 C162.09553383 445.54531509 162.09553383 445.54531509 162.09336853 447.27328491 C162.08775744 450.89054988 162.07520303 454.50775364 162.0625 458.125 C162.05748643 460.57291577 162.05292328 463.02083252 162.04882812 465.46875 C162.0377844 471.47918766 162.02103544 477.48958946 162 483.5 C163.12148438 483.47063354 163.12148438 483.47063354 164.265625 483.44067383 C165.25046875 483.42544678 166.2353125 483.41021973 167.25 483.39453125 C168.71179688 483.36516479 168.71179688 483.36516479 170.203125 483.33520508 C174.53012925 483.59015688 176.57428932 484.85934802 180 487.5 C183.03242008 491.23998476 183.83782324 494.71578555 184 499.5 C183.0724788 503.92228857 181.72982117 506.80577986 178.4375 509.9375 C174.70857667 512.32783547 172.76549677 512.62669799 168.33581924 512.63422108 C167.12331568 512.63867892 165.91081212 512.64313676 164.66156602 512.64772969 C163.30385732 512.64764039 161.94614862 512.64745052 160.58843994 512.64717102 C159.15555844 512.65046871 157.72267787 512.65419407 156.2897985 512.6583125 C152.33815179 512.66835149 148.38652027 512.67205234 144.43486261 512.67470181 C140.17843127 512.67859925 135.92201202 512.68817796 131.66558838 512.69691467 C121.3793213 512.71669495 111.09305322 512.72674726 100.80677187 512.73564246 C95.96602668 512.7400228 91.12528259 512.74539026 86.28453827 512.75063133 C70.19833223 512.76764516 54.11212689 512.78214014 38.02591324 512.78938007 C33.84963225 512.79129005 29.67335128 512.79321037 25.49707031 512.79516602 C23.9400267 512.79589163 23.9400267 512.79589163 22.35152766 512.7966319 C5.52977234 512.80493519 -11.29191194 512.83027646 -28.11363623 512.86274669 C-45.37353936 512.89579184 -62.63340636 512.91382653 -79.8933413 512.91702431 C-89.588462 512.91919177 -99.28347911 512.9279748 -108.97856903 512.95348549 C-117.23411569 512.97515776 -125.4895336 512.98326007 -133.74510548 512.97351871 C-137.95851776 512.96896389 -142.1716642 512.97092849 -146.38504028 512.99028015 C-150.24170803 513.00784077 -154.09791461 513.00697241 -157.95458677 512.99138286 C-159.35032322 512.98899592 -160.746091 512.99338642 -162.14177939 513.00521151 C-175.03718823 513.10770765 -175.03718823 513.10770765 -180 508.5 C-183.29974175 505.20025825 -183.76592013 502.10357075 -184 497.5 C-183.04255856 491.94683967 -181.31952503 489.09960419 -177 485.5 C-173.68178751 483.42432163 -171.1297286 483.28262551 -167.25 483.375 C-166.26515625 483.39304687 -165.2803125 483.41109375 -164.265625 483.4296875 C-163.14414063 483.46449219 -163.14414063 483.46449219 -162 483.5 C-162.00666183 482.87217117 -162.01332367 482.24434235 -162.02018738 481.5974884 C-162.08658382 475.06008019 -162.13181863 468.52276786 -162.16479492 461.98510742 C-162.17987654 459.54561472 -162.20034469 457.1061491 -162.22631836 454.66674805 C-162.26272812 451.15927441 -162.27973289 447.65215946 -162.29296875 444.14453125 C-162.30845261 443.05477493 -162.32393646 441.96501862 -162.33988953 440.84223938 C-162.3420043 431.31631398 -162.3420043 431.31631398 -159 427.5 C-155.93466836 425.96733418 -152.73245728 426.39723529 -149.375 426.4375 C-148.31539062 426.44426758 -148.31539062 426.44426758 -147.234375 426.45117188 C-145.48954725 426.46296125 -143.744763 426.48089676 -142 426.5 C-142.01571045 425.37505127 -142.0314209 424.25010254 -142.04760742 423.09106445 C-142.10201216 418.90721835 -142.13638836 414.72340338 -142.16479492 410.53930664 C-142.17985755 408.73033383 -142.20031177 406.9213974 -142.22631836 405.11254883 C-142.2628132 402.50853485 -142.27975157 399.9050048 -142.29296875 397.30078125 C-142.30845261 396.49538406 -142.32393646 395.68998688 -142.33988953 394.86018372 C-142.34125704 390.27102867 -142.04455101 387.19248121 -139 383.5 C-136.3125 382.6875 -136.3125 382.6875 -134 382.5 C-134.04640625 381.91734375 -134.0928125 381.3346875 -134.140625 380.734375 C-134.63753186 369.44749059 -130.08348382 360.11959169 -124.90625 350.37060547 C-120.29123993 341.57380369 -118.56407626 333.9905446 -118.59375 324.04296875 C-118.57749573 322.44489128 -118.57749573 322.44489128 -118.56091309 320.81452942 C-118.51528263 316.29053898 -118.50351776 311.76661118 -118.48876953 307.24243164 C-118.47310795 303.92573515 -118.44013527 300.6095209 -118.40625 297.29296875 C-118.40927124 296.2700322 -118.41229248 295.24709564 -118.41540527 294.19316101 C-118.40529419 293.24149551 -118.39518311 292.28983002 -118.38476562 291.30932617 C-118.38271118 290.47487473 -118.38065674 289.64042328 -118.37854004 288.78068542 C-117.91203839 285.97003553 -116.90304796 284.58925771 -115 282.5 C-113.1328125 281.71484375 -113.1328125 281.71484375 -111.125 281.4375 C-110.46757812 281.32277344 -109.81015625 281.20804687 -109.1328125 281.08984375 C-105.48712863 281.7909368 -104.22496316 283.5893678 -102 286.5 C-101.32949059 290.00755753 -101.46915258 293.44512465 -101.57421875 297.00390625 C-101.58214459 299.12955458 -101.5892788 301.25520598 -101.59570312 303.38085938 C-101.6348255 306.69799902 -101.6864855 310.01416878 -101.75610352 313.33081055 C-102.08661583 331.66940411 -99.41159446 346.14223336 -89 361.5 C-87.734375 365.1484375 -87.734375 365.1484375 -86.75 368.875 C-86.24726563 370.74285156 -86.24726563 370.74285156 -85.734375 372.6484375 C-85.49203125 373.58945312 -85.2496875 374.53046875 -85 375.5 C-77.00684644 361.29910519 -69.62630278 346.913989 -70.0078125 330.2109375 C-70.02457031 329.02113281 -70.04132813 327.83132813 -70.05859375 326.60546875 C-70.10245022 324.1417669 -70.15437731 321.67819391 -70.21484375 319.21484375 C-70.3442411 308.28664949 -68.6102728 298.78705117 -63.5625 289.0625 C-62.98628906 287.92941406 -62.41007812 286.79632813 -61.81640625 285.62890625 C-60.09407962 282.66205973 -58.21907313 280.10923983 -56 277.5 C-56.9075 276.943125 -57.815 276.38625 -58.75 275.8125 C-63.41567564 272.49269233 -65.57435684 270.25932506 -66.9375 264.625 C-67.36024797 259.29032328 -65.46055265 255.30134827 -62.125 251.1875 C-56.96374783 247.08885857 -51.98583685 247.24675204 -45.6875 247.375 C-42.820625 247.41625 -39.95375 247.4575 -37 247.5 C-37 237.27 -37 227.04 -37 216.5 C-38.98 216.5 -40.96 216.5 -43 216.5 C-45.34765625 215.15625 -45.34765625 215.15625 -47 212.5 C-47.55797657 208.98789438 -47.51212712 205.54839896 -47.4375 202 C-47.44458984 201.04996094 -47.45167969 200.09992188 -47.45898438 199.12109375 C-47.38604104 191.14221498 -47.38604104 191.14221498 -44 187.5 C-41.23857697 186.97200324 -38.83634455 187.31401019 -36 187.5 C-35.87520767 186.21025772 -35.75041534 184.92051544 -35.62184143 183.59169006 C-35.07100889 178.65800679 -34.12353636 173.87621357 -33.05053711 169.03295898 C-32.75771095 167.68499489 -32.75771095 167.68499489 -32.45896912 166.30979919 C-31.81942456 163.3709337 -31.17344153 160.43352483 -30.52734375 157.49609375 C-30.07996814 155.44638139 -29.63299857 153.39658037 -29.18641663 151.34669495 C-28.01502262 145.9750105 -26.83814582 140.60454192 -25.66009521 135.23431396 C-24.45691053 129.74482828 -23.25895366 124.25420221 -22.06054688 118.76367188 C-19.71212556 108.00799665 -17.35790624 97.25359957 -15 86.5 C-15.56589844 86.23445313 -16.13179687 85.96890625 -16.71484375 85.6953125 C-17.44832031 85.34210938 -18.18179688 84.98890625 -18.9375 84.625 C-19.66839844 84.27695313 -20.39929688 83.92890625 -21.15234375 83.5703125 C-23 82.5 -23 82.5 -24 80.5 C-24.57578507 74.28152122 -24.57578507 74.28152122 -22.37109375 71.2890625 C-19.30574625 68.97616439 -17.54371894 69.0850557 -13.75 69.25 C-12.67234375 69.28609375 -11.5946875 69.3221875 -10.484375 69.359375 C-9.66453125 69.40578125 -8.8446875 69.4521875 -8 69.5 C-8.00888245 68.6945575 -8.01776489 67.88911499 -8.0269165 67.05926514 C-8.10708005 59.46701455 -8.16797298 51.87496928 -8.20724869 44.28240585 C-8.22811969 40.37900482 -8.25642757 36.4759536 -8.30175781 32.57275391 C-8.34523427 28.8055808 -8.36914077 25.03874405 -8.37950897 21.27133942 C-8.38689723 19.83439081 -8.40132506 18.39746053 -8.42292023 16.96065521 C-8.45197203 14.94758575 -8.45363405 12.93417747 -8.45410156 10.92089844 C-8.46298401 9.77506287 -8.47186646 8.62922729 -8.48101807 7.44866943 C-7.69832628 2.65072213 -4.92135243 -0.07689613 0 0 Z " fill="#FFBC55" transform="translate(256,-0.5)"/>
<path d="M0 0 C0.66 -0.0103125 1.32 -0.020625 2 -0.03125 C4.95159904 0.7527685 6.0978974 2.13348794 8 4.5 C8.48101807 7.44866943 8.48101807 7.44866943 8.45410156 10.92089844 C8.45379944 12.22194519 8.45349731 13.52299194 8.45318604 14.86346436 C8.43276086 16.27877415 8.4118969 17.69407768 8.390625 19.109375 C8.38316145 20.56096619 8.37746905 22.01256748 8.37347412 23.46417236 C8.35822643 27.27846258 8.31895309 31.09214021 8.2746582 34.90618896 C8.23368623 38.80065627 8.21545906 42.69522289 8.1953125 46.58984375 C8.15245713 54.22684129 8.08421739 61.8633347 8 69.5 C8.81984375 69.45359375 9.6396875 69.4071875 10.484375 69.359375 C11.56203125 69.32328125 12.6396875 69.2871875 13.75 69.25 C14.81734375 69.20359375 15.8846875 69.1571875 16.984375 69.109375 C20 69.5 20 69.5 22.359375 71.296875 C24.74088203 74.49489872 24.5548473 76.6160689 24 80.5 C21.49588387 83.93156655 18.88654601 85.02401486 15 86.5 C15.2630896 87.69159225 15.5261792 88.88318451 15.79724121 90.11088562 C18.27502014 101.33654951 20.7472964 112.56341287 23.21417999 123.79147625 C24.48262735 129.56399152 25.75301463 135.3360656 27.02783203 141.10717773 C28.25785288 146.67583371 29.48278209 152.24558727 30.70417786 157.81614113 C31.17123465 159.94201416 31.64012974 162.06748416 32.11088562 164.19254112 C32.76953912 167.16727483 33.42166286 170.1433698 34.07226562 173.11987305 C34.36681389 174.43941483 34.36681389 174.43941483 34.66731262 175.78561401 C35.5280559 179.75392238 36.25744622 183.41075889 36 187.5 C36.928125 187.438125 37.85625 187.37625 38.8125 187.3125 C42 187.5 42 187.5 43.67431641 188.68554688 C45.45357872 191.12080977 45.38750935 192.71923333 45.3984375 195.71875 C45.40230469 196.73324219 45.40617188 197.74773437 45.41015625 198.79296875 C45.39275391 200.38044922 45.39275391 200.38044922 45.375 202 C45.38660156 203.05832031 45.39820313 204.11664063 45.41015625 205.20703125 C45.40628906 206.22152344 45.40242187 207.23601562 45.3984375 208.28125 C45.39505371 209.21001953 45.39166992 210.13878906 45.38818359 211.09570312 C45 213.5 45 213.5 43.78759766 215.32617188 C42 216.5 42 216.5 37 216.5 C37 226.73 37 236.96 37 247.5 C42.28029097 247.3430133 42.28029097 247.3430133 47.55883789 247.13964844 C53.1964543 247.05593817 56.35809414 248.29275725 61 251.5 C64.55214694 255.40736163 65.35894187 259.097758 65.28125 264.37109375 C64.67989998 268.92297932 62.47040374 272.36606847 58.82003784 275.18112183 C55.21214995 276.86846251 52.54607858 276.83798879 48.56689453 276.78955078 C47.83613708 276.7852858 47.10537964 276.78102081 46.35247803 276.77662659 C44.77173869 276.7663537 43.19103062 276.74968447 41.61041641 276.72729874 C39.1042664 276.69494397 36.59909087 276.6863495 34.09274292 276.68502808 C26.96942122 276.67942752 19.84689425 276.6503538 12.72412109 276.55859375 C8.36069399 276.50408068 3.99898807 276.49351882 -0.36471939 276.51073837 C-2.02252477 276.50880008 -3.68039891 276.49040599 -5.33782578 276.45492935 C-14.46691532 275.9905608 -14.46691532 275.9905608 -22.55430603 279.46464539 C-24.35877751 281.74136675 -25.72034382 283.89868175 -27 286.5 C-27.56332031 287.49128906 -28.12664062 288.48257812 -28.70703125 289.50390625 C-29.07183594 290.34824219 -29.43664062 291.19257813 -29.8125 292.0625 C-30.19019531 292.90941406 -30.56789062 293.75632812 -30.95703125 294.62890625 C-33.2656621 300.984126 -34.24035061 306.57843155 -34.23828125 313.33984375 C-34.24935189 314.82195106 -34.2618536 316.30404823 -34.27563477 317.78613281 C-34.28055939 318.5468811 -34.28548401 319.30762939 -34.29055786 320.09143066 C-34.46334309 338.56575264 -36.78970862 352.9498736 -46.1328125 369.23046875 C-48.64739095 373.63361136 -50.7665357 377.56614279 -52 382.5 C-63.22 382.5 -74.44 382.5 -86 382.5 C-84.88178295 374.67248062 -84.88178295 374.67248062 -82.25 370.25 C-75.15095668 357.78837 -69.67478689 344.79128407 -70.0078125 330.2109375 C-70.02457031 329.02113281 -70.04132813 327.83132813 -70.05859375 326.60546875 C-70.10245022 324.1417669 -70.15437731 321.67819391 -70.21484375 319.21484375 C-70.3442411 308.28664949 -68.6102728 298.78705117 -63.5625 289.0625 C-62.98628906 287.92941406 -62.41007812 286.79632813 -61.81640625 285.62890625 C-60.09407962 282.66205973 -58.21907313 280.10923983 -56 277.5 C-57.36125 276.6646875 -57.36125 276.6646875 -58.75 275.8125 C-63.41567564 272.49269233 -65.57435684 270.25932506 -66.9375 264.625 C-67.36024797 259.29032328 -65.46055265 255.30134827 -62.125 251.1875 C-56.96374783 247.08885857 -51.98583685 247.24675204 -45.6875 247.375 C-42.820625 247.41625 -39.95375 247.4575 -37 247.5 C-37 237.27 -37 227.04 -37 216.5 C-38.98 216.5 -40.96 216.5 -43 216.5 C-45.34765625 215.15625 -45.34765625 215.15625 -47 212.5 C-47.55797657 208.98789438 -47.51212712 205.54839896 -47.4375 202 C-47.44458984 201.04996094 -47.45167969 200.09992188 -47.45898438 199.12109375 C-47.38604104 191.14221498 -47.38604104 191.14221498 -44 187.5 C-41.23857697 186.97200324 -38.83634455 187.31401019 -36 187.5 C-35.81281151 185.56538658 -35.81281151 185.56538658 -35.62184143 183.59169006 C-35.07100889 178.65800679 -34.12353636 173.87621357 -33.05053711 169.03295898 C-32.85531967 168.13431625 -32.66010223 167.23567352 -32.45896912 166.30979919 C-31.81942456 163.3709337 -31.17344153 160.43352483 -30.52734375 157.49609375 C-30.07996814 155.44638139 -29.63299857 153.39658037 -29.18641663 151.34669495 C-28.01502262 145.9750105 -26.83814582 140.60454192 -25.66009521 135.23431396 C-24.45691053 129.74482828 -23.25895366 124.25420221 -22.06054688 118.76367188 C-19.71212556 108.00799665 -17.35790624 97.25359957 -15 86.5 C-15.84884766 86.10167969 -15.84884766 86.10167969 -16.71484375 85.6953125 C-17.44832031 85.34210938 -18.18179688 84.98890625 -18.9375 84.625 C-19.66839844 84.27695313 -20.39929688 83.92890625 -21.15234375 83.5703125 C-23 82.5 -23 82.5 -24 80.5 C-24.57578507 74.28152122 -24.57578507 74.28152122 -22.37109375 71.2890625 C-19.30574625 68.97616439 -17.54371894 69.0850557 -13.75 69.25 C-12.67234375 69.28609375 -11.5946875 69.3221875 -10.484375 69.359375 C-9.66453125 69.40578125 -8.8446875 69.4521875 -8 69.5 C-8.00888245 68.6945575 -8.01776489 67.88911499 -8.0269165 67.05926514 C-8.10708005 59.46701455 -8.16797298 51.87496928 -8.20724869 44.28240585 C-8.22811969 40.37900482 -8.25642757 36.4759536 -8.30175781 32.57275391 C-8.34523427 28.8055808 -8.36914077 25.03874405 -8.37950897 21.27133942 C-8.38689723 19.83439081 -8.40132506 18.39746053 -8.42292023 16.96065521 C-8.45197203 14.94758575 -8.45363405 12.93417747 -8.45410156 10.92089844 C-8.46298401 9.77506287 -8.47186646 8.62922729 -8.48101807 7.44866943 C-7.69832628 2.65072213 -4.92135243 -0.07689613 0 0 Z " fill="#FFB541" transform="translate(256,-0.5)"/>
<path d="M0 0 C1.85262451 -0.01691895 1.85262451 -0.01691895 3.74267578 -0.03417969 C5.10344169 -0.02640316 6.46420527 -0.01821053 7.82496643 -0.00964355 C9.26423348 -0.0150663 10.70349497 -0.02218982 12.14274597 -0.03088379 C16.04575954 -0.04910393 19.9483497 -0.04205483 23.85137057 -0.02936745 C27.93918408 -0.01923095 32.02696166 -0.02863511 36.11477661 -0.03491211 C42.98031614 -0.04218746 49.84568351 -0.03260469 56.7111969 -0.0135498 C64.64282619 0.00821016 72.57404405 0.00117367 80.50566334 -0.02085543 C87.32027465 -0.03902304 94.13476228 -0.04156086 100.94938999 -0.03110075 C105.01734823 -0.02487215 109.08511327 -0.02401246 113.15305901 -0.0372467 C116.97897539 -0.04882421 120.80436291 -0.0407454 124.63022232 -0.01766968 C126.03223481 -0.01239227 127.434292 -0.01387985 128.83628654 -0.02272034 C141.94620756 -0.09774828 141.94620756 -0.09774828 146.8584137 4.50793457 C149.64679243 7.706369 150.76130491 10.82817305 151.3584137 15.00793457 C150.72448428 19.44544051 149.37289493 21.81016805 146.8584137 25.50793457 C146.1984137 25.83793457 145.5384137 26.16793457 144.8584137 26.50793457 C149.33455282 27.37155507 153.5738721 27.6372235 158.12965393 27.64978027 C158.83129669 27.6532547 159.53293945 27.65672913 160.25584412 27.66030884 C161.76993467 27.66762428 163.28403565 27.67299193 164.79813957 27.6765995 C167.19918208 27.68381248 169.6000258 27.69951321 172.00100708 27.71794128 C178.82429844 27.77019441 185.64747519 27.81838662 192.47096252 27.8338623 C196.65375166 27.84396779 200.83603052 27.87334908 205.01861763 27.91518211 C206.60650326 27.9274526 208.19446104 27.93262061 209.7823925 27.93038368 C212.00807224 27.92801897 214.23229665 27.95027992 216.45777893 27.97790527 C218.3525724 27.98670464 218.3525724 27.98670464 220.28564453 27.99568176 C225.46565178 28.73837549 229.36817693 30.66997589 232.7334137 34.82043457 C234.7685589 39.68217034 235.37943969 43.6638324 233.7334137 48.69543457 C231.88712681 53.08568357 229.09301708 55.39063288 224.8584137 57.50793457 C222.97238 57.60616959 221.08282049 57.63894819 219.19423294 57.64215565 C217.37547759 57.64884241 217.37547759 57.64884241 215.51997972 57.65566427 C214.16227101 57.65557496 212.80456231 57.65538509 211.44685364 57.65510559 C210.01397214 57.65840328 208.58109157 57.66212864 207.14821219 57.66624707 C203.19656549 57.67628606 199.24493397 57.67998691 195.29327631 57.68263638 C191.03684497 57.68653382 186.78042572 57.69611253 182.52400208 57.70484924 C172.237735 57.72462952 161.95146692 57.73468183 151.66518557 57.74357703 C146.82444038 57.74795737 141.98369629 57.75332483 137.14295197 57.7585659 C121.05674593 57.77557973 104.97054059 57.79007471 88.88432693 57.79731464 C84.70804595 57.79922462 80.53176497 57.80114494 76.35548401 57.80310059 C75.31745493 57.80358433 74.27942586 57.80406807 73.20994136 57.80456647 C56.38818604 57.81286976 39.56650176 57.83821103 22.74477747 57.87068126 C5.48487434 57.90372641 -11.77499266 57.9217611 -29.03492761 57.92495888 C-38.73004831 57.92712634 -48.42506541 57.93590938 -58.12015533 57.96142006 C-66.37570199 57.98309233 -74.6311199 57.99119464 -82.88669178 57.98145328 C-87.10010406 57.97689846 -91.31325051 57.97886306 -95.52662659 57.99821472 C-99.38329433 58.01577534 -103.23950092 58.01490698 -107.09617308 57.99931743 C-108.49190952 57.99693049 -109.88767731 58.00132099 -111.2833657 58.01314608 C-124.17877453 58.11564222 -124.17877453 58.11564222 -129.1415863 53.50793457 C-132.44132805 50.20819282 -132.90750644 47.11150532 -133.1415863 42.50793457 C-132.18414487 36.95477424 -130.46111134 34.10753876 -126.1415863 30.50793457 C-122.67040147 28.30620938 -119.78215971 28.24144365 -115.71287537 28.20495605 C-114.39954224 28.18827881 -113.08620911 28.17160156 -111.733078 28.15441895 C-110.29112321 28.14582521 -108.84916761 28.13736556 -107.4072113 28.12902832 C-105.90583819 28.11309841 -104.40447473 28.09623421 -102.90312195 28.07849121 C-99.71660506 28.04248639 -96.53010823 28.01222991 -93.3434906 27.98666382 C-88.39911756 27.94681717 -83.45494031 27.89428885 -78.51072693 27.83825684 C-77.69710693 27.82903922 -76.88348694 27.81982161 -76.04521179 27.81032467 C-74.40819734 27.79171825 -72.77118358 27.7730503 -71.13417053 27.75432014 C-68.69125713 27.72671616 -66.24833308 27.7002953 -63.80540466 27.67405701 C-51.08129138 27.53476576 -38.36183006 27.29278963 -25.6415863 26.94543457 C-24.81211487 26.9231076 -23.98264343 26.90078064 -23.1280365 26.8777771 C-18.79903203 26.76055374 -14.47023089 26.63787747 -10.1415863 26.50793457 C-10.49599792 25.97829102 -10.85040955 25.44864746 -11.21556091 24.9029541 C-11.90404114 23.84503662 -11.90404114 23.84503662 -12.60643005 22.76574707 C-13.06396667 22.07110352 -13.5215033 21.37645996 -13.99290466 20.6607666 C-15.95464471 16.98411968 -15.74038949 14.63302316 -15.1415863 10.50793457 C-11.68903073 3.85856828 -7.63035758 0.01073822 0 0 Z " fill="#FFCE85" transform="translate(205.14158630371094,454.4920654296875)"/>
<path d="M0 0 C2.72250895 2.82093468 3.36838594 4.76168598 3.30541992 8.63476562 C3.29939255 9.55092651 3.29336517 10.4670874 3.28715515 11.41101074 C3.26844864 12.3994397 3.24974213 13.38786865 3.23046875 14.40625 C3.22836521 16.53515531 3.2277664 18.66406253 3.22851562 20.79296875 C3.21418436 24.12122281 3.18834828 27.4480264 3.1340332 30.77587891 C2.87573815 48.93306433 5.51476825 63.87769758 16 79 C19.11570982 86.10335335 19 92.05740483 19 100 C75.76 100 132.52 100 191 100 C191 113.99701918 188.20629127 122.81228636 180 134 C179.51722973 134.80306013 179.03445946 135.60612026 178.53705978 136.43351555 C175.83714144 140.47845513 173.7309744 143.47209824 168.96097565 144.92682266 C165.22224406 145.27041586 161.54889986 145.30468885 157.80175781 145.22705078 C156.37129518 145.2341044 154.94084855 145.24555343 153.51045227 145.2610321 C149.63370574 145.29057029 145.75962242 145.25875651 141.88309193 145.21586847 C137.7852431 145.18120328 133.68769018 145.20365309 129.58978271 145.21969604 C121.79498484 145.24162526 114.00123527 145.21277553 106.20658278 145.165573 C97.47936226 145.11507242 88.75248074 145.11977026 80.02515268 145.12999368 C65.55449788 145.14582879 51.0844155 145.11996989 36.61390162 145.05734086 C19.4092617 144.98342624 2.20476693 144.98671357 -15 145 C-15.09494607 139.5373091 -15.17155348 134.07536978 -15.21972656 128.61206055 C-15.23981305 126.75454602 -15.26708778 124.89709449 -15.30175781 123.03979492 C-15.35040737 120.36621537 -15.37299809 117.69347344 -15.390625 115.01953125 C-15.42159271 113.7786248 -15.42159271 113.7786248 -15.45318604 112.51264954 C-15.45348816 111.73221786 -15.45379028 110.95178619 -15.45410156 110.14770508 C-15.46742523 109.12511345 -15.46742523 109.12511345 -15.48101807 108.0818634 C-15 106 -15 106 -11 101 C-16.94 100.67 -22.88 100.34 -29 100 C-29.71352849 87.87001572 -25.49052454 78.38606942 -19.90625 67.87060547 C-15.29123993 59.07380369 -13.56407626 51.4905446 -13.59375 41.54296875 C-13.57749573 39.94489128 -13.57749573 39.94489128 -13.56091309 38.31452942 C-13.51528263 33.79053898 -13.50351776 29.26661118 -13.48876953 24.74243164 C-13.47310795 21.42573515 -13.44013527 18.1095209 -13.40625 14.79296875 C-13.40927124 13.7700322 -13.41229248 12.74709564 -13.41540527 11.69316101 C-13.40023865 10.26566277 -13.40023865 10.26566277 -13.38476562 8.80932617 C-13.38271118 7.97487473 -13.38065674 7.14042328 -13.37854004 6.28068542 C-12.9074251 3.44224069 -11.96368129 2.07991776 -10 0 C-6.20519658 -1.26493447 -3.87641726 -0.89988258 0 0 Z " fill="#FFCE84" transform="translate(151,282)"/>
<path d="M0 0 C0.66 -0.0103125 1.32 -0.020625 2 -0.03125 C4.95159904 0.7527685 6.0978974 2.13348794 8 4.5 C8.48101807 7.44866943 8.48101807 7.44866943 8.45410156 10.92089844 C8.45379944 12.22194519 8.45349731 13.52299194 8.45318604 14.86346436 C8.43276086 16.27877415 8.4118969 17.69407768 8.390625 19.109375 C8.38316145 20.56096619 8.37746905 22.01256748 8.37347412 23.46417236 C8.35822643 27.27846258 8.31895309 31.09214021 8.2746582 34.90618896 C8.23368623 38.80065627 8.21545906 42.69522289 8.1953125 46.58984375 C8.15245713 54.22684129 8.08421739 61.8633347 8 69.5 C8.81984375 69.45359375 9.6396875 69.4071875 10.484375 69.359375 C11.56203125 69.32328125 12.6396875 69.2871875 13.75 69.25 C14.81734375 69.20359375 15.8846875 69.1571875 16.984375 69.109375 C20 69.5 20 69.5 22.359375 71.296875 C24.74088203 74.49489872 24.5548473 76.6160689 24 80.5 C21.49588387 83.93156655 18.88654601 85.02401486 15 86.5 C15.2630896 87.69159225 15.5261792 88.88318451 15.79724121 90.11088562 C18.27502014 101.33654951 20.7472964 112.56341287 23.21417999 123.79147625 C24.48262735 129.56399152 25.75301463 135.3360656 27.02783203 141.10717773 C28.25785288 146.67583371 29.48278209 152.24558727 30.70417786 157.81614113 C31.17123465 159.94201416 31.64012974 162.06748416 32.11088562 164.19254112 C32.76953912 167.16727483 33.42166286 170.1433698 34.07226562 173.11987305 C34.36681389 174.43941483 34.36681389 174.43941483 34.66731262 175.78561401 C35.5280559 179.75392238 36.25744622 183.41075889 36 187.5 C36.928125 187.438125 37.85625 187.37625 38.8125 187.3125 C42 187.5 42 187.5 43.67431641 188.68554688 C45.45357872 191.12080977 45.38750935 192.71923333 45.3984375 195.71875 C45.40230469 196.73324219 45.40617187 197.74773437 45.41015625 198.79296875 C45.39855469 199.85128906 45.38695312 200.90960938 45.375 202 C45.38660156 203.05832031 45.39820313 204.11664063 45.41015625 205.20703125 C45.40628906 206.22152344 45.40242188 207.23601562 45.3984375 208.28125 C45.39505371 209.21001953 45.39166992 210.13878906 45.38818359 211.09570312 C44.91698547 214.014168 44.31634427 214.71509369 42 216.5 C39.72999573 216.89440918 39.72999573 216.89440918 37.04125977 216.91992188 C36.03333878 216.93583374 35.02541779 216.95174561 33.98695374 216.96813965 C32.35565773 216.96844177 32.35565773 216.96844177 30.69140625 216.96875 C29.5731395 216.97636353 28.45487274 216.98397705 27.30271912 216.99182129 C24.93645461 217.0026326 22.57014235 217.00547124 20.20385742 217.00097656 C16.57975812 217.00000463 12.95777761 217.04160975 9.33398438 217.0859375 C7.03646276 217.09114455 4.73893377 217.09383269 2.44140625 217.09375 C1.35589981 217.11014526 0.27039337 217.12654053 -0.8480072 217.14343262 C-8.31123351 217.07474475 -8.31123351 217.07474475 -11.68408203 214.26025391 C-13.00883828 211.48146094 -13.50322907 209.79424127 -13.49609375 206.7421875 C-13.49673828 205.86949219 -13.49738281 204.99679688 -13.49804688 204.09765625 C-13.47806641 203.19917969 -13.45808594 202.30070313 -13.4375 201.375 C-13.44458984 200.46878906 -13.45167969 199.56257812 -13.45898438 198.62890625 C-13.39413098 191.89413098 -13.39413098 191.89413098 -10 188.5 C-18.58 188.17 -27.16 187.84 -36 187.5 C-34.875 177.375 -34.875 177.375 -34.12046814 173.92503357 C-33.95081039 173.13855942 -33.78115265 172.35208527 -33.60635376 171.54177856 C-33.42293427 170.7138681 -33.23951477 169.88595764 -33.05053711 169.03295898 C-32.85531967 168.13431625 -32.66010223 167.23567352 -32.45896912 166.30979919 C-31.81942456 163.3709337 -31.17344153 160.43352483 -30.52734375 157.49609375 C-30.07996814 155.44638139 -29.63299857 153.39658037 -29.18641663 151.34669495 C-28.01502262 145.9750105 -26.83814582 140.60454192 -25.66009521 135.23431396 C-24.45691053 129.74482828 -23.25895366 124.25420221 -22.06054688 118.76367188 C-19.71212556 108.00799665 -17.35790624 97.25359957 -15 86.5 C-15.56589844 86.23445313 -16.13179687 85.96890625 -16.71484375 85.6953125 C-17.44832031 85.34210938 -18.18179688 84.98890625 -18.9375 84.625 C-19.66839844 84.27695313 -20.39929688 83.92890625 -21.15234375 83.5703125 C-23 82.5 -23 82.5 -24 80.5 C-24.57578507 74.28152122 -24.57578507 74.28152122 -22.37109375 71.2890625 C-19.30574625 68.97616439 -17.54371894 69.0850557 -13.75 69.25 C-12.67234375 69.28609375 -11.5946875 69.3221875 -10.484375 69.359375 C-9.66453125 69.40578125 -8.8446875 69.4521875 -8 69.5 C-8.00888245 68.6945575 -8.01776489 67.88911499 -8.0269165 67.05926514 C-8.10708005 59.46701455 -8.16797298 51.87496928 -8.20724869 44.28240585 C-8.22811969 40.37900482 -8.25642757 36.4759536 -8.30175781 32.57275391 C-8.34523427 28.8055808 -8.36914077 25.03874405 -8.37950897 21.27133942 C-8.38689723 19.83439081 -8.40132506 18.39746053 -8.42292023 16.96065521 C-8.45197203 14.94758575 -8.45363405 12.93417747 -8.45410156 10.92089844 C-8.46298401 9.77506287 -8.47186646 8.62922729 -8.48101807 7.44866943 C-7.69832628 2.65072213 -4.92135243 -0.07689613 0 0 Z " fill="#FFC164" transform="translate(256,-0.5)"/>
<path d="M0 0 C1.85262451 -0.01691895 1.85262451 -0.01691895 3.74267578 -0.03417969 C5.10344169 -0.02640316 6.46420527 -0.01821053 7.82496643 -0.00964355 C9.26423348 -0.0150663 10.70349497 -0.02218982 12.14274597 -0.03088379 C16.04575954 -0.04910393 19.9483497 -0.04205483 23.85137057 -0.02936745 C27.93918408 -0.01923095 32.02696166 -0.02863511 36.11477661 -0.03491211 C42.98031614 -0.04218746 49.84568351 -0.03260469 56.7111969 -0.0135498 C64.64282619 0.00821016 72.57404405 0.00117367 80.50566334 -0.02085543 C87.32027465 -0.03902304 94.13476228 -0.04156086 100.94938999 -0.03110075 C105.01734823 -0.02487215 109.08511327 -0.02401246 113.15305901 -0.0372467 C116.97897539 -0.04882421 120.80436291 -0.0407454 124.63022232 -0.01766968 C126.03223481 -0.01239227 127.434292 -0.01387985 128.83628654 -0.02272034 C141.94620756 -0.09774828 141.94620756 -0.09774828 146.8584137 4.50793457 C149.64679243 7.706369 150.76130491 10.82817305 151.3584137 15.00793457 C150.72448428 19.44544051 149.37289493 21.81016805 146.8584137 25.50793457 C146.1984137 25.83793457 145.5384137 26.16793457 144.8584137 26.50793457 C146.8384137 26.83793457 148.8184137 27.16793457 150.8584137 27.50793457 C150.8584137 27.83793457 150.8584137 28.16793457 150.8584137 28.50793457 C150.05426372 28.50701278 149.25011374 28.50609098 148.42159557 28.50514126 C128.8232068 28.48302322 109.22482053 28.46649242 89.62642193 28.4561224 C80.14865355 28.4509738 70.67089351 28.44395852 61.19313049 28.43249512 C52.92895162 28.42250434 44.6647788 28.4160707 36.40059406 28.41384608 C32.02785513 28.41254642 27.6551335 28.40950792 23.28240013 28.40220451 C19.15960245 28.39537489 15.03682906 28.39333163 10.91402626 28.39482689 C9.40767916 28.39455366 7.90133119 28.39258998 6.39498901 28.3887291 C-9.89930387 27.39437057 -9.89930387 27.39437057 -24.1415863 33.50793457 C-27.25868153 38.18357741 -26.85797707 43.03731419 -26.1415863 48.50793457 C-24.17511181 52.55056739 -20.69017889 54.89198491 -17.1415863 57.50793457 C-30.85858748 57.60061346 -44.57551416 57.67168919 -58.29276466 57.71518326 C-64.66224349 57.73605821 -71.03150811 57.76437487 -77.40086365 57.80969238 C-83.54760723 57.85315236 -89.69414475 57.87707237 -95.84103012 57.88744354 C-98.18619912 57.89483455 -100.53135685 57.90926737 -102.87643814 57.9308548 C-106.16119512 57.95988986 -109.44510056 57.9638904 -112.72996521 57.96203613 C-114.18437515 57.98360779 -114.18437515 57.98360779 -115.66816711 58.00561523 C-122.58846043 57.96334184 -126.0041993 56.64532157 -130.9540863 51.69543457 C-133.27627501 47.41771853 -133.33142816 43.60901733 -132.5165863 38.88293457 C-130.73409019 34.50771684 -128.3623226 31.91651731 -124.37931824 29.39015198 C-121.40953482 28.21932602 -118.90470473 28.23357587 -115.71287537 28.20495605 C-114.39954224 28.18827881 -113.08620911 28.17160156 -111.733078 28.15441895 C-110.29112321 28.14582521 -108.84916761 28.13736556 -107.4072113 28.12902832 C-105.90583819 28.11309841 -104.40447473 28.09623421 -102.90312195 28.07849121 C-99.71660506 28.04248639 -96.53010823 28.01222991 -93.3434906 27.98666382 C-88.39911756 27.94681717 -83.45494031 27.89428885 -78.51072693 27.83825684 C-77.69710693 27.82903922 -76.88348694 27.81982161 -76.04521179 27.81032467 C-74.40819734 27.79171825 -72.77118358 27.7730503 -71.13417053 27.75432014 C-68.69125713 27.72671616 -66.24833308 27.7002953 -63.80540466 27.67405701 C-51.08129138 27.53476576 -38.36183006 27.29278963 -25.6415863 26.94543457 C-24.81211487 26.9231076 -23.98264343 26.90078064 -23.1280365 26.8777771 C-18.79903203 26.76055374 -14.47023089 26.63787747 -10.1415863 26.50793457 C-10.49599792 25.97829102 -10.85040955 25.44864746 -11.21556091 24.9029541 C-11.90404114 23.84503662 -11.90404114 23.84503662 -12.60643005 22.76574707 C-13.06396667 22.07110352 -13.5215033 21.37645996 -13.99290466 20.6607666 C-15.95464471 16.98411968 -15.74038949 14.63302316 -15.1415863 10.50793457 C-11.68903073 3.85856828 -7.63035758 0.01073822 0 0 Z " fill="#FFC164" transform="translate(205.14158630371094,454.4920654296875)"/>
<path d="M0 0 C45.54 0 91.08 0 138 0 C138 13.99701918 135.20629127 22.81228636 127 34 C126.61250076 34.80270325 126.22500153 35.60540649 125.82575989 36.43243408 C123.56659515 40.30273866 121.37769235 43.34353527 116.87677383 44.58620834 C110.15802229 45.56190177 103.36067503 45.34925608 96.58984375 45.2578125 C94.3760176 45.25947101 92.1621917 45.26439408 89.94837952 45.27243042 C85.31696107 45.2781376 80.68748187 45.24883682 76.05639648 45.19384766 C70.12835447 45.12563552 64.20377357 45.13773549 58.27556515 45.17517281 C53.70702907 45.19633758 49.13929477 45.17841704 44.57083321 45.14840317 C42.38563991 45.13805893 40.20036254 45.13897977 38.01518059 45.15149307 C34.95743448 45.16243236 31.90459784 45.1215673 28.84741211 45.06689453 C27.50140427 45.08647217 27.50140427 45.08647217 26.12820435 45.10644531 C22.29431923 44.99022029 19.92137017 44.76808642 16.91664314 42.26324081 C15.1258403 40.24817372 13.53522716 38.21425757 12 36 C11.24332031 34.91976562 10.48664063 33.83953125 9.70703125 32.7265625 C2.47002959 20.8787701 0 14.6701753 0 0 Z " fill="#FFCE85" transform="translate(204,382)"/>
<path d="M0 0 C0.77261673 0.00565979 1.54523346 0.01131958 2.34126282 0.01715088 C4.80756754 0.03953173 7.27241617 0.08972797 9.73828125 0.140625 C11.4107863 0.16068794 13.08331414 0.17893908 14.75585938 0.1953125 C18.85472721 0.23940169 22.95250742 0.30843825 27.05078125 0.390625 C26.56399902 0.95523438 26.0772168 1.51984375 25.57568359 2.1015625 C23.85125141 4.69014338 23.66546166 5.94728276 23.65234375 9.015625 C23.64847656 9.88703125 23.64460938 10.7584375 23.640625 11.65625 C23.65222656 12.55859375 23.66382813 13.4609375 23.67578125 14.390625 C23.66417969 15.29296875 23.65257812 16.1953125 23.640625 17.125 C23.64642578 18.43210938 23.64642578 18.43210938 23.65234375 19.765625 C23.65572754 20.55710938 23.65911133 21.34859375 23.66259766 22.1640625 C24.15777872 25.00434634 25.09392311 26.28483843 27.05078125 28.390625 C29.19372571 29.00354841 29.19372571 29.00354841 31.61401367 28.93652344 C32.99510567 28.96610138 32.99510567 28.96610138 34.40409851 28.99627686 C35.3948085 28.99750549 36.38551849 28.99873413 37.40625 29 C38.42302322 29.01653625 39.43979645 29.03307251 40.48738098 29.05010986 C43.73774165 29.09872914 46.98763403 29.11999206 50.23828125 29.140625 C52.44077895 29.16877297 54.6432547 29.19869873 56.84570312 29.23046875 C62.24731041 29.30449146 67.64878525 29.35605223 73.05078125 29.390625 C73.07543629 33.78718673 73.09361967 38.1837122 73.10571289 42.58032227 C73.11075246 44.07707418 73.11758412 45.57382116 73.1262207 47.07055664 C73.13830284 49.21762307 73.14401316 51.36462462 73.1484375 53.51171875 C73.15367432 54.8052124 73.15891113 56.09870605 73.16430664 57.43139648 C73.05078125 60.390625 73.05078125 60.390625 72.05078125 61.390625 C70.24161797 61.49302688 68.42850372 61.52633635 66.61645508 61.5324707 C65.45467239 61.53950516 64.29288971 61.54653961 63.09590149 61.55378723 C61.19604744 61.56003365 61.19604744 61.56003365 59.2578125 61.56640625 C57.28072794 61.58366386 55.30364325 61.60094507 53.32657146 61.61960888 C48.43641361 61.66523015 43.54636464 61.70289887 38.65600586 61.71655273 C35.91822818 61.72469852 33.1809066 61.74330266 30.44328308 61.77348328 C27.86244375 61.8016317 25.28138353 61.81454343 22.70039368 61.81062317 C14.0689674 61.89995004 14.0689674 61.89995004 7.05078125 66.390625 C4.27365194 70.42863487 4.6581138 74.67043506 5.05078125 79.390625 C5.64498633 82.76535759 5.64498633 82.76535759 7.05078125 85.390625 C8.98461412 86.69128421 8.98461412 86.69128421 11.05078125 87.390625 C12.04078125 88.380625 12.04078125 88.380625 13.05078125 89.390625 C8.19455207 89.53969461 3.33967314 89.64817356 -1.51831055 89.72021484 C-3.1682863 89.75026434 -4.81810395 89.79111764 -6.4675293 89.84326172 C-21.95331482 90.32032307 -21.95331482 90.32032307 -26.4765625 86.546875 C-29.49321492 83.21145661 -30.96451566 79.97580238 -30.9375 75.41015625 C-30.57477564 71.1138877 -29.82160004 67.72629359 -26.94921875 64.390625 C-21.23871638 60.52745929 -16.20289092 59.85692056 -9.44921875 60.140625 C-5.24171875 60.264375 -5.24171875 60.264375 -0.94921875 60.390625 C-0.94921875 50.160625 -0.94921875 39.930625 -0.94921875 29.390625 C-2.92921875 29.390625 -4.90921875 29.390625 -6.94921875 29.390625 C-9.296875 28.046875 -9.296875 28.046875 -10.94921875 25.390625 C-11.50719532 21.87851938 -11.46134587 18.43902396 -11.38671875 14.890625 C-11.39380859 13.94058594 -11.40089844 12.99054688 -11.40820312 12.01171875 C-11.3465636 5.26930324 -11.3465636 5.26930324 -9.91894531 2.11230469 C-6.91334487 -0.5148017 -3.793419 -0.1044072 0 0 Z " fill="#FFA30C" transform="translate(219.94921875,186.609375)"/>
<path d="M0 0 C9.57925361 -0.09266788 19.158353 -0.16374845 28.737957 -0.20724869 C33.18614277 -0.22812638 37.63402194 -0.25644702 42.08203125 -0.30175781 C46.37439234 -0.34520957 50.66645848 -0.36913574 54.95902252 -0.37950897 C56.59692275 -0.3869016 58.23480677 -0.40133775 59.87258148 -0.42292023 C62.16638609 -0.45194647 64.45897106 -0.45595651 66.75292969 -0.45410156 C68.05864929 -0.46298401 69.3643689 -0.47186646 70.70965576 -0.48101807 C74.54604702 0.07982705 75.67430095 0.97053248 78 4 C79.24177521 6.48355041 79.12036681 8.13107622 79.11352539 10.90869141 C79.11341209 12.44005234 79.11341209 12.44005234 79.11329651 14.00234985 C79.10813522 15.10759003 79.10297394 16.2128302 79.09765625 17.3515625 C79.0962413 18.4807309 79.09482635 19.60989929 79.09336853 20.77328491 C79.08775744 24.39054988 79.07520303 28.00775364 79.0625 31.625 C79.05748643 34.07291577 79.05292328 36.52083252 79.04882812 38.96875 C79.0377844 44.97918766 79.02103544 50.98958946 79 57 C71.03710264 57.02322988 63.07421958 57.04096918 55.11129665 57.05181217 C51.41329687 57.05701778 47.71532037 57.06407301 44.01733398 57.07543945 C40.44469539 57.08635117 36.87207911 57.09229431 33.29942513 57.09487724 C31.94036572 57.09671661 30.58130745 57.10030832 29.22225761 57.10573006 C27.31021199 57.1130505 25.39814362 57.11340899 23.48608398 57.11352539 C21.8572654 57.11685631 21.8572654 57.11685631 20.19554138 57.12025452 C16.741296 56.99026446 13.41164668 56.54340006 10 56 C10.33 55.34 10.66 54.68 11 54 C11.66 54 12.32 54 13 54 C13.4640625 52.824375 13.4640625 52.824375 13.9375 51.625 C15 49 15 49 16 47 C16.46983128 42.20772094 16.00351358 38.78824825 13.421875 34.64453125 C10.82731811 31.64368386 7.47659195 29.8311176 4 28 C4.433125 27.443125 4.86625 26.88625 5.3125 26.3125 C9.1982414 21.08433612 9.1982414 21.08433612 10.625 14.875 C9.85659093 10.11086377 8.88479194 7.87169444 6 4 C2.91619214 2.03816941 2.91619214 2.03816941 0 1 C0 0.67 0 0.34 0 0 Z " fill="#FFB440" transform="translate(339,426)"/>
<path d="M0 0 C0 0.33 0 0.66 0 1 C-0.58007812 1.02578125 -1.16015625 1.0515625 -1.7578125 1.078125 C-7.22763381 1.47527374 -10.65190088 2.39425927 -15 6 C-18.11709522 10.67564284 -17.71639076 15.52937961 -17 21 C-15.03352551 25.04263282 -11.54859258 27.38405034 -8 30 C-21.71700117 30.09267889 -35.43392786 30.16375462 -49.15117836 30.20724869 C-55.52065719 30.22812364 -61.8899218 30.2564403 -68.25927734 30.30175781 C-74.40602092 30.34521779 -80.55255845 30.3691378 -86.69944382 30.37950897 C-89.04461282 30.38689998 -91.38977055 30.4013328 -93.73485184 30.42292023 C-97.01960881 30.45195529 -100.30351426 30.45595583 -103.58837891 30.45410156 C-105.04278885 30.47567322 -105.04278885 30.47567322 -106.52658081 30.49768066 C-113.44687413 30.45540727 -116.862613 29.137387 -121.8125 24.1875 C-124.13468871 19.90978396 -124.18984186 16.10108276 -123.375 11.375 C-121.59265711 7.00015837 -119.2214348 4.40698368 -115.23674011 1.88320923 C-112.27417064 0.71339576 -109.77193505 0.71816235 -106.5871582 0.68115234 C-105.27701248 0.66128769 -103.96686676 0.64142303 -102.61701965 0.62095642 C-101.17827547 0.60904491 -99.73952924 0.59737909 -98.30078125 0.5859375 C-96.80216985 0.56711937 -95.30356838 0.54749575 -93.80497742 0.52711487 C-89.80020574 0.47524723 -85.7954011 0.43572423 -81.79046631 0.39890671 C-78.49616132 0.3671242 -75.20195795 0.3281596 -71.90773201 0.28913784 C-47.93907673 0.00628456 -23.97022523 -0.14512525 0 0 Z " fill="#FFC265" transform="translate(196,482)"/>
<path d="M0 0 C0.66 -0.0103125 1.32 -0.020625 2 -0.03125 C4.95159904 0.7527685 6.0978974 2.13348794 8 4.5 C8.48101807 7.44866943 8.48101807 7.44866943 8.45410156 10.92089844 C8.45379944 12.22194519 8.45349731 13.52299194 8.45318604 14.86346436 C8.43276086 16.27877415 8.4118969 17.69407768 8.390625 19.109375 C8.38316145 20.56096619 8.37746905 22.01256748 8.37347412 23.46417236 C8.35822643 27.27846258 8.31895309 31.09214021 8.2746582 34.90618896 C8.23368623 38.80065627 8.21545906 42.69522289 8.1953125 46.58984375 C8.15245713 54.22684129 8.08421739 61.8633347 8 69.5 C8.81984375 69.45359375 9.6396875 69.4071875 10.484375 69.359375 C11.56203125 69.32328125 12.6396875 69.2871875 13.75 69.25 C14.81734375 69.20359375 15.8846875 69.1571875 16.984375 69.109375 C20 69.5 20 69.5 22.359375 71.296875 C24.74088203 74.49489872 24.5548473 76.6160689 24 80.5 C21.53969951 83.87152289 18.91441027 85.19519658 15 86.5 C15.144375 87.056875 15.28875 87.61375 15.4375 88.1875 C17.36166939 96.09797414 17.64286678 101.57139967 15 109.5 C3.78 109.5 -7.44 109.5 -19 109.5 C-18.38681207 103.36812073 -17.86438614 98.20662162 -16.4375 92.375 C-16.16808594 91.25867188 -15.89867187 90.14234375 -15.62109375 88.9921875 C-15.41613281 88.16976562 -15.21117187 87.34734375 -15 86.5 C-15.84884766 86.10167969 -15.84884766 86.10167969 -16.71484375 85.6953125 C-17.44832031 85.34210938 -18.18179688 84.98890625 -18.9375 84.625 C-19.66839844 84.27695313 -20.39929688 83.92890625 -21.15234375 83.5703125 C-23 82.5 -23 82.5 -24 80.5 C-24.57578507 74.28152122 -24.57578507 74.28152122 -22.37109375 71.2890625 C-19.30574625 68.97616439 -17.54371894 69.0850557 -13.75 69.25 C-12.67234375 69.28609375 -11.5946875 69.3221875 -10.484375 69.359375 C-9.66453125 69.40578125 -8.8446875 69.4521875 -8 69.5 C-8.00888245 68.6945575 -8.01776489 67.88911499 -8.0269165 67.05926514 C-8.10708005 59.46701455 -8.16797298 51.87496928 -8.20724869 44.28240585 C-8.22811969 40.37900482 -8.25642757 36.4759536 -8.30175781 32.57275391 C-8.34523427 28.8055808 -8.36914077 25.03874405 -8.37950897 21.27133942 C-8.38689723 19.83439081 -8.40132506 18.39746053 -8.42292023 16.96065521 C-8.45197203 14.94758575 -8.45363405 12.93417747 -8.45410156 10.92089844 C-8.46298401 9.77506287 -8.47186646 8.62922729 -8.48101807 7.44866943 C-7.69832628 2.65072213 -4.92135243 -0.07689613 0 0 Z " fill="#FFB541" transform="translate(256,-0.5)"/>
<path d="M0 0 C1.56966503 2.08133064 2.43345386 4.14535014 3.36303711 6.57910156 C3.69561523 7.43375 4.02819336 8.28839844 4.37084961 9.16894531 C5.79852316 13.23974421 6.35752103 16.56082362 6.30053711 20.89160156 C6.29151367 21.78363281 6.28249023 22.67566406 6.27319336 23.59472656 C6.2615918 24.27019531 6.24999023 24.94566406 6.23803711 25.64160156 C7.38272461 25.73441406 7.38272461 25.73441406 8.55053711 25.82910156 C11.23803711 26.64160156 11.23803711 26.64160156 12.88549805 28.64453125 C14.70085865 32.66716063 14.63327811 36.04621938 14.56616211 40.40722656 C14.56428894 41.24122986 14.56241577 42.07523315 14.56048584 42.93450928 C14.55378491 44.68945337 14.53990949 46.44438303 14.51928711 48.19921875 C14.48798259 50.89629874 14.47829915 53.59279496 14.47241211 56.29003906 C14.46324772 57.99577542 14.45287376 59.7015058 14.44116211 61.40722656 C14.43478729 62.62276215 14.43478729 62.62276215 14.42828369 63.862854 C14.35523039 69.52440828 14.35523039 69.52440828 13.23803711 70.64160156 C-7.24192858 73.31664689 -7.24192858 73.31664689 -13.80493164 68.32910156 C-15.52510721 65.47353417 -16.66194429 62.77950322 -17.76196289 59.64160156 C-18.3046582 58.92359375 -18.84735352 58.20558594 -19.40649414 57.46582031 C-20.76196289 55.64160156 -20.76196289 55.64160156 -20.63696289 52.70410156 C-20.18309594 50.32767461 -19.60132924 47.99738494 -19.01586914 45.64941406 C-16.45852294 35.24872378 -16.1890443 27.35309706 -18.51196289 16.95410156 C-18.66866455 16.24092773 -18.82536621 15.52775391 -18.98681641 14.79296875 C-20.19260159 9.82192147 -22.13852139 6.02318978 -24.76196289 1.64160156 C-24.76196289 0.98160156 -24.76196289 0.32160156 -24.76196289 -0.35839844 C-20.9923942 -0.61303274 -17.22158519 -0.83272079 -13.44946289 -1.04589844 C-12.37760742 -1.11873047 -11.30575195 -1.1915625 -10.20141602 -1.26660156 C-8.659375 -1.3487793 -8.659375 -1.3487793 -7.08618164 -1.43261719 C-6.13831787 -1.49022217 -5.1904541 -1.54782715 -4.21386719 -1.60717773 C-1.76196289 -1.35839844 -1.76196289 -1.35839844 0 0 Z " fill="#FFCE85" transform="translate(383.761962890625,356.3583984375)"/>
<path d="M0 0 C2.73029796 2.82746875 3.36942774 4.78426953 3.32128906 8.66650391 C3.31848938 9.58912018 3.3156897 10.51173645 3.31280518 11.46231079 C3.29723572 12.45701385 3.28166626 13.45171692 3.265625 14.4765625 C3.26840125 16.6145851 3.27234749 18.75260644 3.27734375 20.890625 C3.26907176 24.23640295 3.25053744 27.58121512 3.20947266 30.92675781 C3.07118473 44.342691 3.78038352 55.38811172 9.49511719 67.66162109 C11 71 11 71 11 74 C7.37 74.33 3.74 74.66 0 75 C-4.28344171 83.34143912 -6.08885761 90.68458902 -7 100 C-9.92669691 100.97556564 -11.44061321 101.0606341 -14.44921875 100.87890625 C-15.29677734 100.83056641 -16.14433594 100.78222656 -17.01757812 100.73242188 C-18.33918945 100.64831055 -18.33918945 100.64831055 -19.6875 100.5625 C-20.58017578 100.51029297 -21.47285156 100.45808594 -22.39257812 100.40429688 C-24.5954156 100.2747182 -26.79778873 100.13975754 -29 100 C-29.78022012 87.91868454 -25.46660783 78.34103308 -19.90625 67.87060547 C-15.29123993 59.07380369 -13.56407626 51.4905446 -13.59375 41.54296875 C-13.57749573 39.94489128 -13.57749573 39.94489128 -13.56091309 38.31452942 C-13.51528263 33.79053898 -13.50351776 29.26661118 -13.48876953 24.74243164 C-13.47310795 21.42573515 -13.44013527 18.1095209 -13.40625 14.79296875 C-13.40927124 13.7700322 -13.41229248 12.74709564 -13.41540527 11.69316101 C-13.40023865 10.26566277 -13.40023865 10.26566277 -13.38476562 8.80932617 C-13.38271118 7.97487473 -13.38065674 7.14042328 -13.37854004 6.28068542 C-12.9074251 3.44224069 -11.96368129 2.07991776 -10 0 C-6.20519658 -1.26493447 -3.87641726 -0.89988258 0 0 Z " fill="#FFC265" transform="translate(151,282)"/>
<path d="M0 0 C11.22 0 22.44 0 34 0 C35.59894158 5.59629553 36.20655445 9.08353786 36.3125 14.6875 C36.55917747 21.32851991 37.99567702 26.40470021 40.87890625 32.45703125 C42 35 42 35 42.4375 38.75 C43.26009063 43.50274587 46.02996226 46.31839072 49 50 C52 54.6 52 54.6 52 57 C47.1436398 57.02484561 42.28731716 57.04292865 37.4309082 57.05493164 C35.78116206 57.05993919 34.1314203 57.06674716 32.48168945 57.07543945 C30.10106315 57.08766254 27.72049587 57.09326422 25.33984375 57.09765625 C24.61039047 57.10281754 23.88093719 57.10797882 23.12937927 57.11329651 C18.65058638 57.11377964 14.41992641 56.73285068 10 56 C10.33 55.34 10.66 54.68 11 54 C11.66 54 12.32 54 13 54 C13.4640625 52.824375 13.4640625 52.824375 13.9375 51.625 C15 49 15 49 16 47 C16.46983128 42.20772094 16.00351358 38.78824825 13.421875 34.64453125 C10.82731811 31.64368386 7.47659195 29.8311176 4 28 C4.433125 27.443125 4.86625 26.88625 5.3125 26.3125 C9.1982414 21.08433612 9.1982414 21.08433612 10.625 14.875 C9.85659093 10.11086377 8.88479194 7.87169444 6 4 C2.91619214 2.03816941 2.91619214 2.03816941 0 1 C0 0.67 0 0.34 0 0 Z " fill="#FFA812" transform="translate(339,426)"/>
<path d="M0 0 C1.51660973 -0.01407143 1.51660973 -0.01407143 3.06385803 -0.02842712 C4.14936447 -0.01719315 5.23487091 -0.00595917 6.35327148 0.00561523 C7.47249496 0.00416 8.59171844 0.00270477 9.74485779 0.00120544 C12.10939133 0.00286465 14.47393564 0.01442821 16.83837891 0.03515625 C20.46425045 0.06412816 24.08866198 0.05576136 27.71459961 0.04272461 C30.0108307 0.04896135 32.30705716 0.05735178 34.60327148 0.06811523 C35.69080215 0.0651796 36.77833282 0.06224396 37.89881897 0.05921936 C38.90673996 0.07190353 39.91466095 0.08458771 40.953125 0.09765625 C42.2840493 0.10576073 42.2840493 0.10576073 43.64186096 0.11402893 C46.37548137 0.58088713 47.26834374 1.30236857 48.91186523 3.50170898 C49.30004883 5.90600586 49.30004883 5.90600586 49.31030273 8.72045898 C49.31610352 10.24219727 49.31610352 10.24219727 49.32202148 11.79467773 C49.31041992 12.85299805 49.29881836 13.91131836 49.28686523 15.00170898 C49.2984668 16.0600293 49.31006836 17.11834961 49.32202148 18.20874023 C49.3181543 19.22323242 49.31428711 20.23772461 49.31030273 21.28295898 C49.30691895 22.21172852 49.30353516 23.14049805 49.30004883 24.09741211 C48.8288507 27.01587698 48.2282095 27.71680268 45.91186523 29.50170898 C43.64186096 29.89611816 43.64186096 29.89611816 40.953125 29.92163086 C39.44124352 29.94549866 39.44124352 29.94549866 37.89881897 29.96984863 C36.26752296 29.97015076 36.26752296 29.97015076 34.60327148 29.97045898 C33.48500473 29.97807251 32.36673798 29.98568604 31.21458435 29.99353027 C28.84831985 30.00434159 26.48200759 30.00718022 24.11572266 30.00268555 C20.49162335 30.00171361 16.86964285 30.04331874 13.24584961 30.08764648 C10.94832799 30.09285354 8.650799 30.09554168 6.35327148 30.09545898 C4.72501183 30.12005188 4.72501183 30.12005188 3.06385803 30.1451416 C-4.40062039 30.07644221 -4.40062039 30.07644221 -7.77001953 27.25976562 C-9.08756711 24.50289676 -9.60200163 22.80837525 -9.61938477 19.77905273 C-9.62454102 18.91086914 -9.62969727 18.04268555 -9.63500977 17.14819336 C-9.61954102 16.25422852 -9.60407227 15.36026367 -9.58813477 14.43920898 C-9.60360352 13.54137695 -9.61907227 12.64354492 -9.63500977 11.71850586 C-9.62985352 10.85161133 -9.62469727 9.9847168 -9.61938477 9.09155273 C-9.61487305 8.30643311 -9.61036133 7.52131348 -9.60571289 6.71240234 C-8.41209179 1.61417636 -4.89263476 0.00091546 0 0 Z " fill="#FFB440" transform="translate(252.088134765625,186.498291015625)"/>
<path d="M0 0 C11.22 0 22.44 0 34 0 C34.495 6.435 34.495 6.435 35 13 C38.0635176 22.00488506 42.49245126 29.29151795 48 37 C48.44988281 37.63083496 48.89976562 38.26166992 49.36328125 38.91162109 C50.57403519 40.60880822 51.78684343 42.30452945 53 44 C20.92797194 46.41822401 20.92797194 46.41822401 14.50390625 41.3046875 C11.49404269 37.94338433 9.7359997 34.12103014 8 30 C7.38511719 28.88109375 6.77023438 27.7621875 6.13671875 26.609375 C4.58848806 23.77629079 3.23007915 20.98304908 2 18 C1.61972656 17.1440625 1.23945313 16.288125 0.84765625 15.40625 C0 12 0 12 0 0 Z " fill="#FFC265" transform="translate(170,382)"/>
<path d="M0 0 C1.44115425 0.00022659 1.44115425 0.00022659 2.91142273 0.00045776 C3.94588028 0.01078033 4.98033783 0.02110291 6.04614258 0.03173828 C7.63789055 0.03598312 7.63789055 0.03598312 9.26179504 0.04031372 C12.6548688 0.05151894 16.0476797 0.07662431 19.44067383 0.10205078 C21.73949814 0.11208013 24.03832659 0.12120606 26.3371582 0.12939453 C31.97591994 0.15145938 37.6145281 0.18494034 43.25317383 0.22705078 C41.98364258 1.72444661 40.71411133 3.22184245 39.44458008 4.71923828 C36.28419056 8.71894436 36.71307767 13.3511827 37.25317383 18.22705078 C39.50948856 22.73968024 42.32865579 25.16813954 46.25317383 28.22705078 C39.38481303 28.32863705 32.51664666 28.39859453 25.64770508 28.44677734 C23.31201945 28.46686787 20.97638396 28.49414539 18.64086914 28.52880859 C15.27974052 28.57743769 11.91927808 28.6000457 8.55786133 28.61767578 C6.99659012 28.64864349 6.99659012 28.64864349 5.40377808 28.68023682 C-2.3071754 28.68261266 -5.34593331 27.18045774 -11.12182617 22.16455078 C-13.63350463 17.62420895 -13.62316242 13.29197725 -12.74682617 8.22705078 C-10.01990361 2.96055148 -5.91072766 -0.03102744 0 0 Z " fill="#FFCE85" transform="translate(107.746826171875,483.77294921875)"/>
<path d="M0 0 C1.03125 0.00322266 2.0625 0.00644531 3.125 0.00976562 C4.74535156 0.02233398 4.74535156 0.02233398 6.3984375 0.03515625 C8.03039062 0.04192383 8.03039062 0.04192383 9.6953125 0.04882812 C12.38807539 0.06063849 15.08072938 0.07710847 17.7734375 0.09765625 C16.96302002 0.84547363 16.15260254 1.59329102 15.31762695 2.36376953 C11.50780668 6.96901356 12.04564337 12.11359625 12.06640625 17.83984375 C12.05128494 18.96335236 12.03616364 20.08686096 12.02058411 21.24441528 C11.97771497 24.8206999 11.96886929 28.3961403 11.9609375 31.97265625 C11.93779278 34.40236618 11.91242751 36.83205605 11.88476562 39.26171875 C11.81775385 45.20749067 11.79678303 51.15091216 11.7734375 57.09765625 C4.5134375 57.09765625 -2.7465625 57.09765625 -10.2265625 57.09765625 C-10.29545036 49.92566482 -10.35518119 42.75482239 -10.39135742 35.58276367 C-10.40643904 33.14327097 -10.42690719 30.70380535 -10.45288086 28.2644043 C-10.48929062 24.75693066 -10.50629539 21.24981571 -10.51953125 17.7421875 C-10.53501511 16.65243118 -10.55049896 15.56267487 -10.56645203 14.43989563 C-10.5685668 4.91397023 -10.5685668 4.91397023 -7.2265625 1.09765625 C-4.66933021 -0.1809599 -2.85919148 -0.01570984 0 0 Z " fill="#FFA813" transform="translate(104.2265625,425.90234375)"/>
<path d="M0 0 C0.66 -0.0103125 1.32 -0.020625 2 -0.03125 C4.95159904 0.7527685 6.0978974 2.13348794 8 4.5 C8.48101807 7.44866943 8.48101807 7.44866943 8.45410156 10.92089844 C8.45364838 12.87246857 8.45364838 12.87246857 8.45318604 14.86346436 C8.43276086 16.27877415 8.4118969 17.69407768 8.390625 19.109375 C8.38316145 20.56096619 8.37746905 22.01256748 8.37347412 23.46417236 C8.35822643 27.27846258 8.31895309 31.09214021 8.2746582 34.90618896 C8.23368623 38.80065627 8.21545906 42.69522289 8.1953125 46.58984375 C8.15245694 54.22687365 8.08211535 61.86327283 8 69.5 C2.72 69.5 -2.56 69.5 -8 69.5 C-8.09038572 61.09412776 -8.16376396 52.68863358 -8.20724869 44.28240585 C-8.22811969 40.37900482 -8.25642757 36.4759536 -8.30175781 32.57275391 C-8.34523427 28.8055808 -8.36914077 25.03874405 -8.37950897 21.27133942 C-8.38689723 19.83439081 -8.40132506 18.39746053 -8.42292023 16.96065521 C-8.45197203 14.94758575 -8.45363405 12.93417747 -8.45410156 10.92089844 C-8.46298401 9.77506287 -8.47186646 8.62922729 -8.48101807 7.44866943 C-7.69832628 2.65072213 -4.92135243 -0.07689613 0 0 Z " fill="#FFC264" transform="translate(256,-0.5)"/>
<path d="M0 0 C0.77261673 0.00565979 1.54523346 0.01131958 2.34126282 0.01715088 C4.80756754 0.03953173 7.27241617 0.08972797 9.73828125 0.140625 C11.4107863 0.16068794 13.08331414 0.17893908 14.75585938 0.1953125 C18.85472721 0.23940169 22.95250742 0.30843825 27.05078125 0.390625 C26.56399902 0.95595947 26.0772168 1.52129395 25.57568359 2.10375977 C23.85636358 4.68218925 23.66551526 5.92436393 23.65234375 8.98046875 C23.64847656 9.84736328 23.64460938 10.71425781 23.640625 11.60742188 C23.65222656 12.50525391 23.66382813 13.40308594 23.67578125 14.328125 C23.66417969 15.22208984 23.65257812 16.11605469 23.640625 17.03710938 C23.64642578 18.33938477 23.64642578 18.33938477 23.65234375 19.66796875 C23.65572754 20.45421631 23.65911133 21.24046387 23.66259766 22.05053711 C24.15015106 24.98965622 25.40738414 26.93423319 27.05078125 29.390625 C22.28196249 29.48962635 17.51374395 29.56215428 12.74414062 29.61035156 C11.12228982 29.63044644 9.50051128 29.65772754 7.87890625 29.69238281 C5.54539145 29.7409977 3.21283568 29.76361389 0.87890625 29.78125 C-0.20568878 29.81221771 -0.20568878 29.81221771 -1.31219482 29.84381104 C-4.67686545 29.84530507 -6.62184502 29.61990691 -9.4074707 27.66894531 C-11.18647063 25.04002571 -11.45231238 23.69499631 -11.4453125 20.546875 C-11.4462793 19.17208984 -11.4462793 19.17208984 -11.44726562 17.76953125 C-11.42728516 16.81949219 -11.40730469 15.86945313 -11.38671875 14.890625 C-11.39380859 13.94058594 -11.40089844 12.99054688 -11.40820312 12.01171875 C-11.3465636 5.26930324 -11.3465636 5.26930324 -9.91894531 2.11230469 C-6.91334487 -0.5148017 -3.793419 -0.1044072 0 0 Z " fill="#FFA813" transform="translate(219.94921875,186.609375)"/>
<path d="M0 0 C0.74617584 0.00565979 1.49235168 0.01131958 2.26113892 0.01715088 C4.62528887 0.03939602 6.98787709 0.08956516 9.3515625 0.140625 C10.96221757 0.16070556 12.57289659 0.1789536 14.18359375 0.1953125 C18.11517757 0.23922119 22.04560602 0.30816182 25.9765625 0.390625 C25.19925781 0.99390625 24.42195313 1.5971875 23.62109375 2.21875 C20.18558159 5.04023414 17.43972332 7.81750933 16.625 12.34375 C16.34900317 18.91749274 19.07735185 23.27905473 22.9765625 28.390625 C18.38681788 28.5147444 13.79806164 28.60520376 9.20703125 28.6652832 C7.64728771 28.69034127 6.0876606 28.72439801 4.52832031 28.76782227 C2.27900407 28.82886693 0.0312469 28.85691926 -2.21875 28.87890625 C-2.909617 28.90471268 -3.60048401 28.9305191 -4.31228638 28.95710754 C-9.9672438 28.9603422 -12.17934509 27.21196062 -16.0234375 23.390625 C-18.31633277 20.36817214 -18.44792032 17.2388921 -18.3359375 13.48046875 C-17.5946412 8.52304974 -15.28114674 5.39982759 -11.43359375 2.3125 C-7.46465106 0.07570756 -4.42222073 -0.12809338 0 0 Z " fill="#FFA812" transform="translate(180.0234375,425.609375)"/>
<path d="M0 0 C11.55 0 23.1 0 35 0 C33.54910197 8.7053882 31.84919231 17.37043589 30 26 C18.45 26 6.9 26 -5 26 C-3.54910197 17.2946118 -1.84919231 8.62956411 0 0 Z " fill="#FFB541" transform="translate(230,136)"/>
<path d="M0 0 C11.22 0 22.44 0 34 0 C32 14 32 14 29 25 C17.78 25 6.56 25 -5 25 C-4 16 -4 16 0 0 Z " fill="#FFC265" transform="translate(225,162)"/>
<path d="M0 0 C19.47 0 38.94 0 59 0 C59 0.33 59 0.66 59 1 C50.75 1 42.5 1 34 1 C34.66 2.98 35.32 4.96 36 7 C36.67725849 14.46976278 36.41001376 22.17997247 33 29 C21.78 29 10.56 29 -1 29 C-0.01 28.34 0.98 27.68 2 27 C5.31554921 24.57398838 7.47411214 22.82846639 9 19 C9.56557089 14.48277793 9.50876002 10.32842895 7.875 6.0625 C5.54604089 3.50064498 3.16807498 2.33763166 0 1 C0 0.67 0 0.34 0 0 Z " fill="#FFC265" transform="translate(358,483)"/>
<path d="M0 0 C9.24 0 18.48 0 28 0 C28.639375 2.454375 29.27875 4.90875 29.9375 7.4375 C30.13722412 8.19087646 30.33694824 8.94425293 30.54272461 9.72045898 C31.86667803 14.9128909 32.39523793 19.55714133 33 25 C20.46 25 7.92 25 -5 25 C-3.43384861 16.64719257 -1.8435544 8.29599478 0 0 Z " fill="#FFCE85" transform="translate(259,162)"/>
<path d="M0 0 C0.66257812 0.09152344 1.32515625 0.18304688 2.0078125 0.27734375 C4.57903065 1.35854636 5.41085245 2.70621035 6.875 5.0625 C7.23576355 7.40374756 7.23576355 7.40374756 7.21557617 10.01464844 C7.21534958 10.99536316 7.21512299 11.97607788 7.21488953 12.98651123 C7.19940567 14.03768127 7.18392181 15.08885132 7.16796875 16.171875 C7.16372391 17.25382141 7.15947906 18.33576782 7.15510559 19.45050049 C7.13831845 22.9047539 7.10066527 26.35842304 7.0625 29.8125 C7.04745325 32.15493949 7.03376483 34.49738813 7.02148438 36.83984375 C6.98841481 42.58092838 6.93821466 48.32167245 6.875 54.0625 C5.96105469 53.56363281 5.04710937 53.06476563 4.10546875 52.55078125 C0.13737194 50.72267377 -1.93382575 51.03447613 -6.125 52.0625 C-7.115 52.7225 -8.105 53.3825 -9.125 54.0625 C-9.251851 47.17590009 -9.33937266 40.28960177 -9.3996582 33.40209961 C-9.42479125 31.05953716 -9.45890308 28.71705305 -9.50219727 26.37475586 C-9.56289928 23.00615101 -9.59122251 19.63858351 -9.61328125 16.26953125 C-9.63908768 15.22352249 -9.6648941 14.17751373 -9.69148254 13.09980774 C-9.69428745 5.81644785 -9.69428745 5.81644785 -6.7277832 1.88769531 C-4.04579942 0.00696079 -3.1619806 -0.55179661 0 0 Z " fill="#FFCE85" transform="translate(367.125,280.9375)"/>
<path d="M0 0 C2.82845673 2.90145327 3.37144622 4.95962254 3.34057617 8.95214844 C3.34034958 9.93286316 3.34012299 10.91357788 3.33988953 11.92401123 C3.32440567 12.97518127 3.30892181 14.02635132 3.29296875 15.109375 C3.28872391 16.19132141 3.28447906 17.27326782 3.28010559 18.38800049 C3.26331845 21.8422539 3.22566527 25.29592304 3.1875 28.75 C3.17245325 31.09243949 3.15876483 33.43488813 3.14648438 35.77734375 C3.11341481 41.51842838 3.06321466 47.25917245 3 53 C2.236875 52.51273437 1.47375 52.02546875 0.6875 51.5234375 C-2.56173094 49.68157694 -4.31427671 49.53928459 -8 50 C-9.6908786 50.95849223 -11.36181395 51.95399607 -13 53 C-13.07603428 46.09496103 -13.12859318 39.19002993 -13.16479492 32.28466797 C-13.1798859 29.93534307 -13.20036092 27.58604637 -13.22631836 25.23681641 C-13.2626872 21.86093185 -13.27972338 18.48541963 -13.29296875 15.109375 C-13.30845261 14.05820496 -13.32393646 13.00703491 -13.33988953 11.92401123 C-13.34011612 10.94329651 -13.34034271 9.96258179 -13.34057617 8.95214844 C-13.34723801 8.09055115 -13.35389984 7.22895386 -13.36076355 6.34124756 C-12.91562006 3.45239943 -12.00155929 2.10580086 -10 0 C-6.20519658 -1.26493447 -3.87641726 -0.89988258 0 0 Z " fill="#FFCE85" transform="translate(151,282)"/>
<path d="M0 0 C0.87269531 -0.0038269 1.74539062 -0.00765381 2.64453125 -0.01159668 C4.48699092 -0.0143149 6.32948924 -0.00695994 8.171875 0.00976562 C10.99045934 0.03117752 13.80649485 0.00996199 16.625 -0.015625 C18.41667229 -0.01298171 20.20834299 -0.00785669 22 0 C22.84175781 -0.00809692 23.68351562 -0.01619385 24.55078125 -0.02453613 C28.36291401 0.03649075 30.37021548 0.07980724 33.53125 2.34570312 C35.6927383 5.5620667 35.54038687 7.74854194 35 11.53125 C33.00155718 14.45205104 31.77367411 15.36158894 28.31469727 16.12011719 C22.61090016 16.82757792 16.88915476 16.75614114 11.15014648 16.77148438 C8.9402163 16.78123801 6.73119884 16.81233342 4.52148438 16.84375 C3.1067763 16.850277 1.69206165 16.85552866 0.27734375 16.859375 C-1.63703491 16.87339355 -1.63703491 16.87339355 -3.59008789 16.88769531 C-7.23464207 16.50672237 -9.10637868 15.73406238 -12 13.53125 C-13.54586876 10.43951248 -13.29359521 7.93695448 -13 4.53125 C-9.64661468 -0.5168086 -5.5254094 -0.05314928 0 0 Z " fill="#FFA811" transform="translate(245,68.46875)"/>
<path d="M0 0 C3.34768735 1.73822228 5.43753452 3.09516422 7.4375 6.3125 C8.91386298 13.36623424 6.22707366 17.54585268 3 24 C-3.93 24 -10.86 24 -18 24 C-17.22088337 19.32530023 -16.29962776 15.33157057 -14.8125 10.875 C-14.42707031 9.67617188 -14.04164063 8.47734375 -13.64453125 7.2421875 C-10.77213323 1.57926504 -6.30755429 -1.05125905 0 0 Z " fill="#FFB542" transform="translate(149,331)"/>
<path d="M0 0 C1.98 0 3.96 0 6 0 C6.84043997 3.5817048 7.67110899 7.16560643 8.5 10.75 C8.73847656 11.76578125 8.97695313 12.7815625 9.22265625 13.828125 C9.44824219 14.8078125 9.67382812 15.7875 9.90625 16.796875 C10.11572266 17.69760742 10.32519531 18.59833984 10.54101562 19.52636719 C11 22 11 22 11 26 C5.72 26 0.44 26 -5 26 C-3.35 17.42 -1.7 8.84 0 0 Z " fill="#FFCE84" transform="translate(270,110)"/>
<path d="M0 0 C2.15377564 2.62198774 3.40072174 4.64404172 4 8 C1.69 8 -0.62 8 -3 8 C-1.125 1.125 -1.125 1.125 0 0 Z " fill="#FFB645" transform="translate(353,347)"/>
<path d="M0 0 C0.33 0 0.66 0 1 0 C1.66 3.63 2.32 7.26 3 11 C1.35 11 -0.3 11 -2 11 C-1.34 7.37 -0.68 3.74 0 0 Z " fill="#FFC467" transform="translate(273,99)"/>
<path d="M0 0 C0.66 0.33 1.32 0.66 2 1 C-0.31 3.31 -2.62 5.62 -5 8 C-5 5 -5 5 -2.5 2.3125 C-1.675 1.549375 -0.85 0.78625 0 0 Z " fill="#FFCC77" transform="translate(80,484)"/>
</svg>
