<?xml version="1.0" encoding="UTF-8"?>
<svg version="1.1" xmlns="http://www.w3.org/2000/svg" width="512" height="512">
<path d="M0 0 C5.94 0 11.88 0 18 0 C17.96745117 1.9895874 17.93490234 3.9791748 17.90136719 6.02905273 C17.80112971 12.71450756 17.76975271 19.39913058 17.76940536 26.08529568 C17.76719533 30.12692095 17.74408968 34.16583306 17.66748047 38.20678711 C17.2964482 58.72235689 18.3901128 74.3397934 29.57769775 92.26356506 C31.50576587 95.97306701 32.67796175 100.03388525 34 104 C42.91 104 51.82 104 61 104 C61 95.42 61 86.84 61 78 C66.94 78 72.88 78 79 78 C78.99097656 79.68738281 78.98195313 81.37476562 78.97265625 83.11328125 C79.10441391 99.46522287 81.0670757 114.62533182 84.56079102 130.58325195 C84.71906372 131.30744827 84.87733643 132.03164459 85.04040527 132.77778625 C85.47564168 134.74711062 85.92401438 136.71351871 86.37329102 138.6796875 C87 142 87 142 87 147 C92.61 147 98.22 147 104 147 C104 138.42 104 129.84 104 121 C109.94 121 115.88 121 122 121 C121.979375 122.485 121.95875 123.97 121.9375 125.5 C122.01351284 145.02288913 125.61380659 163.36100666 129.80592346 182.36463928 C131 187.80033682 131 187.80033682 131 190 C136.28 190 141.56 190 147 190 C147 181.42 147 172.84 147 164 C153.27 164 159.54 164 166 164 C165.99097656 165.83175781 165.98195313 167.66351563 165.97265625 169.55078125 C166.11980228 189.27486053 168.95860813 207.62027479 173.37329102 226.82495117 C174 230 174 230 174 234 C179.61 234 185.22 234 191 234 C191 225.42 191 216.84 191 208 C196.94 208 202.88 208 209 208 C208.979375 209.464375 208.95875 210.92875 208.9375 212.4375 C209.02266889 234.39716846 212.91066194 255.61736822 216.80592346 277.17056274 C217.04133095 278.47759659 217.04133095 278.47759659 217.28149414 279.81103516 C217.42059708 280.57485504 217.55970001 281.33867493 217.70301819 282.12564087 C218 284 218 284 218 286 C223.28 286 228.56 286 234 286 C234 277.42 234 268.84 234 260 C239.94 260 245.88 260 252 260 C251.979375 261.4128125 251.95875 262.825625 251.9375 264.28125 C252.0054331 280.94842804 254.73006457 296.48517525 258.20507812 312.74023438 C258.38630722 313.58828644 258.56753632 314.4363385 258.7542572 315.31008911 C259.09951079 316.91205068 259.44979699 318.51293873 259.80592346 320.11251831 C260.55191172 323.52285291 261 326.48828968 261 330 C255.39 330 249.78 330 244 330 C244 366.96 244 403.92 244 442 C249.61 442 255.22 442 261 442 C261 465.1 261 488.2 261 512 C94.68 512 -71.64 512 -243 512 C-243 488.9 -243 465.8 -243 442 C-237.39 442 -231.78 442 -226 442 C-226 405.04 -226 368.08 -226 330 C-231.61 330 -237.22 330 -243 330 C-242.54264135 324.35289112 -241.61610145 318.91019059 -240.40625 313.37890625 C-236.50364351 295.41801598 -233.88668188 278.47085427 -234 260 C-228.06 260 -222.12 260 -216 260 C-216 268.58 -216 277.16 -216 286 C-210.72 286 -205.44 286 -200 286 C-199.59007812 283.39609375 -199.18015625 280.7921875 -198.7578125 278.109375 C-198.35413113 275.54750597 -197.9502673 272.98566576 -197.54638672 270.42382812 C-197.26885283 268.66279037 -196.99150437 266.90172338 -196.71435547 265.140625 C-196.44523943 263.43071802 -196.17582322 261.72085826 -195.90609741 260.01104736 C-195.64036655 258.32528219 -195.37557708 256.63936835 -195.11172485 254.95330811 C-194.41424293 250.51869063 -193.65547817 246.10288763 -192.84375 241.6875 C-191.702462 234.90641653 -191.54693803 228.11319318 -191.375 221.25 C-191.33632812 219.96867188 -191.29765625 218.68734375 -191.2578125 217.3671875 C-191.16461287 214.24499999 -191.08127109 211.12252078 -191 208 C-185.06 208 -179.12 208 -173 208 C-173 216.58 -173 225.16 -173 234 C-167.39 234 -161.78 234 -156 234 C-155.896875 232.79601562 -155.79375 231.59203125 -155.6875 230.3515625 C-155.24777908 226.37704275 -154.50771896 222.54788317 -153.625 218.6484375 C-149.47670502 200.22654877 -148.02572737 182.85815996 -148 164 C-141.73 164 -135.46 164 -129 164 C-129 172.58 -129 181.16 -129 190 C-123.72 190 -118.44 190 -113 190 C-112.67386719 188.22496094 -112.34773437 186.44992188 -112.01171875 184.62109375 C-111.8012793 183.48027344 -111.59083984 182.33945313 -111.37402344 181.1640625 C-110.9128182 178.66056437 -110.45386714 176.15665001 -109.99707031 173.65234375 C-108.03772805 162.98018165 -108.03772805 162.98018165 -107.03515625 158.81640625 C-104.09657535 146.40419141 -104.26745415 133.69946074 -104 121 C-98.06 121 -92.12 121 -86 121 C-86 129.58 -86 138.16 -86 147 C-80.39 147 -74.78 147 -69 147 C-68.8453125 144.95232422 -68.8453125 144.95232422 -68.6875 142.86328125 C-68.14699293 137.44013021 -67.01774602 132.23518381 -65.82861328 126.92236328 C-62.17644065 110.46068474 -61.0249263 94.87510816 -61 78 C-55.06 78 -49.12 78 -43 78 C-43 86.58 -43 95.16 -43 104 C-34.09 104 -25.18 104 -16 104 C-15.01 101.03 -14.02 98.06 -13 95 C-11.57769775 92.26356506 -11.57769775 92.26356506 -10.12597656 89.93774414 C0.29247525 71.92854367 0.6715561 56.09016133 0.28753662 35.83404541 C0.22398945 31.77684253 0.23067954 27.71972217 0.23046875 23.66210938 C0.2202021 15.7729884 0.1290456 7.88807213 0 0 Z " fill="#E3E3E3" transform="translate(247,0)"/>
<path d="M0 0 C5.94 0 11.88 0 18 0 C17.96745117 1.9895874 17.93490234 3.9791748 17.90136719 6.02905273 C17.80112971 12.71450756 17.76975271 19.39913058 17.76940536 26.08529568 C17.76719533 30.12692095 17.74408968 34.16583306 17.66748047 38.20678711 C17.2964482 58.72235689 18.3901128 74.3397934 29.57769775 92.26356506 C31.50576587 95.97306701 32.67796175 100.03388525 34 104 C42.91 104 51.82 104 61 104 C61 95.42 61 86.84 61 78 C66.94 78 72.88 78 79 78 C78.99097656 79.68738281 78.98195313 81.37476562 78.97265625 83.11328125 C79.10441391 99.46522287 81.0670757 114.62533182 84.56079102 130.58325195 C84.71906372 131.30744827 84.87733643 132.03164459 85.04040527 132.77778625 C85.47564168 134.74711062 85.92401438 136.71351871 86.37329102 138.6796875 C87 142 87 142 87 147 C92.61 147 98.22 147 104 147 C104 138.42 104 129.84 104 121 C109.94 121 115.88 121 122 121 C121.979375 122.485 121.95875 123.97 121.9375 125.5 C122.01351284 145.02288913 125.61380659 163.36100666 129.80592346 182.36463928 C131 187.80033682 131 187.80033682 131 190 C136.28 190 141.56 190 147 190 C147 181.42 147 172.84 147 164 C153.27 164 159.54 164 166 164 C165.99097656 165.83175781 165.98195313 167.66351563 165.97265625 169.55078125 C166.11980228 189.27486053 168.95860813 207.62027479 173.37329102 226.82495117 C174 230 174 230 174 234 C179.61 234 185.22 234 191 234 C191 225.42 191 216.84 191 208 C196.94 208 202.88 208 209 208 C208.979375 209.464375 208.95875 210.92875 208.9375 212.4375 C209.02266889 234.39716846 212.91066194 255.61736822 216.80592346 277.17056274 C217.04133095 278.47759659 217.04133095 278.47759659 217.28149414 279.81103516 C217.42059708 280.57485504 217.55970001 281.33867493 217.70301819 282.12564087 C218 284 218 284 218 286 C223.28 286 228.56 286 234 286 C234 277.42 234 268.84 234 260 C239.94 260 245.88 260 252 260 C251.979375 261.4128125 251.95875 262.825625 251.9375 264.28125 C252.0054331 280.94842804 254.73006457 296.48517525 258.20507812 312.74023438 C258.38630722 313.58828644 258.56753632 314.4363385 258.7542572 315.31008911 C259.09951079 316.91205068 259.44979699 318.51293873 259.80592346 320.11251831 C260.55191172 323.52285291 261 326.48828968 261 330 C215.13 330 169.26 330 122 330 C122 318.45 122 306.9 122 295 C47.42 295 -27.16 295 -104 295 C-104 306.55 -104 318.1 -104 330 C-149.87 330 -195.74 330 -243 330 C-242.35414297 324.18728675 -241.67025899 319.00512018 -240.40625 313.37890625 C-240.09365348 311.94604148 -239.78259651 310.51284016 -239.47290039 309.0793457 C-239.31322784 308.34140778 -239.1535553 307.60346985 -238.98904419 306.84317017 C-235.61786009 291.12156634 -233.90103284 276.13164739 -234 260 C-228.06 260 -222.12 260 -216 260 C-216 268.58 -216 277.16 -216 286 C-210.72 286 -205.44 286 -200 286 C-199.59007812 283.39609375 -199.18015625 280.7921875 -198.7578125 278.109375 C-198.35413113 275.54750597 -197.9502673 272.98566576 -197.54638672 270.42382812 C-197.26885283 268.66279037 -196.99150437 266.90172338 -196.71435547 265.140625 C-196.44523943 263.43071802 -196.17582322 261.72085826 -195.90609741 260.01104736 C-195.64036655 258.32528219 -195.37557708 256.63936835 -195.11172485 254.95330811 C-194.41424293 250.51869063 -193.65547817 246.10288763 -192.84375 241.6875 C-191.702462 234.90641653 -191.54693803 228.11319318 -191.375 221.25 C-191.33632812 219.96867188 -191.29765625 218.68734375 -191.2578125 217.3671875 C-191.16461287 214.24499999 -191.08127109 211.12252078 -191 208 C-185.06 208 -179.12 208 -173 208 C-173 216.58 -173 225.16 -173 234 C-167.39 234 -161.78 234 -156 234 C-155.896875 232.79601562 -155.79375 231.59203125 -155.6875 230.3515625 C-155.24777908 226.37704275 -154.50771896 222.54788317 -153.625 218.6484375 C-149.47670502 200.22654877 -148.02572737 182.85815996 -148 164 C-141.73 164 -135.46 164 -129 164 C-129 172.58 -129 181.16 -129 190 C-123.72 190 -118.44 190 -113 190 C-112.67386719 188.22496094 -112.34773437 186.44992188 -112.01171875 184.62109375 C-111.8012793 183.48027344 -111.59083984 182.33945313 -111.37402344 181.1640625 C-110.9128182 178.66056437 -110.45386714 176.15665001 -109.99707031 173.65234375 C-108.03772805 162.98018165 -108.03772805 162.98018165 -107.03515625 158.81640625 C-104.09657535 146.40419141 -104.26745415 133.69946074 -104 121 C-98.06 121 -92.12 121 -86 121 C-86 129.58 -86 138.16 -86 147 C-80.39 147 -74.78 147 -69 147 C-68.8453125 144.95232422 -68.8453125 144.95232422 -68.6875 142.86328125 C-68.14699293 137.44013021 -67.01774602 132.23518381 -65.82861328 126.92236328 C-62.17644065 110.46068474 -61.0249263 94.87510816 -61 78 C-55.06 78 -49.12 78 -43 78 C-43 86.58 -43 95.16 -43 104 C-34.09 104 -25.18 104 -16 104 C-15.01 101.03 -14.02 98.06 -13 95 C-11.57769775 92.26356506 -11.57769775 92.26356506 -10.12597656 89.93774414 C0.29247525 71.92854367 0.6715561 56.09016133 0.28753662 35.83404541 C0.22398945 31.77684253 0.23067954 27.71972217 0.23046875 23.66210938 C0.2202021 15.7729884 0.1290456 7.88807213 0 0 Z " fill="#F3B02A" transform="translate(247,0)"/>
<path d="M0 0 C5.94 0 11.88 0 18 0 C17.99097656 1.68738281 17.98195313 3.37476562 17.97265625 5.11328125 C18.10441391 21.46522287 20.0670757 36.62533182 23.56079102 52.58325195 C23.79820007 53.66954643 23.79820007 53.66954643 24.04040527 54.77778625 C24.47564168 56.74711062 24.92401438 58.71351871 25.37329102 60.6796875 C26 64 26 64 26 69 C31.61 69 37.22 69 43 69 C43 60.42 43 51.84 43 43 C48.94 43 54.88 43 61 43 C60.979375 44.485 60.95875 45.97 60.9375 47.5 C61.01351284 67.02288913 64.61380659 85.36100666 68.80592346 104.36463928 C70 109.80033682 70 109.80033682 70 112 C75.28 112 80.56 112 86 112 C86 103.42 86 94.84 86 86 C92.27 86 98.54 86 105 86 C104.99097656 87.83175781 104.98195313 89.66351563 104.97265625 91.55078125 C105.11980228 111.27486053 107.95860813 129.62027479 112.37329102 148.82495117 C113 152 113 152 113 156 C118.61 156 124.22 156 130 156 C130 147.42 130 138.84 130 130 C135.94 130 141.88 130 148 130 C147.979375 131.464375 147.95875 132.92875 147.9375 134.4375 C148.02266889 156.39716846 151.91066194 177.61736822 155.80592346 199.17056274 C155.96286179 200.04191864 156.11980011 200.91327454 156.28149414 201.81103516 C156.42059708 202.57485504 156.55970001 203.33867493 156.70301819 204.12564087 C157 206 157 206 157 208 C162.28 208 167.56 208 173 208 C173 199.42 173 190.84 173 182 C178.94 182 184.88 182 191 182 C190.979375 183.4128125 190.95875 184.825625 190.9375 186.28125 C191.0054331 202.94842804 193.73006457 218.48517525 197.20507812 234.74023438 C197.38630722 235.58828644 197.56753632 236.4363385 197.7542572 237.31008911 C198.09951079 238.91205068 198.44979699 240.51293873 198.80592346 242.11251831 C199.55191172 245.52285291 200 248.48828968 200 252 C154.13 252 108.26 252 61 252 C61 240.45 61 228.9 61 217 C69.58 217 78.16 217 87 217 C87 205.45 87 193.9 87 182 C81.06 182 75.12 182 69 182 C69 187.61 69 193.22 69 199 C64.71 199 60.42 199 56 199 C50.14489934 187.3531025 44.39069455 175.65945492 38.6875 163.9375 C38.27136444 163.08283142 37.85522888 162.22816284 37.42648315 161.34759521 C31.32635664 148.81778722 25.27049745 136.26831122 19.28027344 123.68554688 C16.92474777 118.74451287 14.55615033 113.80975247 12.1875 108.875 C11.6939502 107.84665039 11.20040039 106.81830078 10.69189453 105.75878906 C7.08298322 98.24418477 3.46037783 90.73623786 -0.16629028 83.23019409 C-2.22335613 78.97197603 -4.27850294 74.71283192 -6.33349609 70.45361328 C-7.4088094 68.22516588 -8.48461922 65.99695797 -9.56103516 63.76904297 C-15.59634874 51.26915883 -21.43060346 38.71503738 -27 26 C-18.09 26 -9.18 26 0 26 C0 17.42 0 8.84 0 0 Z " fill="#D88444" transform="translate(308,78)"/>
<path d="M0 0 C5.94 0 11.88 0 18 0 C18 8.58 18 17.16 18 26 C26.91 26 35.82 26 45 26 C39.35572399 38.69110349 33.53495816 51.25288048 27.40316772 63.71466064 C25.1983661 68.1958569 23.00429473 72.68230838 20.80859375 77.16796875 C20.38252335 78.03768311 19.95645294 78.90739746 19.51747131 79.8034668 C16.37211126 86.22738872 13.26090911 92.66629121 10.1875 99.125 C5.99486473 107.93449576 1.75455803 116.72030028 -2.5 125.5 C-8.24143717 137.35021153 -13.94273248 149.21889534 -19.61572266 161.10205078 C-22.19782155 166.50760879 -24.78554442 171.91046295 -27.375 177.3125 C-28.10722778 178.84269775 -28.10722778 178.84269775 -28.85424805 180.40380859 C-31.84197365 186.63419045 -34.89406564 192.82766136 -38 199 C-42.29 199 -46.58 199 -51 199 C-51 193.39 -51 187.78 -51 182 C-56.94 182 -62.88 182 -69 182 C-69 193.55 -69 205.1 -69 217 C-60.42 217 -51.84 217 -43 217 C-43 228.55 -43 240.1 -43 252 C-88.87 252 -134.74 252 -182 252 C-181.35414297 246.18728675 -180.67025899 241.00512018 -179.40625 235.37890625 C-179.09365348 233.94604148 -178.78259651 232.51284016 -178.47290039 231.0793457 C-178.31322784 230.34140778 -178.1535553 229.60346985 -177.98904419 228.84317017 C-174.61786009 213.12156634 -172.90103284 198.13164739 -173 182 C-167.06 182 -161.12 182 -155 182 C-155 190.58 -155 199.16 -155 208 C-149.72 208 -144.44 208 -139 208 C-138.59007812 205.39609375 -138.18015625 202.7921875 -137.7578125 200.109375 C-137.35413113 197.54750597 -136.9502673 194.98566576 -136.54638672 192.42382812 C-136.26885283 190.66279037 -135.99150437 188.90172338 -135.71435547 187.140625 C-135.44523943 185.43071802 -135.17582322 183.72085826 -134.90609741 182.01104736 C-134.64036655 180.32528219 -134.37557708 178.63936835 -134.11172485 176.95330811 C-133.41424293 172.51869063 -132.65547817 168.10288763 -131.84375 163.6875 C-130.702462 156.90641653 -130.54693803 150.11319318 -130.375 143.25 C-130.33632812 141.96867188 -130.29765625 140.68734375 -130.2578125 139.3671875 C-130.16461287 136.24499999 -130.08127109 133.12252078 -130 130 C-124.06 130 -118.12 130 -112 130 C-112 138.58 -112 147.16 -112 156 C-106.39 156 -100.78 156 -95 156 C-94.896875 154.79601562 -94.79375 153.59203125 -94.6875 152.3515625 C-94.24777908 148.37704275 -93.50771896 144.54788317 -92.625 140.6484375 C-88.47670502 122.22654877 -87.02572737 104.85815996 -87 86 C-80.73 86 -74.46 86 -68 86 C-68 94.58 -68 103.16 -68 112 C-62.72 112 -57.44 112 -52 112 C-51.67386719 110.22496094 -51.34773437 108.44992188 -51.01171875 106.62109375 C-50.8012793 105.48027344 -50.59083984 104.33945313 -50.37402344 103.1640625 C-49.9128182 100.66056437 -49.45386714 98.15665001 -48.99707031 95.65234375 C-47.03772805 84.98018165 -47.03772805 84.98018165 -46.03515625 80.81640625 C-43.09657535 68.40419141 -43.26745415 55.69946074 -43 43 C-37.06 43 -31.12 43 -25 43 C-25 51.58 -25 60.16 -25 69 C-19.39 69 -13.78 69 -8 69 C-7.8453125 66.95232422 -7.8453125 66.95232422 -7.6875 64.86328125 C-7.14699293 59.44013021 -6.01774602 54.23518381 -4.82861328 48.92236328 C-1.17644065 32.46068474 -0.0249263 16.87510816 0 0 Z " fill="#D88444" transform="translate(186,78)"/>
<path d="M0 0 C14.19 0 28.38 0 43 0 C43 48.51 43 97.02 43 147 C-11.45 147 -65.9 147 -122 147 C-122 110.04 -122 73.08 -122 35 C-81.74 35 -41.48 35 0 35 C0 23.45 0 11.9 0 0 Z " fill="#D5D5D5" transform="translate(143,295)"/>
<path d="M0 0 C2.80987208 1.28259707 4.87725629 2.62290252 7.06860352 4.79394531 C7.63922012 5.35502991 8.20983673 5.9161145 8.79774475 6.49420166 C9.40202805 7.09939636 10.00631134 7.70459106 10.62890625 8.328125 C11.25981674 8.95475037 11.89072723 9.58137573 12.54075623 10.22698975 C13.87208403 11.5525823 15.20080919 12.8807932 16.52709961 14.21142578 C18.55003334 16.23751391 20.58589984 18.24993448 22.62304688 20.26171875 C23.91747755 21.5538757 25.21112355 22.84681928 26.50390625 24.140625 C27.11021378 24.73772278 27.7165213 25.33482056 28.34120178 25.95001221 C28.90866623 26.52370544 29.47613068 27.09739868 30.06079102 27.68847656 C30.55724625 28.18430237 31.05370148 28.68012817 31.56520081 29.190979 C35.64675245 34.33707377 36.43108053 38.98225207 36.34057617 45.39208984 C36.34123329 46.62235397 36.34123329 46.62235397 36.34190369 47.87747192 C36.33982369 50.57220769 36.31653024 53.26631123 36.29296875 55.9609375 C36.28736998 57.83565938 36.28310121 59.71038567 36.28010559 61.58511353 C36.26867892 66.50726548 36.23923049 71.42914973 36.20599365 76.35119629 C36.16983493 82.26332569 36.15612125 88.17554485 36.13863373 94.0877533 C36.10959185 103.05868809 36.05208947 112.02903609 36 121 C12.9 121 -10.2 121 -34 121 C-34.16043524 100.31722399 -34.16043524 100.31722399 -34.1953125 91.48242188 C-34.21919864 85.46038671 -34.24741762 79.43859545 -34.30175781 73.41674805 C-34.34530618 68.56028131 -34.36915624 63.70407624 -34.37950897 58.84742928 C-34.3868842 56.99710027 -34.4012864 55.14678515 -34.42292023 53.29656792 C-34.45207403 50.69927199 -34.45595105 48.10304918 -34.45410156 45.50561523 C-34.46848267 44.74532013 -34.48286377 43.98502502 -34.49768066 43.20169067 C-34.44420607 36.23456792 -31.78512446 31.38107627 -26.79199219 26.45141602 C-26.19167175 25.85132217 -25.59135132 25.25122833 -24.97283936 24.63294983 C-24.33727112 24.01286545 -23.70170288 23.39278107 -23.046875 22.75390625 C-22.38665344 22.09792953 -21.72643188 21.44195282 -21.04620361 20.76609802 C-18.95445925 18.69102581 -16.85248482 16.62668337 -14.75 14.5625 C-13.32222532 13.14978692 -11.89513471 11.73638212 -10.46875 10.32226562 C-6.98702724 6.87345994 -3.49609591 3.43423214 0 0 Z " fill="#DC9D2C" transform="translate(255,322)"/>
<path d="M0 0 C5.94 0 11.88 0 18 0 C17.979375 1.4128125 17.95875 2.825625 17.9375 4.28125 C18.0054331 20.94842804 20.73006457 36.48517525 24.20507812 52.74023438 C24.38630722 53.58828644 24.56753632 54.4363385 24.7542572 55.31008911 C25.09951079 56.91205068 25.44979699 58.51293873 25.80592346 60.11251831 C26.55191172 63.52285291 27 66.48828968 27 70 C-18.87 70 -64.74 70 -112 70 C-112 58.45 -112 46.9 -112 35 C-103.42 35 -94.84 35 -86 35 C-86 32.03 -86 29.06 -86 26 C-57.62 26 -29.24 26 0 26 C0 17.42 0 8.84 0 0 Z " fill="#C6643E" transform="translate(481,260)"/>
<path d="M0 0 C5.94 0 11.88 0 18 0 C18 8.58 18 17.16 18 26 C46.38 26 74.76 26 104 26 C104 28.97 104 31.94 104 35 C112.58 35 121.16 35 130 35 C130 46.55 130 58.1 130 70 C84.13 70 38.26 70 -9 70 C-8.35414297 64.18728675 -7.67025899 59.00512018 -6.40625 53.37890625 C-6.09365348 51.94604148 -5.78259651 50.51284016 -5.47290039 49.0793457 C-5.31322784 48.34140778 -5.1535553 47.60346985 -4.98904419 46.84317017 C-1.61786009 31.12156634 0.09896716 16.13164739 0 0 Z " fill="#C6643E" transform="translate(13,260)"/>
<path d="M0 0 C5.94 0 11.88 0 18 0 C17.979375 1.464375 17.95875 2.92875 17.9375 4.4375 C18.02266889 26.39716846 21.91066194 47.61736822 25.80592346 69.17056274 C25.96286179 70.04191864 26.11980011 70.91327454 26.28149414 71.81103516 C26.49014854 72.95676498 26.49014854 72.95676498 26.70301819 74.12564087 C27 76 27 76 27 78 C3.9 78 -19.2 78 -43 78 C-43 69.42 -43 60.84 -43 52 C-48.94 52 -54.88 52 -61 52 C-61 57.61 -61 63.22 -61 69 C-65.29 69 -69.58 69 -74 69 C-78.93617505 59.25831336 -83.74927139 49.45844433 -88.5 39.625 C-89.04043945 38.51326416 -89.58087891 37.40152832 -90.13769531 36.25610352 C-90.63881836 35.21510498 -91.13994141 34.17410645 -91.65625 33.1015625 C-92.10806641 32.16650879 -92.55988281 31.23145508 -93.02539062 30.26806641 C-94 28 -94 28 -94 26 C-62.98 26 -31.96 26 0 26 C0 17.42 0 8.84 0 0 Z " fill="#D78344" transform="translate(438,208)"/>
<path d="M0 0 C5.94 0 11.88 0 18 0 C18 8.58 18 17.16 18 26 C49.02 26 80.04 26 112 26 C110.49719982 30.50840053 108.94230184 34.4119287 106.8828125 38.6484375 C106.58438446 39.26465973 106.28595642 39.88088196 105.97848511 40.51577759 C105.03074088 42.4705329 104.07791343 44.42276031 103.125 46.375 C102.49316417 47.67692546 101.86165101 48.97900756 101.23046875 50.28125 C98.19302931 56.54063227 95.13036752 62.78645643 92 69 C87.71 69 83.42 69 79 69 C79 63.39 79 57.78 79 52 C73.06 52 67.12 52 61 52 C61 60.58 61 69.16 61 78 C37.9 78 14.8 78 -9 78 C-8.05125 71.9775 -7.1025 65.955 -6.125 59.75 C-5.82996582 57.87538086 -5.53493164 56.00076172 -5.23095703 54.06933594 C-5.04853455 52.91316772 -5.04853455 52.91316772 -4.86242676 51.73364258 C-4.61285157 50.15062285 -4.36433103 48.56743666 -4.11657715 46.98413086 C-3.41746862 42.53922196 -2.65736225 38.11313606 -1.84375 33.6875 C-0.702462 26.90641653 -0.54693803 20.11319318 -0.375 13.25 C-0.31699219 11.32800781 -0.31699219 11.32800781 -0.2578125 9.3671875 C-0.16461287 6.24499999 -0.08127109 3.12252078 0 0 Z " fill="#D78344" transform="translate(56,208)"/>
<path d="M0 0 C6.27 0 12.54 0 19 0 C18.99097656 1.83175781 18.98195313 3.66351563 18.97265625 5.55078125 C19.11980228 25.27486053 21.95860813 43.62027479 26.37329102 62.82495117 C27 66 27 66 27 70 C1.26 70 -24.48 70 -51 70 C-53.92875 64.01875 -56.8575 58.0375 -59.875 51.875 C-60.79651855 49.99796387 -61.71803711 48.12092773 -62.66748047 46.18701172 C-63.40101315 44.6847153 -64.13426737 43.18228286 -64.8671875 41.6796875 C-65.24560791 40.91148682 -65.62402832 40.14328613 -66.01391602 39.35180664 C-66.37912354 38.60133057 -66.74433105 37.85085449 -67.12060547 37.07763672 C-67.43593231 36.43365936 -67.75125916 35.78968201 -68.07614136 35.12619019 C-69.22336997 32.48593105 -70.0896648 29.73100561 -71 27 C-35.855 26.505 -35.855 26.505 0 26 C0 17.42 0 8.84 0 0 Z " fill="#C6643E" transform="translate(394,164)"/>
<path d="M0 0 C6.27 0 12.54 0 19 0 C19 8.58 19 17.16 19 26 C42.43 26.33 65.86 26.66 90 27 C83.92004836 41.59188394 76.88529239 55.77039573 70 70 C44.26 70 18.52 70 -8 70 C-7.39517351 64.55656157 -6.85842606 59.85651271 -5.625 54.6484375 C-1.47670502 36.22654877 -0.02572737 18.85815996 0 0 Z " fill="#C6643E" transform="translate(99,164)"/>
<path d="M0 0 C8.58 0 17.16 0 26 0 C26 42.9 26 85.8 26 130 C17.42 130 8.84 130 0 130 C0 87.1 0 44.2 0 0 Z " fill="#E8E8E8" transform="translate(343,295)"/>
<path d="M0 0 C8.58 0 17.16 0 26 0 C26 42.9 26 85.8 26 130 C17.42 130 8.84 130 0 130 C0 87.1 0 44.2 0 0 Z " fill="#E8E8E8" transform="translate(143,295)"/>
<path d="M0 0 C62.7 0 125.4 0 190 0 C190 5.61 190 11.22 190 17 C127.3 17 64.6 17 0 17 C0 11.39 0 5.78 0 0 Z " fill="#BFBFBF" transform="translate(161,469)"/>
<path d="M0 0 C11.22 0 22.44 0 34 0 C34 28.38 34 56.76 34 86 C45.55 86 57.1 86 69 86 C69 86.33 69 86.66 69 87 C45.9 87 22.8 87 -1 87 C-1.04010881 66.15678875 -1.04010881 66.15678875 -1.04882812 57.28710938 C-1.05481098 51.22972744 -1.06189648 45.1723606 -1.07543945 39.11499023 C-1.08628731 34.23263191 -1.09228089 29.35028975 -1.09487724 24.4679203 C-1.09672805 22.60316017 -1.10034211 20.73840095 -1.10573006 18.87364769 C-1.11296564 16.26625007 -1.11398987 13.65891968 -1.11352539 11.05151367 C-1.11712067 10.27683746 -1.12071594 9.50216125 -1.12442017 8.70401001 C-1.11828514 5.53125515 -1.01107343 3.0332203 0 0 Z " fill="#F3B02B" transform="translate(222,356)"/>
<path d="M0 0 C5.94 0 11.88 0 18 0 C17.99097656 1.68738281 17.98195313 3.37476562 17.97265625 5.11328125 C18.10420536 21.43817657 20.05436326 36.56734372 23.56079102 52.49536133 C23.71906372 53.21774994 23.87733643 53.94013855 24.04040527 54.68441772 C24.47507471 56.64715571 24.92369221 58.60679006 25.37329102 60.56616211 C26 64 26 64 26 70 C15.44 70 4.88 70 -6 70 C-10.79032089 60.51328608 -15.48732775 50.98511746 -20.10635376 41.41397095 C-20.70333183 40.17714198 -21.30097057 38.9406317 -21.89926147 37.70443726 C-22.74741601 35.95109584 -23.59252323 34.19628132 -24.4375 32.44140625 C-24.93121094 31.41732666 -25.42492187 30.39324707 -25.93359375 29.33813477 C-27 27 -27 27 -27 26 C-18.09 26 -9.18 26 0 26 C0 17.42 0 8.84 0 0 Z " fill="#C6643D" transform="translate(308,78)"/>
<path d="M0 0 C5.94 0 11.88 0 18 0 C18 8.58 18 17.16 18 26 C26.91 26 35.82 26 45 26 C40.1212548 36.95718184 35.16732728 47.86327333 30 58.6875 C29.51942139 59.6969165 29.03884277 60.70633301 28.54370117 61.74633789 C28.09615479 62.67953857 27.6486084 63.61273926 27.1875 64.57421875 C26.78917969 65.40526123 26.39085937 66.23630371 25.98046875 67.0925293 C25 69 25 69 24 70 C21.6243148 70.0883967 19.27791326 70.11530305 16.90234375 70.09765625 C15.83905602 70.09553383 15.83905602 70.09553383 14.75428772 70.09336853 C12.48198288 70.08775443 10.20977525 70.07519963 7.9375 70.0625 C6.40039204 70.05748681 4.86328255 70.05292359 3.32617188 70.04882812 C-0.44925642 70.03778042 -4.22461171 70.02050641 -8 70 C-7.57262876 62.7623206 -6.41511256 55.90319751 -4.82861328 48.83447266 C-1.15875173 32.40551671 -0.02488328 16.84598032 0 0 Z " fill="#C6643D" transform="translate(186,78)"/>
<path d="M0 0 C7.30995906 3.50593959 14.3094886 8.6148491 18 16 C19.7589075 25.00342439 18.63162482 33.88655615 18 43 C6.45 43 -5.1 43 -17 43 C-17.165 38.689375 -17.33 34.37875 -17.5 29.9375 C-17.57283203 28.59163818 -17.64566406 27.24577637 -17.72070312 25.85913086 C-17.88082671 17.21310286 -17.88082671 17.21310286 -15.359375 13.74047852 C-13.32568077 11.97604808 -11.24126834 10.4876024 -9 9 C-7.31405264 7.37392293 -5.64339398 5.73157201 -4 4.0625 C-3.236875 3.29035156 -2.47375 2.51820313 -1.6875 1.72265625 C-1.130625 1.15417969 -0.57375 0.58570313 0 0 Z " fill="#D38E1F" transform="translate(429,365)"/>
<path d="M0 0 C2.91346593 1.31307249 4.9450979 2.71181588 7.1640625 5.00390625 C8.01097656 5.86725586 8.01097656 5.86725586 8.875 6.74804688 C9.4525 7.34681641 10.03 7.94558594 10.625 8.5625 C11.78160151 9.75349384 12.94035778 10.94240005 14.1015625 12.12890625 C14.61025879 12.65556885 15.11895508 13.18223145 15.64306641 13.72485352 C16.99400105 15.1164217 16.99400105 15.1164217 19 16 C19 24.91 19 33.82 19 43 C7.45 43 -4.1 43 -16 43 C-18.02597403 17.67532468 -18.02597403 17.67532468 -12.4375 10.64453125 C-8.64416573 6.66598898 -4.48362922 3.1756556 0 0 Z " fill="#D38E1F" transform="translate(81,365)"/>
<path d="M0 0 C2.83476037 1.29141799 4.90658738 2.65203704 7.11621094 4.84155273 C7.69651062 5.4123204 8.2768103 5.98308807 8.87469482 6.57115173 C9.48838928 7.1857576 10.10208374 7.80036346 10.734375 8.43359375 C11.37240051 9.06733414 12.01042603 9.70107452 12.66778564 10.35401917 C14.01170082 11.69220141 15.35301645 13.03299875 16.69189453 14.3762207 C18.74777504 16.43527161 20.81664482 18.48062142 22.88671875 20.52539062 C24.19091416 21.82731409 25.49432709 23.13002199 26.796875 24.43359375 C27.41866638 25.04617538 28.04045776 25.65875702 28.68109131 26.28990173 C33 30.65619813 33 30.65619813 33 34 C11.55 34 -9.9 34 -32 34 C-28.625 28.375 -28.625 28.375 -25.99731445 25.77026367 C-25.41693924 25.19003952 -24.83656403 24.60981537 -24.23860168 24.01200867 C-23.61974594 23.40347549 -23.0008902 22.79494232 -22.36328125 22.16796875 C-21.72384079 21.53135818 -21.08440033 20.89474762 -20.42558289 20.23884583 C-18.39255501 18.21696667 -16.35266638 16.20217332 -14.3125 14.1875 C-12.92857703 12.81361367 -11.54510832 11.43926961 -10.16210938 10.06445312 C-6.77997763 6.70431133 -3.39167762 3.35050495 0 0 Z " fill="#D38D1C" transform="translate(255,322)"/>
<path d="M0 0 C17.16 0 34.32 0 52 0 C52 5.61 52 11.22 52 17 C34.84 17 17.68 17 0 17 C0 11.39 0 5.78 0 0 Z " fill="#D38D1C" transform="translate(230,165)"/>
<path d="M0 0 C5.94 0 11.88 0 18 0 C18 11.55 18 23.1 18 35 C12.06 35 6.12 35 0 35 C0 23.45 0 11.9 0 0 Z " fill="#906A36" transform="translate(247,208)"/>
<path d="M0 0 C5.61 0 11.22 0 17 0 C17 11.55 17 23.1 17 35 C11.39 35 5.78 35 0 35 C0 23.45 0 11.9 0 0 Z " fill="#8D6736" transform="translate(282,208)"/>
<path d="M0 0 C5.61 0 11.22 0 17 0 C17 11.55 17 23.1 17 35 C11.39 35 5.78 35 0 35 C0 23.45 0 11.9 0 0 Z " fill="#8D6736" transform="translate(213,208)"/>
<path d="M0 0 C5.61 0 11.22 0 17 0 C17 5.61 17 11.22 17 17 C11.39 17 5.78 17 0 17 C0 11.39 0 5.78 0 0 Z " fill="#BFBFBF" transform="translate(456,469)"/>
<path d="M0 0 C5.61 0 11.22 0 17 0 C17 5.61 17 11.22 17 17 C11.39 17 5.78 17 0 17 C0 11.39 0 5.78 0 0 Z " fill="#BFBFBF" transform="translate(412,469)"/>
<path d="M0 0 C5.61 0 11.22 0 17 0 C17 5.61 17 11.22 17 17 C11.39 17 5.78 17 0 17 C0 11.39 0 5.78 0 0 Z " fill="#BFBFBF" transform="translate(369,469)"/>
<path d="M0 0 C5.61 0 11.22 0 17 0 C17 5.61 17 11.22 17 17 C11.39 17 5.78 17 0 17 C0 11.39 0 5.78 0 0 Z " fill="#BFBFBF" transform="translate(126,469)"/>
<path d="M0 0 C5.61 0 11.22 0 17 0 C17 5.61 17 11.22 17 17 C11.39 17 5.78 17 0 17 C0 11.39 0 5.78 0 0 Z " fill="#BFBFBF" transform="translate(83,469)"/>
<path d="M0 0 C5.61 0 11.22 0 17 0 C17 5.61 17 11.22 17 17 C11.39 17 5.78 17 0 17 C0 11.39 0 5.78 0 0 Z " fill="#BFBFBF" transform="translate(39,469)"/>
</svg>
