<?xml version="1.0" encoding="UTF-8"?>
<svg version="1.1" xmlns="http://www.w3.org/2000/svg" width="512" height="512">
<path d="M0 0 C0.66 -0.0103125 1.32 -0.020625 2 -0.03125 C5.02495539 0.77225378 6.09823222 2.01352419 8 4.5 C8.3491005 7.3896512 8.4681562 9.8859271 8.390625 12.765625 C8.38496521 13.55902283 8.37930542 14.35242065 8.37347412 15.16986084 C8.35113147 17.69719473 8.30094176 20.22309665 8.25 22.75 C8.22993214 24.46612532 8.21168187 26.18227292 8.1953125 27.8984375 C8.15127395 32.0995078 8.08226326 36.29951135 8 40.5 C9.11963135 40.62407227 10.2392627 40.74814453 11.39282227 40.87597656 C15 41.5 15 41.5 16.71484375 43.484375 C17.11832031 44.39703125 17.52179688 45.3096875 17.9375 46.25 C18.41316406 47.31476562 18.88882812 48.37953125 19.37890625 49.4765625 C19.92556253 50.81515614 20.46516108 52.15664102 21 53.5 C21.34272949 54.35561523 21.68545898 55.21123047 22.03857422 56.09277344 C29 73.62909634 29 73.62909634 29 76.5 C30.15757812 76.46519531 31.31515625 76.43039063 32.5078125 76.39453125 C34.0468604 76.36637793 35.58592411 76.33907944 37.125 76.3125 C37.88554687 76.28736328 38.64609375 76.26222656 39.4296875 76.23632812 C44.34400542 76.17278091 47.85457249 76.56621822 52 79.5 C55.1830906 84.47691298 55.40638486 88.47834265 55.29296875 94.1796875 C55.28872391 94.99245148 55.28447906 95.80521545 55.28010559 96.64260864 C55.26340804 99.22041959 55.22577362 101.7974282 55.1875 104.375 C55.17244158 106.13019699 55.1587552 107.88540631 55.14648438 109.640625 C55.11353392 113.92738913 55.06181453 118.21355886 55 122.5 C56.02951782 122.45866943 56.02951782 122.45866943 57.07983398 122.41650391 C57.98032471 122.39507324 58.88081543 122.37364258 59.80859375 122.3515625 C60.70118896 122.32400879 61.59378418 122.29645508 62.51342773 122.26806641 C65 122.5 65 122.5 68.0625 124.875 C71.36837408 129.35392617 71.13077947 132.81807361 71.09765625 138.2265625 C71.09553383 139.52078629 71.09553383 139.52078629 71.09336853 140.84115601 C71.08776188 143.6024723 71.07520827 146.36370812 71.0625 149.125 C71.05748586 150.9947905 71.0529228 152.86458226 71.04882812 154.734375 C71.03779029 159.32294777 71.0205212 163.91146023 71 168.5 C72.89298828 168.46132813 72.89298828 168.46132813 74.82421875 168.421875 C78.72732664 168.34213837 80.87954884 169.00363908 84 171.5 C86.58407677 174.41580926 87.3733294 176.19824476 87.34057617 180.08496094 C87.34034958 180.98559265 87.34012299 181.88622437 87.33988953 182.81414795 C87.32440567 183.77782288 87.30892181 184.7414978 87.29296875 185.734375 C87.28872391 186.72753723 87.28447906 187.72069946 87.28010559 188.74395752 C87.26332634 191.91291528 87.225675 195.08123478 87.1875 198.25 C87.17245221 200.39973039 87.15876397 202.54947076 87.14648438 204.69921875 C87.11342536 209.96636323 87.06323334 215.23313601 87 220.5 C88.02951782 220.46737061 88.02951782 220.46737061 89.07983398 220.43408203 C89.98032471 220.41716309 90.88081543 220.40024414 91.80859375 220.3828125 C93.14748657 220.35018311 93.14748657 220.35018311 94.51342773 220.31689453 C98.01705833 220.57489384 99.67388147 221.94877322 102 224.5 C105.72976019 231.95952039 103 241.16000266 103 249.5 C143.26 249.5 183.52 249.5 225 249.5 C228.3 255.44 231.6 261.38 235 267.5 C238.29837189 273.38416515 238.29837189 273.38416515 241.6015625 279.265625 C243.06307528 282.64588361 243.29760969 284.8625482 243 288.5 C239.78548731 290.10725635 236.56387464 289.55748185 233 289.5 C233.00276538 291.20569688 233.00276538 291.20569688 233.00558662 292.94585228 C233.04992822 320.57750747 233.08282414 348.20915807 233.10362434 375.84084129 C233.11394976 389.20315264 233.12797361 402.56543846 233.15087891 415.92773438 C233.17077412 427.57033638 233.18370722 439.21292139 233.18817699 450.85553992 C233.19079094 457.02379497 233.196961 463.19200142 233.21146011 469.36024094 C233.22498298 475.15986737 233.22923343 480.95942493 233.22621536 486.75906563 C233.22676791 488.89325522 233.23077674 491.02744699 233.23841095 493.161623 C233.24828941 496.06432684 233.24599503 498.96676701 233.24050903 501.86947632 C233.24924756 503.15058715 233.24924756 503.15058715 233.25816262 504.45757902 C233.22824242 510.27175758 233.22824242 510.27175758 231 512.5 C228.47853263 512.69701944 226.06691944 512.76774455 223.54426575 512.75168228 C222.76252861 512.75458916 221.98079147 512.75749604 221.17536533 512.76049101 C218.52804818 512.76785141 215.88095845 512.76081977 213.23364258 512.75396729 C211.32768287 512.75626934 209.42172405 512.75944413 207.5157671 512.76342177 C202.25659602 512.77181358 196.99749702 512.76762472 191.7383256 512.76144934 C186.07500614 512.75694368 180.41169951 512.76389919 174.74838257 512.76940918 C163.64536019 512.77832509 152.54236477 512.77637142 141.43934131 512.7705839 C132.41957041 512.76607603 123.3998071 512.7654507 114.3800354 512.76763153 C113.09866693 512.767938 111.81729847 512.76824446 110.49710065 512.76856022 C107.89442118 512.76919964 105.29174171 512.76984806 102.68906224 512.7705054 C78.95304058 512.7760522 55.21703529 512.77028975 31.48101623 512.7598202 C9.79690657 512.75032847 -11.8871796 512.7511777 -33.57128906 512.76074219 C-57.91417666 512.77144343 -82.25704826 512.77566575 -106.59993839 512.76951766 C-109.19330406 512.76888053 -111.78666973 512.76825179 -114.3800354 512.76763153 C-115.65618294 512.76732298 -116.93233049 512.76701443 -118.24714917 512.76669653 C-127.26115399 512.76496616 -136.27515051 512.76789203 -145.28915405 512.77259064 C-156.26693574 512.77818682 -167.2446888 512.77670973 -178.22246718 512.76602915 C-183.82868256 512.76075536 -189.43485014 512.75874457 -195.04106522 512.76532745 C-200.1655615 512.77125391 -205.28996534 512.76806692 -210.41445315 512.75737235 C-212.27578852 512.7551242 -214.13713159 512.75630594 -215.99846208 512.76112393 C-218.5138436 512.76713925 -221.02890161 512.76103564 -223.54426575 512.75168228 C-224.64733855 512.75870578 -224.64733855 512.75870578 -225.77269566 512.76587117 C-230.77169925 512.72830075 -230.77169925 512.72830075 -233 510.5 C-233.19357255 507.59161382 -233.26035345 504.77876554 -233.24050903 501.86947632 C-233.24221788 500.9653024 -233.24392673 500.06112848 -233.24568737 499.12955534 C-233.24899741 496.08157107 -233.23795373 493.03380404 -233.22705078 489.98583984 C-233.22648699 487.80823268 -233.22680259 485.63062513 -233.22793579 483.45301819 C-233.22851157 477.52560668 -233.21672086 471.59827548 -233.20278788 465.6708827 C-233.190318 459.4822222 -233.18911298 453.29356004 -233.18673706 447.10488892 C-233.18086556 436.04602841 -233.16640841 424.98720127 -233.14745162 413.92835601 C-233.12355595 399.91421396 -233.1111966 385.9000765 -233.10064721 371.88591838 C-233.07972029 344.42392497 -233.044523 316.96196456 -233 289.5 C-234.918125 289.5309375 -234.918125 289.5309375 -236.875 289.5625 C-240.75 289.625 -240.75 289.625 -243 288.5 C-243.25516936 283.98292422 -242.71454939 281.21398584 -240.5859375 277.234375 C-240.07160156 276.26113281 -239.55726563 275.28789062 -239.02734375 274.28515625 C-238.48207031 273.28355469 -237.93679687 272.28195312 -237.375 271.25 C-236.59189453 269.77080078 -236.59189453 269.77080078 -235.79296875 268.26171875 C-234.22435122 265.3220133 -232.64067032 262.40027013 -231 259.5 C-230.6472551 258.68973799 -230.29451019 257.87947598 -229.93107605 257.04466057 C-226.53029403 250.05808333 -226.53029403 250.05808333 -222.50444984 248.58989716 C-219.33647183 248.26568769 -216.30285024 248.26249118 -213.11962891 248.36474609 C-211.33341125 248.36255569 -211.33341125 248.36255569 -209.5111084 248.36032104 C-206.25776565 248.36608163 -203.0087667 248.41608479 -199.7562871 248.48606062 C-196.35321101 248.54872743 -192.95004232 248.55445945 -189.54647827 248.5663147 C-183.10723701 248.59735314 -176.66970074 248.6793489 -170.23120916 248.77980959 C-162.89892393 248.89172379 -155.56655568 248.94659995 -148.23362851 248.99676394 C-133.15480354 249.10119104 -118.07757255 249.2769921 -103 249.5 C-103.02094727 248.8294458 -103.04189453 248.1588916 -103.06347656 247.46801758 C-103.14686027 244.4163322 -103.19873016 241.36488683 -103.25 238.3125 C-103.30027344 236.72985352 -103.30027344 236.72985352 -103.3515625 235.11523438 C-103.45071882 227.25709587 -103.45071882 227.25709587 -101.109375 223.32421875 C-97.8670386 220.5201982 -96.08244428 220.38355841 -91.875 220.4375 C-90.96492187 220.44652344 -90.05484375 220.45554688 -89.1171875 220.46484375 C-88.06917969 220.48224609 -88.06917969 220.48224609 -87 220.5 C-87.01110306 219.94956024 -87.02220612 219.39912048 -87.03364563 218.83200073 C-87.14448999 213.08933787 -87.21977035 207.34698014 -87.2746582 201.60351562 C-87.29976163 199.46178844 -87.33385168 197.32014659 -87.37719727 195.17871094 C-87.4380315 192.0954887 -87.46625181 189.01340157 -87.48828125 185.9296875 C-87.51408768 184.97633514 -87.5398941 184.02298279 -87.56648254 183.04074097 C-87.5683433 178.6039483 -87.47660573 175.47193311 -84.65698242 171.91064453 C-81.33880107 168.90010307 -79.13812874 168.36658805 -74.8125 168.4375 C-73.554375 168.458125 -72.29625 168.47875 -71 168.5 C-71.02094727 167.34999512 -71.04189453 166.19999023 -71.06347656 165.01513672 C-71.13609063 160.73254944 -71.18187729 156.45001617 -71.21972656 152.16699219 C-71.23979339 150.31631304 -71.26705345 148.46569691 -71.30175781 146.61523438 C-71.35049433 143.94906023 -71.37301787 141.28372713 -71.390625 138.6171875 C-71.41127014 137.79507782 -71.43191528 136.97296814 -71.45318604 136.12594604 C-71.45525694 130.7770092 -70.57116884 127.73775381 -67 123.5 C-64.47524538 122.23762269 -62.68799534 122.40143596 -59.875 122.4375 C-58.50988281 122.45103516 -58.50988281 122.45103516 -57.1171875 122.46484375 C-56.41851562 122.47644531 -55.71984375 122.48804687 -55 122.5 C-55.02356567 120.86587158 -55.02356567 120.86587158 -55.04760742 119.19873047 C-55.10208978 115.13972425 -55.13641639 111.0807501 -55.16479492 107.02148438 C-55.17983995 105.26784827 -55.20028104 103.51424953 -55.22631836 101.76074219 C-55.26289121 99.23362991 -55.2797692 96.70701704 -55.29296875 94.1796875 C-55.30845261 93.40132538 -55.32393646 92.62296326 -55.33988953 91.8210144 C-55.34137124 86.98001535 -54.6817517 83.69304585 -52 79.5 C-47.17274175 76.08367628 -42.79919709 76.12496298 -37.125 76.3125 C-35.949375 76.33280273 -35.949375 76.33280273 -34.75 76.35351562 C-32.83303218 76.38858211 -30.91642249 76.44237928 -29 76.5 C-28.83491943 75.91009277 -28.66983887 75.32018555 -28.49975586 74.71240234 C-26.56533667 68.01417356 -24.19235034 61.57888982 -21.5625 55.125 C-20.98918945 53.66900391 -20.98918945 53.66900391 -20.40429688 52.18359375 C-20.02466797 51.24902344 -19.64503906 50.31445312 -19.25390625 49.3515625 C-18.74839233 48.09593506 -18.74839233 48.09593506 -18.23266602 46.81494141 C-16.78817179 44.10218754 -15.42604049 42.39555721 -13 40.5 C-10.25 40.25 -10.25 40.25 -8 40.5 C-8.02094727 39.43040039 -8.04189453 38.36080078 -8.06347656 37.25878906 C-8.13594626 33.28561827 -8.18182463 29.31250575 -8.21972656 25.33886719 C-8.23982628 23.62001721 -8.26711089 21.90123548 -8.30175781 20.18261719 C-8.35035034 17.71011511 -8.37298435 15.2385179 -8.390625 12.765625 C-8.41127014 11.99881409 -8.43191528 11.23200317 -8.45318604 10.44195557 C-8.45468704 6.86267032 -8.30713127 4.90156032 -6.10058594 2.01660156 C-3.82782594 0.37569209 -2.77007014 -0.04328235 0 0 Z " fill="#FED05B" transform="translate(256,-0.5)"/>
<path d="M0 0 C33 0 66 0 100 0 C100.08060607 55.59131853 100.08060607 55.59131853 100.09765625 78.81640625 C100.10158379 84.1238608 100.10561323 89.43131523 100.10986328 94.73876953 C100.11039078 95.4040056 100.11091828 96.06924167 100.11146176 96.75463641 C100.12016892 107.50526726 100.13594125 118.25587679 100.15430559 129.00649498 C100.1729849 140.03316457 100.18396276 151.05982237 100.18817699 162.08650696 C100.19079095 168.2827076 100.19696107 174.47885984 100.21146011 180.67504501 C100.22498289 186.50093619 100.22923345 192.32675881 100.22621536 198.15266418 C100.22676791 200.2965291 100.2307768 202.44039619 100.23841095 204.58424759 C100.24828926 207.50008822 100.24599508 210.41566637 100.24050903 213.33151245 C100.24924756 214.61845971 100.24924756 214.61845971 100.25816262 215.9314059 C100.22824242 221.77175758 100.22824242 221.77175758 98 224 C95.95790672 224.24609566 95.95790672 224.24609566 93.39364624 224.24050903 C92.4232692 224.24325836 91.45289215 224.24600769 90.45310974 224.24884033 C89.38496536 224.24164978 88.31682098 224.23445923 87.21630859 224.22705078 C86.09435593 224.22734283 84.97240326 224.22763489 83.81645203 224.22793579 C80.09370289 224.22653815 76.37115184 224.21095644 72.6484375 224.1953125 C70.07296864 224.19158392 67.49749837 224.18873622 64.92202759 224.18673706 C58.82696847 224.17987096 52.73199157 224.16409479 46.63696349 224.14403808 C39.69872788 224.12170114 32.76048889 224.11069121 25.82222629 224.10064721 C11.54810608 224.07972912 -2.72592979 224.04304405 -17 224 C-17.33 215.42 -17.66 206.84 -18 198 C-20.31743341 196.8412833 -21.64857674 196.87019625 -24.22852516 196.8613348 C-25.12077313 196.85586036 -26.0130211 196.85038591 -26.93230689 196.84474558 C-27.91867302 196.84376747 -28.90503915 196.84278936 -29.92129517 196.84178162 C-30.96430987 196.83684364 -32.00732457 196.83190566 -33.08194578 196.82681805 C-36.59971347 196.8113802 -40.11746284 196.80306546 -43.63525391 196.79467773 C-46.14783389 196.78510415 -48.66041225 196.77509438 -51.17298889 196.76467896 C-56.59412723 196.74319318 -62.01526246 196.72475985 -67.43642044 196.70907402 C-75.27456308 196.68638955 -83.11267856 196.65824476 -90.9507982 196.62875474 C-103.6667311 196.58106136 -116.38267508 196.53780192 -129.09863281 196.49731445 C-141.45313378 196.4579684 -153.80762489 196.41654432 -166.16210938 196.37231445 C-166.9232678 196.36959018 -167.68442623 196.36686591 -168.46865006 196.36405908 C-172.28704708 196.35037975 -176.10544396 196.33665945 -179.92384076 196.32291877 C-211.61587355 196.20892657 -243.30792691 196.1021969 -275 196 C-275.05383848 193.54137599 -275.09359038 191.0839245 -275.125 188.625 C-275.14175781 187.92632812 -275.15851563 187.22765625 -275.17578125 186.5078125 C-275.19344267 184.67102514 -275.10303261 182.83398037 -275 181 C-273 179 -273 179 -270.8642025 178.75390434 C-269.97375048 178.75574793 -269.08329845 178.75759151 -268.16586304 178.75949097 C-267.14500107 178.75674164 -266.1241391 178.75399231 -265.07234192 178.75115967 C-263.94809311 178.75835022 -262.8238443 178.76554077 -261.66552734 178.77294922 C-259.89481621 178.77251114 -259.89481621 178.77251114 -258.08833313 178.77206421 C-254.84675081 178.77322083 -251.60533998 178.78326823 -248.36379194 178.79721212 C-244.97785655 178.80969386 -241.59191798 178.81088796 -238.20596313 178.81326294 C-231.79216541 178.81948525 -225.37843567 178.83590618 -218.96466792 178.85596192 C-211.66368175 178.8782976 -204.36269237 178.88930847 -197.06168056 178.89935279 C-182.04108246 178.92027179 -167.02054802 178.9554623 -152 179 C-152.01110306 177.86518188 -152.02220612 176.73036377 -152.03364563 175.56115723 C-152.13514038 164.85038493 -152.2100225 154.13971061 -152.25906086 143.42856598 C-152.28511994 137.92222502 -152.32045109 132.41627325 -152.37719727 126.91015625 C-152.43164786 121.59331961 -152.46144828 116.27685659 -152.47438622 110.95976257 C-152.48360263 108.9344037 -152.50160034 106.90906456 -152.52865028 104.88386536 C-152.56511391 102.03997104 -152.56993811 99.19760725 -152.56762695 96.35351562 C-152.58560333 95.52200989 -152.60357971 94.69050415 -152.62210083 93.83380127 C-152.56272684 87.05185658 -150.22300744 82.25573359 -145.45094776 77.43521881 C-140.69566886 73.29316477 -136.74116593 72.58501556 -130.6328125 72.65625 C-124.89049615 73.40598863 -120.78392386 76.87194415 -117.0625 81.125 C-113.62370207 85.9184759 -113.86246151 90.10584055 -113.88647461 95.78588867 C-113.88635407 96.69817136 -113.88623354 97.61045404 -113.88610935 98.55038166 C-113.88685632 101.50626874 -113.89447476 104.46209293 -113.90234375 107.41796875 C-113.90381384 109.2417396 -113.90483414 111.06551087 -113.90539551 112.88928223 C-113.91064064 119.65536125 -113.92460181 126.42143124 -113.9375 133.1875 C-113.958125 148.305625 -113.97875 163.42375 -114 179 C-78.36 179 -42.72 179 -6 179 C-1.91326018 149.90718981 -1.91326018 149.90718981 -10 126 C-12.31 125.67 -14.62 125.34 -17 125 C-17 88.7 -17 52.4 -17 15 C-12.05 14.67 -7.1 14.34 -2 14 C1.33333333 10.66666667 -0.36155076 4.70015992 0 0 Z " fill="#FED05B" transform="translate(389,288)"/>
<path d="M0 0 C0.66 -0.0103125 1.32 -0.020625 2 -0.03125 C5.02495539 0.77225378 6.09823222 2.01352419 8 4.5 C8.3491005 7.3896512 8.4681562 9.8859271 8.390625 12.765625 C8.38496521 13.55902283 8.37930542 14.35242065 8.37347412 15.16986084 C8.35113147 17.69719473 8.30094176 20.22309665 8.25 22.75 C8.22993214 24.46612532 8.21168187 26.18227292 8.1953125 27.8984375 C8.15127395 32.0995078 8.08226326 36.29951135 8 40.5 C9.11963135 40.62407227 10.2392627 40.74814453 11.39282227 40.87597656 C15 41.5 15 41.5 16.71484375 43.484375 C17.11832031 44.39703125 17.52179688 45.3096875 17.9375 46.25 C18.41316406 47.31476562 18.88882813 48.37953125 19.37890625 49.4765625 C19.92556253 50.81515614 20.46516108 52.15664102 21 53.5 C21.34272949 54.35561523 21.68545898 55.21123047 22.03857422 56.09277344 C29 73.62909634 29 73.62909634 29 76.5 C30.15757812 76.46519531 31.31515625 76.43039063 32.5078125 76.39453125 C34.0468604 76.36637793 35.58592411 76.33907944 37.125 76.3125 C37.88554687 76.28736328 38.64609375 76.26222656 39.4296875 76.23632812 C44.34400542 76.17278091 47.85457249 76.56621822 52 79.5 C55.1830906 84.47691298 55.40638486 88.47834265 55.29296875 94.1796875 C55.28872391 94.99245148 55.28447906 95.80521545 55.28010559 96.64260864 C55.26340804 99.22041959 55.22577362 101.7974282 55.1875 104.375 C55.17244158 106.13019699 55.1587552 107.88540631 55.14648438 109.640625 C55.11353392 113.92738913 55.06181453 118.21355886 55 122.5 C56.02951782 122.45866943 56.02951782 122.45866943 57.07983398 122.41650391 C57.98032471 122.39507324 58.88081543 122.37364258 59.80859375 122.3515625 C61.14748657 122.31023193 61.14748657 122.31023193 62.51342773 122.26806641 C65 122.5 65 122.5 68.0625 124.875 C71.36837408 129.35392617 71.13077947 132.81807361 71.09765625 138.2265625 C71.09553383 139.52078629 71.09553383 139.52078629 71.09336853 140.84115601 C71.08776188 143.6024723 71.07520827 146.36370812 71.0625 149.125 C71.05748586 150.9947905 71.0529228 152.86458226 71.04882812 154.734375 C71.03779029 159.32294777 71.0205212 163.91146023 71 168.5 C72.89298828 168.46132813 72.89298828 168.46132813 74.82421875 168.421875 C78.72732664 168.34213837 80.87954884 169.00363908 84 171.5 C86.58407677 174.41580926 87.3733294 176.19824476 87.34057617 180.08496094 C87.34034958 180.98559265 87.34012299 181.88622437 87.33988953 182.81414795 C87.32440567 183.77782288 87.30892181 184.7414978 87.29296875 185.734375 C87.28872391 186.72753723 87.28447906 187.72069946 87.28010559 188.74395752 C87.26332634 191.91291528 87.225675 195.08123478 87.1875 198.25 C87.17245221 200.39973039 87.15876397 202.54947076 87.14648438 204.69921875 C87.11342536 209.96636323 87.06323334 215.23313601 87 220.5 C88.02951782 220.46737061 88.02951782 220.46737061 89.07983398 220.43408203 C89.98032471 220.41716309 90.88081543 220.40024414 91.80859375 220.3828125 C93.14748657 220.35018311 93.14748657 220.35018311 94.51342773 220.31689453 C98.01705833 220.57489384 99.67388147 221.94877322 102 224.5 C103.23080509 226.96161017 103.12043977 228.56496993 103.11352539 231.31689453 C103.11340454 232.33178955 103.11328369 233.34668457 103.11315918 234.39233398 C103.10804321 235.46169189 103.10292725 236.5310498 103.09765625 237.6328125 C103.09664917 238.6137085 103.09564209 239.59460449 103.09460449 240.60522461 C103.08936223 244.27849492 103.07540102 247.9517486 103.0625 251.625 C103.041875 259.83375 103.02125 268.0425 103 276.5 C76.6 276.5 50.2 276.5 23 276.5 C23 258.02 23 239.54 23 220.5 C7.82 220.5 -7.36 220.5 -23 220.5 C-23 238.98 -23 257.46 -23 276.5 C-49.4 276.5 -75.8 276.5 -103 276.5 C-103.0825 268.353125 -103.165 260.20625 -103.25 251.8125 C-103.30462402 247.96525269 -103.30462402 247.96525269 -103.36035156 244.0402832 C-103.37203653 242.0021244 -103.38222881 239.96395625 -103.390625 237.92578125 C-103.41108887 236.87177124 -103.43155273 235.81776123 -103.45263672 234.73181152 C-103.4561983 227.25694908 -103.4561983 227.25694908 -101.10058594 223.34838867 C-97.87301268 220.50831927 -96.09078017 220.38345154 -91.875 220.4375 C-90.96492187 220.44652344 -90.05484375 220.45554688 -89.1171875 220.46484375 C-88.06917969 220.48224609 -88.06917969 220.48224609 -87 220.5 C-87.01110306 219.94956024 -87.02220612 219.39912048 -87.03364563 218.83200073 C-87.14448999 213.08933787 -87.21977035 207.34698014 -87.2746582 201.60351562 C-87.29976163 199.46178844 -87.33385168 197.32014659 -87.37719727 195.17871094 C-87.4380315 192.0954887 -87.46625181 189.01340157 -87.48828125 185.9296875 C-87.51408768 184.97633514 -87.5398941 184.02298279 -87.56648254 183.04074097 C-87.5683433 178.6039483 -87.47660573 175.47193311 -84.65698242 171.91064453 C-81.33880107 168.90010307 -79.13812874 168.36658805 -74.8125 168.4375 C-73.554375 168.458125 -72.29625 168.47875 -71 168.5 C-71.02094727 167.34999512 -71.04189453 166.19999023 -71.06347656 165.01513672 C-71.13609063 160.73254944 -71.18187729 156.45001617 -71.21972656 152.16699219 C-71.23979339 150.31631304 -71.26705345 148.46569691 -71.30175781 146.61523438 C-71.35049433 143.94906023 -71.37301787 141.28372713 -71.390625 138.6171875 C-71.41127014 137.79507782 -71.43191528 136.97296814 -71.45318604 136.12594604 C-71.45525694 130.7770092 -70.57116884 127.73775381 -67 123.5 C-64.47524538 122.23762269 -62.68799534 122.40143596 -59.875 122.4375 C-58.50988281 122.45103516 -58.50988281 122.45103516 -57.1171875 122.46484375 C-56.41851562 122.47644531 -55.71984375 122.48804687 -55 122.5 C-55.01571045 121.41058105 -55.0314209 120.32116211 -55.04760742 119.19873047 C-55.10208978 115.13972425 -55.13641639 111.0807501 -55.16479492 107.02148438 C-55.17983995 105.26784827 -55.20028104 103.51424953 -55.22631836 101.76074219 C-55.26289121 99.23362991 -55.2797692 96.70701704 -55.29296875 94.1796875 C-55.30845261 93.40132538 -55.32393646 92.62296326 -55.33988953 91.8210144 C-55.34137124 86.98001535 -54.6817517 83.69304585 -52 79.5 C-47.17274175 76.08367628 -42.79919709 76.12496298 -37.125 76.3125 C-35.949375 76.33280273 -35.949375 76.33280273 -34.75 76.35351562 C-32.83303218 76.38858211 -30.91642249 76.44237928 -29 76.5 C-28.83491943 75.91009277 -28.66983887 75.32018555 -28.49975586 74.71240234 C-26.56533667 68.01417356 -24.19235034 61.57888982 -21.5625 55.125 C-21.18029297 54.15433594 -20.79808594 53.18367188 -20.40429688 52.18359375 C-20.02466797 51.24902344 -19.64503906 50.31445312 -19.25390625 49.3515625 C-18.74839233 48.09593506 -18.74839233 48.09593506 -18.23266602 46.81494141 C-16.78817179 44.10218754 -15.42604049 42.39555721 -13 40.5 C-10.25 40.25 -10.25 40.25 -8 40.5 C-8.0314209 38.89560059 -8.0314209 38.89560059 -8.06347656 37.25878906 C-8.13594626 33.28561827 -8.18182463 29.31250575 -8.21972656 25.33886719 C-8.23982628 23.62001721 -8.26711089 21.90123548 -8.30175781 20.18261719 C-8.35035034 17.71011511 -8.37298435 15.2385179 -8.390625 12.765625 C-8.41127014 11.99881409 -8.43191528 11.23200317 -8.45318604 10.44195557 C-8.45468704 6.86267032 -8.30713127 4.90156032 -6.10058594 2.01660156 C-3.82782594 0.37569209 -2.77007014 -0.04328235 0 0 Z " fill="#FFE076" transform="translate(256,-0.5)"/>
<path d="M0 0 C15.18 0 30.36 0 46 0 C46 18.48 46 36.96 46 56 C72.4 56 98.8 56 126 56 C126 47.09 126 38.18 126 29 C166.26 29 206.52 29 248 29 C251.3 34.94 254.6 40.88 258 47 C261.29837189 52.88416515 261.29837189 52.88416515 264.6015625 58.765625 C266.06307528 62.14588361 266.29760969 64.3625482 266 68 C263.6418471 69.17907645 262.28671589 69.10972209 259.65939331 69.08229065 C258.74791534 69.07525116 257.83643738 69.06821167 256.89733887 69.06095886 C255.89464966 69.04801285 254.89196045 69.03506683 253.85888672 69.02172852 C252.80520905 69.01212097 251.75153137 69.00251343 250.66592407 68.99261475 C247.17044575 68.95953757 243.67508903 68.91923845 240.1796875 68.87890625 C237.76116367 68.85461366 235.3426353 68.83076968 232.92410278 68.80735779 C226.54867387 68.74443123 220.17332509 68.6753889 213.79797363 68.60510254 C207.29634256 68.53449641 200.79465453 68.46963328 194.29296875 68.40429688 C181.52858354 68.27517408 168.76427262 68.13978969 156 68 C156.02320313 68.91523438 156.04640625 69.83046875 156.0703125 70.7734375 C156.08835937 71.96195312 156.10640625 73.15046875 156.125 74.375 C156.14820313 75.55835938 156.17140625 76.74171875 156.1953125 77.9609375 C156 81 156 81 154 83 C149.05 83 144.1 83 139 83 C139 119.63 139 156.26 139 194 C124.48 194 109.96 194 95 194 C95 157.37 95 120.74 95 83 C47.48 83 -0.04 83 -49 83 C-49 119.63 -49 156.26 -49 194 C-63.52 194 -78.04 194 -93 194 C-93 157.37 -93 120.74 -93 83 C-97.62 83 -102.24 83 -107 83 C-110 80 -110 80 -110.29296875 77.08203125 C-110.25816406 76.00308594 -110.22335938 74.92414063 -110.1875 73.8125 C-110.14689453 72.18248047 -110.14689453 72.18248047 -110.10546875 70.51953125 C-110.07066406 69.68808594 -110.03585938 68.85664063 -110 68 C-110.5547595 68.00607553 -111.109519 68.01215105 -111.6810894 68.01841068 C-125.16757843 68.16575998 -138.65411673 68.30743461 -152.1407299 68.4429636 C-158.66269964 68.50867644 -165.18463829 68.57629129 -171.70654297 68.64819336 C-177.99585186 68.71746214 -184.2851933 68.78181261 -190.57458878 68.84269524 C-192.97887131 68.86684479 -195.38313645 68.89279242 -197.78738022 68.92053413 C-201.14452136 68.95896938 -204.50166644 68.99111703 -207.85888672 69.02172852 C-208.86157593 69.03467453 -209.86426514 69.04762054 -210.89733887 69.06095886 C-212.26455582 69.0715181 -212.26455582 69.0715181 -213.65939331 69.08229065 C-214.45397886 69.09058679 -215.24856441 69.09888292 -216.06722832 69.10743046 C-218 69 -218 69 -220 68 C-220.25516936 63.48292422 -219.71454939 60.71398584 -217.5859375 56.734375 C-216.81443359 55.27451172 -216.81443359 55.27451172 -216.02734375 53.78515625 C-215.48207031 52.78355469 -214.93679687 51.78195312 -214.375 50.75 C-213.85292969 49.76386719 -213.33085937 48.77773438 -212.79296875 47.76171875 C-211.22435122 44.8220133 -209.64067032 41.90027013 -208 39 C-207.6472551 38.18973799 -207.29451019 37.37947598 -206.93107605 36.54466057 C-203.53029403 29.55808333 -203.53029403 29.55808333 -199.50444984 28.08989716 C-196.33647183 27.76568769 -193.30285024 27.76249118 -190.11962891 27.86474609 C-188.33341125 27.86255569 -188.33341125 27.86255569 -186.5111084 27.86032104 C-183.25776565 27.86608163 -180.0087667 27.91608479 -176.7562871 27.98606062 C-173.35321101 28.04872743 -169.95004232 28.05445945 -166.54647827 28.0663147 C-160.10723701 28.09735314 -153.66970074 28.1793489 -147.23120916 28.27980959 C-139.89892393 28.39172379 -132.56655568 28.44659995 -125.23362851 28.49676394 C-110.15464733 28.60119212 -95.07787971 28.78451647 -80 29 C-80 37.91 -80 46.82 -80 56 C-53.6 56 -27.2 56 0 56 C0 37.52 0 19.04 0 0 Z " fill="#F2EFF2" transform="translate(233,220)"/>
<path d="M0 0 C47.52 0 95.04 0 144 0 C144 36.63 144 73.26 144 111 C169.245 110.505 169.245 110.505 195 110 C207.76279315 122.76279315 199 145.95068484 199 164 C163.36 164 127.72 164 91 164 C90.6875 118.375 90.6875 118.375 90.61206055 103.98583984 C90.57548233 99.71746536 90.57548233 99.71746536 90.5349884 95.4491272 C90.51887274 93.55276248 90.50856148 91.6563429 90.50288391 89.75991821 C90.49312794 86.88180343 90.46477047 84.00440215 90.43237305 81.12646484 C90.43379901 80.28616415 90.43522497 79.44586346 90.43669415 78.58009911 C90.34714862 73.00007072 89.43526651 68.67554614 85.53515625 64.390625 C79.26389836 59.5333112 74.93240367 58.00997735 67 59 C62.12811159 60.7037795 58.86539774 63.75496631 56 68 C55.64177155 68.52801208 55.28354309 69.05602417 54.91445923 69.60003662 C53.50968661 73.2868088 53.69113231 77.00557189 53.68115234 80.89941406 C53.67099909 81.81181728 53.66084583 82.7242205 53.6503849 83.66427231 C53.61977396 86.61471924 53.60259959 89.56506976 53.5859375 92.515625 C53.56900185 94.33838736 53.55118509 96.16114175 53.5324707 97.98388672 C53.46929754 104.73916636 53.42318437 111.49459682 53.375 118.25 C53.25125 133.3475 53.1275 148.445 53 164 C17.36 164 -18.28 164 -55 164 C-55 114 -55 114 -51 110 C-34.17 110.33 -17.34 110.66 0 111 C0 74.37 0 37.74 0 0 Z " fill="#CBC3CB" transform="translate(184,303)"/>
<path d="M0 0 C0.66 -0.0103125 1.32 -0.020625 2 -0.03125 C5.02495539 0.77225378 6.09823222 2.01352419 8 4.5 C8.3491005 7.3896512 8.4681562 9.8859271 8.390625 12.765625 C8.38496521 13.55902283 8.37930542 14.35242065 8.37347412 15.16986084 C8.35113147 17.69719473 8.30094176 20.22309665 8.25 22.75 C8.22993214 24.46612532 8.21168187 26.18227292 8.1953125 27.8984375 C8.15127395 32.0995078 8.08226326 36.29951135 8 40.5 C9.11963135 40.62407227 10.2392627 40.74814453 11.39282227 40.87597656 C15 41.5 15 41.5 16.71484375 43.484375 C17.11832031 44.39703125 17.52179688 45.3096875 17.9375 46.25 C18.41316406 47.31476562 18.88882813 48.37953125 19.37890625 49.4765625 C19.92556253 50.81515614 20.46516108 52.15664102 21 53.5 C21.34272949 54.35561523 21.68545898 55.21123047 22.03857422 56.09277344 C29 73.62909634 29 73.62909634 29 76.5 C30.73636719 76.44779297 30.73636719 76.44779297 32.5078125 76.39453125 C34.0468604 76.36637793 35.58592411 76.33907944 37.125 76.3125 C37.88554687 76.28736328 38.64609375 76.26222656 39.4296875 76.23632812 C44.34400542 76.17278091 47.85457249 76.56621822 52 79.5 C55.1830906 84.47691298 55.40638486 88.47834265 55.29296875 94.1796875 C55.28872391 94.99245148 55.28447906 95.80521545 55.28010559 96.64260864 C55.26340804 99.22041959 55.22577362 101.7974282 55.1875 104.375 C55.17244158 106.13019699 55.1587552 107.88540631 55.14648438 109.640625 C55.11353392 113.92738913 55.06181453 118.21355886 55 122.5 C56.02951782 122.45866943 56.02951782 122.45866943 57.07983398 122.41650391 C57.98032471 122.39507324 58.88081543 122.37364258 59.80859375 122.3515625 C60.70118896 122.32400879 61.59378418 122.29645508 62.51342773 122.26806641 C65 122.5 65 122.5 68.0625 124.875 C71.36837408 129.35392617 71.13077947 132.81807361 71.09765625 138.2265625 C71.0962413 139.08937836 71.09482635 139.95219421 71.09336853 140.84115601 C71.08776188 143.6024723 71.07520827 146.36370812 71.0625 149.125 C71.05748586 150.9947905 71.0529228 152.86458226 71.04882812 154.734375 C71.03779029 159.32294777 71.0205212 163.91146023 71 168.5 C72.89298828 168.46132813 72.89298828 168.46132813 74.82421875 168.421875 C78.72732664 168.34213837 80.87954884 169.00363908 84 171.5 C86.58407677 174.41580926 87.3733294 176.19824476 87.34057617 180.08496094 C87.34034958 180.98559265 87.34012299 181.88622437 87.33988953 182.81414795 C87.32440567 183.77782288 87.30892181 184.7414978 87.29296875 185.734375 C87.28872391 186.72753723 87.28447906 187.72069946 87.28010559 188.74395752 C87.26332634 191.91291528 87.225675 195.08123478 87.1875 198.25 C87.17245221 200.39973039 87.15876397 202.54947076 87.14648438 204.69921875 C87.11342536 209.96636323 87.06323334 215.23313601 87 220.5 C88.02951782 220.46737061 88.02951782 220.46737061 89.07983398 220.43408203 C89.98032471 220.41716309 90.88081543 220.40024414 91.80859375 220.3828125 C93.14748657 220.35018311 93.14748657 220.35018311 94.51342773 220.31689453 C98.01705833 220.57489384 99.67388147 221.94877322 102 224.5 C103.23080509 226.96161017 103.12043977 228.56496993 103.11352539 231.31689453 C103.11340454 232.33178955 103.11328369 233.34668457 103.11315918 234.39233398 C103.10804321 235.46169189 103.10292725 236.5310498 103.09765625 237.6328125 C103.09664917 238.6137085 103.09564209 239.59460449 103.09460449 240.60522461 C103.08936223 244.27849492 103.07540102 247.9517486 103.0625 251.625 C103.041875 259.83375 103.02125 268.0425 103 276.5 C76.6 276.5 50.2 276.5 23 276.5 C23 258.02 23 239.54 23 220.5 C32.9 220.5 42.8 220.5 53 220.5 C52.9489389 214.32416034 52.88599005 208.15083659 52.79248047 201.97583008 C52.76428148 199.87597792 52.74306163 197.77601983 52.72900391 195.67602539 C52.70755986 192.65455941 52.66090133 189.63436566 52.609375 186.61328125 C52.60814636 185.67664139 52.60691772 184.74000153 52.60565186 183.77497864 C52.51005119 179.50593049 52.38723392 177.12132364 50.08691406 173.43041992 C46.51877408 170.1298487 44.03451425 170.32454454 39.2421875 170.18359375 C38.02901855 170.14548584 36.81584961 170.10737793 35.56591797 170.06811523 C34.01791504 170.02501221 32.46991211 169.98190918 30.875 169.9375 C25.96625 169.793125 21.0575 169.64875 16 169.5 C16 153.99 16 138.48 16 122.5 C17.32 122.5 18.64 122.5 20 122.5 C19.95585535 117.018452 19.88603141 111.53805678 19.79248047 106.05712891 C19.76426994 104.19296447 19.74305579 102.3286804 19.72900391 100.46435547 C19.70757516 97.78290559 19.66092702 95.10289414 19.609375 92.421875 C19.60814636 91.58944275 19.60691772 90.7570105 19.60565186 89.89935303 C19.49452981 85.09054875 19.49452981 85.09054875 17.08691406 81.00488281 C14.15048063 78.88740789 12.4828686 78.36940144 8.91748047 78.29467773 C8.07675995 78.27473251 7.23603943 78.25478729 6.36984253 78.23423767 C5.46146637 78.21752518 4.55309021 78.20081268 3.6171875 78.18359375 C2.68778351 78.16281265 1.75837952 78.14203156 0.80081177 78.12062073 C-2.1743821 78.05512354 -5.14966577 77.99623948 -8.125 77.9375 C-10.13933228 77.89431494 -12.15365541 77.85070066 -14.16796875 77.80664062 C-19.11188663 77.69944197 -24.05589503 77.59817499 -29 77.5 C-28.05166132 70.49294043 -25.346644 64.38353875 -22.6875 57.875 C-22.19563993 56.63554504 -21.70410064 55.39596273 -21.21289062 54.15625 C-20.73400391 52.97804687 -20.25511719 51.79984375 -19.76171875 50.5859375 C-19.32819092 49.5139209 -18.89466309 48.4419043 -18.44799805 47.33740234 C-16.92611758 44.35522483 -15.66959302 42.52054536 -13 40.5 C-10.25 40.25 -10.25 40.25 -8 40.5 C-8.02094727 39.43040039 -8.04189453 38.36080078 -8.06347656 37.25878906 C-8.13594626 33.28561827 -8.18182463 29.31250575 -8.21972656 25.33886719 C-8.23982628 23.62001721 -8.26711089 21.90123548 -8.30175781 20.18261719 C-8.35035034 17.71011511 -8.37298435 15.2385179 -8.390625 12.765625 C-8.41127014 11.99881409 -8.43191528 11.23200317 -8.45318604 10.44195557 C-8.45468704 6.86267032 -8.30713127 4.90156032 -6.10058594 2.01660156 C-3.82782594 0.37569209 -2.77007014 -0.04328235 0 0 Z " fill="#FECF59" transform="translate(256,-0.5)"/>
<path d="M0 0 C47.52 0 95.04 0 144 0 C144 36.3 144 72.6 144 110 C134.76 110 125.52 110 116 110 C115.98582031 107.03515625 115.97164063 104.0703125 115.95703125 101.015625 C115.92631321 98.10617135 115.88724996 95.19693909 115.84741211 92.28759766 C115.82438523 90.28409806 115.80987279 88.28048004 115.80444336 86.27685547 C115.75298288 70.40327537 114.50509347 58.01335061 103 46 C92.2064726 36.03674394 81.4239911 33.53118486 66.921875 33.66015625 C54.78130181 34.71217803 44.96572797 41.03128204 37.25 50.1875 C28.36019127 62.81508489 28.22807463 74.27673055 28.1875 89.25 C28.16431849 91.26695368 28.13894567 93.28388343 28.11132812 95.30078125 C28.04489043 100.20106429 28.02344159 105.09857701 28 110 C18.76 110 9.52 110 0 110 C0 73.7 0 37.4 0 0 Z " fill="#FED05B" transform="translate(184,303)"/>
<path d="M0 0 C5.30617762 3.14739053 9.75146083 7.12156998 11.7421875 13.09375 C11.83383406 16.03047508 11.86814148 18.94304445 11.85571289 21.87963867 C11.85585892 22.77740524 11.85600494 23.67517181 11.8561554 24.60014343 C11.85545814 27.57069303 11.84767447 30.54118009 11.83984375 33.51171875 C11.83797891 35.57009344 11.83655532 37.62846858 11.83555603 39.68684387 C11.83173609 45.10705794 11.82191023 50.52724524 11.81085205 55.94744873 C11.80062671 61.47733193 11.796056 67.00721945 11.79101562 72.53710938 C11.78028753 83.38933468 11.76321734 94.24154011 11.7421875 105.09375 C12.67482453 105.09098462 12.67482453 105.09098462 13.62630272 105.08816338 C28.74015444 105.0440357 43.85398647 105.0109185 58.96788597 104.99012566 C66.27679123 104.97980368 73.58565355 104.96572583 80.89453125 104.94287109 C87.2633621 104.92296533 93.63216185 104.91004027 100.00102293 104.90557301 C103.374728 104.90296084 106.74834411 104.89680215 110.12202072 104.88228989 C113.88397337 104.86785991 117.64573917 104.86576849 121.40771484 104.86669922 C122.53196365 104.85950867 123.65621246 104.85231812 124.81452942 104.84490967 C125.83539139 104.847659 126.85625336 104.85040833 127.90805054 104.85324097 C128.79850256 104.85139738 129.68895458 104.84955379 130.60639 104.84765434 C132.7421875 105.09375 132.7421875 105.09375 134.7421875 107.09375 C134.98269653 108.96670532 134.98269653 108.96670532 134.96923828 111.26806641 C134.96908722 112.12880768 134.96893616 112.98954895 134.96878052 113.87637329 C134.95845795 114.80662323 134.94813538 115.73687317 134.9375 116.6953125 C134.93325516 118.12271255 134.93325516 118.12271255 134.92892456 119.57894897 C134.91770739 122.62567592 134.89260013 125.67211154 134.8671875 128.71875 C134.85715968 130.78124576 134.84803349 132.84374612 134.83984375 134.90625 C134.8194625 139.96895321 134.78031681 145.03102456 134.7421875 150.09375 C126.1621875 150.09375 117.5821875 150.09375 108.7421875 150.09375 C108.4121875 141.51375 108.0821875 132.93375 107.7421875 124.09375 C105.42475409 122.9350333 104.09361076 122.96394625 101.51366234 122.9550848 C100.17529038 122.94687313 100.17529038 122.94687313 98.80988061 122.93849558 C97.82351448 122.93751747 96.83714835 122.93653936 95.82089233 122.93553162 C94.77787763 122.93059364 93.73486293 122.92565566 92.66024172 122.92056805 C89.14247403 122.9051302 85.62472466 122.89681546 82.10693359 122.88842773 C79.59435361 122.87885415 77.08177525 122.86884438 74.56919861 122.85842896 C69.14806027 122.83694318 63.72692504 122.81850985 58.30576706 122.80282402 C50.46762442 122.78013955 42.62950894 122.75199476 34.7913893 122.72250474 C22.0754564 122.67481136 9.35951242 122.63155192 -3.35644531 122.59106445 C-15.71094628 122.5517184 -28.06543739 122.51029432 -40.41992188 122.46606445 C-41.1810803 122.46334018 -41.94223873 122.46061591 -42.72646256 122.45780908 C-46.54485958 122.44412975 -50.36325646 122.43040945 -54.18165326 122.41666877 C-85.87368605 122.30267657 -117.56573941 122.1959469 -149.2578125 122.09375 C-149.31165098 119.63512599 -149.35140288 117.1776745 -149.3828125 114.71875 C-149.39957031 114.02007812 -149.41632813 113.32140625 -149.43359375 112.6015625 C-149.45125517 110.76477514 -149.36084511 108.92773037 -149.2578125 107.09375 C-147.2578125 105.09375 -147.2578125 105.09375 -145.122015 104.84765434 C-143.78633697 104.85041972 -143.78633697 104.85041972 -142.42367554 104.85324097 C-141.40281357 104.85049164 -140.3819516 104.84774231 -139.33015442 104.84490967 C-138.20590561 104.85210022 -137.0816568 104.85929077 -135.92333984 104.86669922 C-134.15262871 104.86626114 -134.15262871 104.86626114 -132.34614563 104.86581421 C-129.10456331 104.86697083 -125.86315248 104.87701823 -122.62160444 104.89096212 C-119.23566905 104.90344386 -115.84973048 104.90463796 -112.46377563 104.90701294 C-106.04997791 104.91323525 -99.63624817 104.92965618 -93.22248042 104.94971192 C-85.92149425 104.9720476 -78.62050487 104.98305847 -71.31949306 104.99310279 C-56.29889496 105.01402179 -41.27836052 105.0492123 -26.2578125 105.09375 C-26.26891556 103.95893188 -26.28001862 102.82411377 -26.29145813 101.65490723 C-26.39295288 90.94413493 -26.467835 80.23346061 -26.51687336 69.52231598 C-26.54293244 64.01597502 -26.57826359 58.51002325 -26.63500977 53.00390625 C-26.68946036 47.68706961 -26.71926078 42.37060659 -26.73219872 37.05351257 C-26.74141513 35.0281537 -26.75941284 33.00281456 -26.78646278 30.97761536 C-26.82292641 28.13372104 -26.82775061 25.29135725 -26.82543945 22.44726562 C-26.84341583 21.61575989 -26.86139221 20.78425415 -26.87991333 19.92755127 C-26.82053934 13.14560658 -24.48081994 8.34948359 -19.70876026 3.52896881 C-14.13395881 -1.32692489 -6.99809352 -2.80892335 0 0 Z " fill="#FFE177" transform="translate(263.2578125,361.90625)"/>
<path d="M0 0 C14.52 0 29.04 0 44 0 C44.04509595 28.91066496 44.08195945 57.82130157 44.10362434 86.73199272 C44.1056774 89.40091835 44.10774676 92.06984395 44.10986328 94.73876953 C44.1103879 95.40216139 44.11091252 96.06555325 44.11145304 96.74904789 C44.1201642 107.50154158 44.13593807 118.25401395 44.15430559 129.00649498 C44.1729849 140.03316457 44.18396276 151.05982237 44.18817699 162.08650696 C44.19079095 168.2827076 44.19696107 174.47885984 44.21146011 180.67504501 C44.22498289 186.50093619 44.22923345 192.32675881 44.22621536 198.15266418 C44.22676791 200.2965291 44.2307768 202.44039619 44.23841095 204.58424759 C44.24828926 207.50008822 44.24599508 210.41566637 44.24050903 213.33151245 C44.24633472 214.18947729 44.2521604 215.04744213 44.25816262 215.9314059 C44.22824242 221.77175758 44.22824242 221.77175758 42 224 C40.05111694 224.24050903 40.05111694 224.24050903 37.64208984 224.22705078 C36.74130707 224.22689972 35.84052429 224.22674866 34.91244507 224.22659302 C33.93844757 224.21627045 32.96445007 224.20594788 31.9609375 224.1953125 C30.96494537 224.1924826 29.96895325 224.18965271 28.94277954 224.18673706 C25.75339882 224.1755184 22.56429622 224.15041081 19.375 224.125 C17.21614988 224.11497238 15.05729537 224.10584615 12.8984375 224.09765625 C7.59886301 224.07557361 2.29945137 224.04207958 -3 224 C-2.34 223.01 -1.68 222.02 -1 221 C-0.67370844 218.84120666 -0.67370844 218.84120666 -0.68115234 216.43676758 C-0.66128265 215.51603958 -0.64141296 214.59531158 -0.62094116 213.64668274 C-0.60938995 212.65597275 -0.59783875 211.66526276 -0.5859375 210.64453125 C-0.56657135 209.62775803 -0.5472052 208.6109848 -0.5272522 207.56340027 C-0.46743259 204.31318573 -0.42106124 201.06293583 -0.375 197.8125 C-0.33682244 195.61001052 -0.29777084 193.40753601 -0.2578125 191.20507812 C-0.16172917 185.80351817 -0.07668862 180.40186823 0 175 C0.62648438 174.95101562 1.25296875 174.90203125 1.8984375 174.8515625 C3.12433594 174.73941406 3.12433594 174.73941406 4.375 174.625 C5.18710937 174.55539062 5.99921875 174.48578125 6.8359375 174.4140625 C9.20334191 174.17107412 9.20334191 174.17107412 11 172 C11.29881863 169.60803376 11.29881863 169.60803376 11.24050903 166.78622437 C11.24325836 165.68122086 11.24600769 164.57621735 11.24884033 163.43772888 C11.24164978 162.21997269 11.23445923 161.00221649 11.22705078 159.74755859 C11.22734283 158.4695488 11.22763489 157.191539 11.22793579 155.87480164 C11.22851098 152.36464556 11.2167299 148.85462543 11.20278788 145.34450102 C11.19030814 141.67829288 11.1891122 138.01208182 11.18673706 134.34585571 C11.18051416 127.40082099 11.16409243 120.45584902 11.14403808 113.51084197 C11.12170423 105.60527163 11.11069199 97.69969835 11.10064721 89.79410434 C11.07972687 73.52936508 11.04413363 57.26469302 11 41 C7.37 40.67 3.74 40.34 0 40 C0 26.8 0 13.6 0 0 Z " fill="#FEC344" transform="translate(445,288)"/>
<path d="M0 0 C32.43442361 -0.04518464 64.86883513 -0.08100402 97.30328294 -0.10213066 C101.12984167 -0.10463216 104.95640034 -0.1072208 108.78295898 -0.10986328 C109.54477882 -0.1103879 110.30659866 -0.11091252 111.09150394 -0.11145304 C123.43731938 -0.12016282 135.78311624 -0.13593593 148.12892065 -0.15430559 C160.79072293 -0.17298873 173.45251545 -0.18411336 186.11433095 -0.18817699 C193.93143951 -0.19092535 201.7484956 -0.1996152 209.56558802 -0.21583293 C215.55317246 -0.22762457 221.54071147 -0.22891537 227.52830887 -0.22621536 C229.98942705 -0.22676764 232.45054713 -0.2307729 234.91165352 -0.23841095 C238.26066025 -0.24829872 241.60943878 -0.24599148 244.95845032 -0.24050903 C245.94190361 -0.24633472 246.9253569 -0.2521604 247.93861181 -0.25816262 C248.83285082 -0.25418052 249.72708984 -0.25019842 250.64842701 -0.24609566 C251.80866248 -0.24723482 251.80866248 -0.24723482 252.99233705 -0.24839699 C255 0 255 0 258 2 C258 10.58 258 19.16 258 28 C172.86 28 87.72 28 0 28 C0 18.76 0 9.52 0 0 Z " fill="#FFEFAC" transform="translate(114,484)"/>
<path d="M0 0 C14.52 0 29.04 0 44 0 C44 36.63 44 73.26 44 111 C29.48 111 14.96 111 0 111 C0 74.37 0 37.74 0 0 Z " fill="#CBC4CB" transform="translate(328,303)"/>
<path d="M0 0 C14.52 0 29.04 0 44 0 C44 36.63 44 73.26 44 111 C29.48 111 14.96 111 0 111 C0 74.37 0 37.74 0 0 Z " fill="#CBC4CB" transform="translate(140,303)"/>
<path d="M0 0 C0.73003235 0.013228 1.4600647 0.02645599 2.21221924 0.04008484 C3.79874956 0.06960994 5.38517214 0.10545555 6.97143555 0.14691162 C9.55469098 0.20871349 12.13683081 0.24040739 14.72070312 0.26416016 C19.29327105 0.30761247 23.8646121 0.3813133 28.43652344 0.46948242 C30.32314804 0.50323094 32.20988586 0.53109693 34.09667969 0.5534668 C36.8669636 0.58694383 39.63634524 0.63911807 42.40625 0.6953125 C43.24581238 0.70170242 44.08537476 0.70809235 44.95037842 0.7146759 C49.5913964 0.83160862 52.73005204 1.18637819 56.484375 4.20703125 C59.10640481 8.14007597 58.73586027 11.47328194 58.6796875 16.03125 C58.6768576 16.89265091 58.67402771 17.75405182 58.67111206 18.64155579 C58.65991737 21.39268894 58.63481421 24.1434965 58.609375 26.89453125 C58.59934427 28.75976092 58.59021859 30.6249957 58.58203125 32.49023438 C58.55998038 37.06262545 58.52545549 41.63477314 58.484375 46.20703125 C57.164375 46.20703125 55.844375 46.20703125 54.484375 46.20703125 C54.484375 61.71703125 54.484375 77.22703125 54.484375 93.20703125 C43.924375 93.20703125 33.364375 93.20703125 22.484375 93.20703125 C22.484375 77.69703125 22.484375 62.18703125 22.484375 46.20703125 C9.614375 46.20703125 -3.255625 46.20703125 -16.515625 46.20703125 C-16.5775 40.22578125 -16.639375 34.24453125 -16.703125 28.08203125 C-16.73043701 26.20499512 -16.75774902 24.32795898 -16.78588867 22.39404297 C-16.79465775 20.89160809 -16.80230069 19.38916604 -16.80859375 17.88671875 C-16.82394165 17.11851807 -16.83928955 16.35031738 -16.85510254 15.55883789 C-16.85743303 10.73471187 -16.37608709 7.28201432 -13.515625 3.20703125 C-9.00530633 0.1168228 -5.38248614 -0.13122372 0 0 Z " fill="#FFE076" transform="translate(217.515625,75.79296875)"/>
<path d="M0 0 C2.17567437 -0.02890312 4.35250761 -0.00256826 6.5272522 0.06729126 C8.31346985 0.06510086 8.31346985 0.06510086 10.13577271 0.06286621 C13.38911546 0.0686268 16.63811441 0.11862996 19.89059401 0.18860579 C23.2936701 0.2512726 26.69683879 0.25700461 30.10040283 0.26885986 C36.53964409 0.2998983 42.97718037 0.38189406 49.41567194 0.48235476 C56.74795717 0.59426896 64.08032542 0.64914511 71.41325259 0.69930911 C86.49223378 0.80373729 101.56900139 0.98706164 116.6468811 1.20254517 C116.6468811 10.11254517 116.6468811 19.02254517 116.6468811 28.20254517 C113.63240845 28.29342407 113.63240845 28.29342407 110.55703735 28.38613892 C108.61765441 28.44869966 106.67827238 28.51129373 104.73892212 28.57485962 C103.38773963 28.6182574 102.03650057 28.65992886 100.68521118 28.69985962 C98.74651409 28.75744468 96.80801834 28.82168814 94.86953735 28.88613892 C93.70172729 28.92279663 92.53391724 28.95945435 91.33071899 28.9972229 C88.72908315 28.90330704 88.72908315 28.90330704 87.6468811 30.20254517 C87.41401102 31.88438464 87.23423944 33.57378677 87.0843811 35.26504517 C86.95869751 36.64369751 86.95869751 36.64369751 86.83047485 38.05020142 C86.76988892 38.76047485 86.70930298 39.47074829 86.6468811 40.20254517 C72.60003266 40.35638117 58.55313298 40.50434855 44.5061512 40.64550877 C37.98418146 40.71122161 31.46224281 40.77883646 24.94033813 40.85073853 C18.65102924 40.92000731 12.3616878 40.98435777 6.07229233 41.0452404 C3.66800979 41.06938995 1.26374465 41.09533759 -1.14049911 41.1230793 C-4.49764026 41.16151454 -7.85478533 41.19366219 -11.21200562 41.22427368 C-12.21469482 41.2372197 -13.21738403 41.25016571 -14.25045776 41.26350403 C-15.16193573 41.27054352 -16.0734137 41.27758301 -17.01251221 41.28483582 C-17.80709776 41.29313195 -18.60168331 41.30142809 -19.42034721 41.30997562 C-21.3531189 41.20254517 -21.3531189 41.20254517 -23.3531189 40.20254517 C-23.60828826 35.68546939 -23.06766828 32.91653101 -20.9390564 28.93692017 C-20.42472046 27.96367798 -19.91038452 26.99043579 -19.38046265 25.98770142 C-18.83518921 24.98609985 -18.28991577 23.98449829 -17.7281189 22.95254517 C-16.94501343 21.47334595 -16.94501343 21.47334595 -16.14608765 19.96426392 C-14.57747011 17.02455847 -12.99378921 14.10281529 -11.3531189 11.20254517 C-11.00037399 10.39228315 -10.64762909 9.58202114 -10.28419495 8.74720573 C-7.74509906 3.53087919 -6.01116409 0.61517988 0 0 Z " fill="#CAC3CB" transform="translate(36.353118896484375,247.79745483398438)"/>
<path d="M0 0 C40.26 0 80.52 0 122 0 C126.95 8.91 126.95 8.91 132 18 C135.29837189 23.88416515 135.29837189 23.88416515 138.6015625 29.765625 C140.06307528 33.14588361 140.29760969 35.3625482 140 39 C137.65078821 40.1746059 136.31364344 40.10986275 133.69735718 40.08229065 C132.34276146 40.07173141 132.34276146 40.07173141 130.96080017 40.06095886 C129.47079247 40.04153984 129.47079247 40.04153984 127.95068359 40.02172852 C126.90675949 40.01212097 125.86283539 40.00251343 124.78727722 39.99261475 C121.32426388 39.95953839 117.86137332 39.91923896 114.3984375 39.87890625 C112.00233396 39.85461358 109.60622583 39.8307696 107.21011353 39.80735779 C100.89386786 39.74443203 94.57770311 39.67538948 88.26153564 39.60510254 C81.82022801 39.53449568 75.37886287 39.46963299 68.9375 39.40429688 C56.29160377 39.27517512 43.64578256 39.13979069 31 39 C30.80083984 37.93458984 30.80083984 37.93458984 30.59765625 36.84765625 C30.33275391 35.46900391 30.33275391 35.46900391 30.0625 34.0625 C29.88847656 33.14597656 29.71445312 32.22945313 29.53515625 31.28515625 C29.22285012 29.04710156 29.22285012 29.04710156 28 28 C25.9291528 27.8415735 23.85321971 27.74875578 21.77734375 27.68359375 C19.88725586 27.62075195 19.88725586 27.62075195 17.95898438 27.55664062 C16.61849264 27.51682404 15.2779978 27.47711186 13.9375 27.4375 C12.59308477 27.39431958 11.2486834 27.35070544 9.90429688 27.30664062 C6.60299987 27.20014717 3.30151421 27.0995325 0 27 C0 18.09 0 9.18 0 0 Z " fill="#B5ADB6" transform="translate(359,249)"/>
<path d="M0 0 C1.24007813 -0.00386719 2.48015625 -0.00773437 3.7578125 -0.01171875 C5.70300781 0.00568359 5.70300781 0.00568359 7.6875 0.0234375 C8.98429687 0.01183594 10.28109375 0.00023437 11.6171875 -0.01171875 C12.85726563 -0.00785156 14.09734375 -0.00398438 15.375 0 C16.51324219 0.00338379 17.65148437 0.00676758 18.82421875 0.01025391 C21.6875 0.3984375 21.6875 0.3984375 23.34264565 1.59532928 C25.16234007 4.03507746 25.06482322 5.6066421 25.06845093 8.63635254 C25.08114014 10.26417412 25.08114014 10.26417412 25.09408569 11.92488098 C25.088013 13.11562729 25.08194031 14.3063736 25.07568359 15.53320312 C25.08094055 16.78703293 25.08619751 18.04086273 25.09161377 19.33268738 C25.10256739 22.77287417 25.09998303 26.21252083 25.09047651 29.65267754 C25.08288745 33.25075895 25.08992342 36.8488171 25.09463501 40.44689941 C25.10009478 46.48954417 25.09289522 52.53207897 25.07861328 58.57470703 C25.06228626 65.56336164 25.06757461 72.55175369 25.0840925 79.54040194 C25.09770113 85.53793477 25.0996301 91.53538852 25.09177649 97.5329318 C25.08709651 101.11622135 25.08648393 104.69938743 25.09638596 108.28266907 C25.10665118 112.2764407 25.09242829 116.26991764 25.07568359 120.26367188 C25.08479263 122.04979134 25.08479263 122.04979134 25.09408569 123.87199402 C25.08562622 124.9572084 25.07716675 126.04242279 25.06845093 127.16052246 C25.06731985 128.10515099 25.06618877 129.04977951 25.06502342 130.02303314 C24.61712663 132.8412318 23.97470148 133.73635688 21.6875 135.3984375 C17.23857727 136.05077799 12.74128865 135.86152226 8.25 135.8359375 C7.00927734 135.85591797 5.76855469 135.87589844 4.49023438 135.89648438 C2.70262695 135.89551758 2.70262695 135.89551758 0.87890625 135.89453125 C-0.21220459 135.89638428 -1.30331543 135.8982373 -2.42749023 135.90014648 C-6.04840181 135.2704627 -7.03189319 134.23366034 -9.3125 131.3984375 C-9.81307125 128.91560268 -9.81307125 128.91560268 -9.81370544 126.07823181 C-9.82353958 125.00005692 -9.83337372 123.92188202 -9.84350586 122.81103516 C-9.83383789 121.63323486 -9.82416992 120.45543457 -9.81420898 119.24194336 C-9.81961197 117.9977211 -9.82501495 116.75349884 -9.83058167 115.47157288 C-9.84094667 112.06227432 -9.83336675 108.65394605 -9.81687045 105.24473262 C-9.80301787 101.677357 -9.80948014 98.11001061 -9.81300354 94.5426178 C-9.81570516 88.55298735 -9.80223317 82.56355736 -9.77905273 76.57397461 C-9.752431 69.64720441 -9.75069983 62.72076912 -9.7624411 55.79396528 C-9.77321562 49.13147056 -9.76703522 42.4690971 -9.75288582 35.80661201 C-9.74712435 32.97052714 -9.74720989 30.13453094 -9.75195122 27.29844475 C-9.75760422 23.34067965 -9.73841466 19.38325053 -9.71655273 15.42553711 C-9.72105438 14.24571259 -9.72555603 13.06588806 -9.73019409 11.85031128 C-9.72028946 10.77495621 -9.71038483 9.69960114 -9.70018005 8.59165955 C-9.69775016 7.65570418 -9.69532026 6.71974882 -9.69281673 5.75543118 C-8.77890999 0.09154046 -5.05382363 0.01502411 0 0 Z " fill="#F3F0F2" transform="translate(432.3125,327.6015625)"/>
<path d="M0 0 C1.24007812 -0.00386719 2.48015625 -0.00773437 3.7578125 -0.01171875 C5.70300781 0.00568359 5.70300781 0.00568359 7.6875 0.0234375 C8.98429687 0.01183594 10.28109375 0.00023437 11.6171875 -0.01171875 C12.85726562 -0.00785156 14.09734375 -0.00398438 15.375 0 C16.51324219 0.00338379 17.65148437 0.00676758 18.82421875 0.01025391 C21.6875 0.3984375 21.6875 0.3984375 23.34222507 1.5981226 C25.15542287 4.02463554 25.06735173 5.57631835 25.07518005 8.59165955 C25.08508469 9.66701462 25.09498932 10.74236969 25.10519409 11.85031128 C25.09844162 13.62004807 25.09844162 13.62004807 25.09155273 15.42553711 C25.09841599 16.66800705 25.10527924 17.91047699 25.11235046 19.19059753 C25.12753354 22.59985477 25.12910762 26.00856609 25.12340808 29.41781688 C25.12032064 32.26331013 25.12640375 35.10875371 25.13244683 37.9542399 C25.14650117 44.66704495 25.14492345 51.37972275 25.13354492 58.0925293 C25.12206412 65.01873636 25.13613631 71.9445562 25.1629414 78.87071222 C25.18509099 84.81646133 25.19173744 90.76208882 25.18586498 96.70787627 C25.1824922 100.25939011 25.18493132 103.81065576 25.20211601 107.36213493 C25.22044094 111.32222576 25.20640557 115.28183965 25.18920898 119.24194336 C25.20371094 121.0086438 25.20371094 121.0086438 25.21850586 122.81103516 C25.20867172 123.88921005 25.19883759 124.96738495 25.18870544 126.07823181 C25.18849616 127.0145642 25.18828688 127.95089659 25.18807125 128.91560268 C24.53235926 132.167936 23.25834634 133.36491425 20.6875 135.3984375 C17.80249023 135.91601562 17.80249023 135.91601562 14.49609375 135.9296875 C13.30435547 135.93484375 12.11261719 135.94 10.88476562 135.9453125 C9.64404297 135.92984375 8.40332031 135.914375 7.125 135.8984375 C5.25811523 135.92164063 5.25811523 135.92164063 3.35351562 135.9453125 C1.5678418 135.93757813 1.5678418 135.93757813 -0.25390625 135.9296875 C-1.88888062 135.92291992 -1.88888062 135.92291992 -3.55688477 135.91601562 C-6.3125 135.3984375 -6.3125 135.3984375 -7.96091652 133.69860172 C-9.5871015 130.93111266 -9.68958951 129.27480307 -9.69345093 126.07823181 C-9.7019104 125.00005692 -9.71036987 123.92188202 -9.71908569 122.81103516 C-9.713013 121.63323486 -9.70694031 120.45543457 -9.70068359 119.24194336 C-9.70594055 117.9977211 -9.71119751 116.75349884 -9.71661377 115.47157288 C-9.72755555 112.06243387 -9.72499097 108.65384102 -9.71547651 105.24473262 C-9.70787963 101.67735356 -9.71492544 98.10999778 -9.71963501 94.5426178 C-9.72509178 88.55302745 -9.71790232 82.5635481 -9.70361328 76.57397461 C-9.68727938 69.64721443 -9.6925808 62.72071906 -9.7090925 55.79396528 C-9.72270077 49.84736708 -9.72463051 43.90084864 -9.71677649 37.9542399 C-9.71209727 34.40226401 -9.71148201 30.85041266 -9.72138596 27.29844475 C-9.73165075 23.34070388 -9.71742894 19.38326041 -9.70068359 15.42553711 C-9.70675629 14.24571259 -9.71282898 13.06588806 -9.71908569 11.85031128 C-9.71062622 10.77495621 -9.70216675 9.69960114 -9.69345093 8.59165955 C-9.69231985 7.65570418 -9.69118877 6.71974882 -9.69002342 5.75543118 C-8.78263754 0.09034481 -5.05145787 0.01501707 0 0 Z " fill="#F3F0F1" transform="translate(64.3125,327.6015625)"/>
<path d="M0 0 C1.08308441 -0.00021904 1.08308441 -0.00021904 2.18804932 -0.0004425 C4.57966087 0.00025532 6.97119498 0.00804164 9.36279297 0.01586914 C11.01903236 0.01773378 12.67527231 0.01915747 14.33151245 0.02015686 C18.69465655 0.0239784 23.05776747 0.03380561 27.42089844 0.04486084 C32.65383722 0.05687937 37.88678709 0.06147893 43.11973572 0.06731415 C51.07317373 0.07701754 59.02653889 0.09617663 66.97998047 0.11352539 C66.97998047 18.59352539 66.97998047 37.07352539 66.97998047 56.11352539 C40.57998047 56.11352539 14.17998047 56.11352539 -13.02001953 56.11352539 C-13.10251953 47.96665039 -13.18501953 39.81977539 -13.27001953 31.42602539 C-13.32464355 27.57877808 -13.32464355 27.57877808 -13.38037109 23.65380859 C-13.39205606 21.61564979 -13.40224834 19.57748165 -13.41064453 17.53930664 C-13.4311084 16.48529663 -13.45157227 15.43128662 -13.47265625 14.34533691 C-13.47621783 6.87047447 -13.47621783 6.87047447 -11.12060547 2.96191406 C-7.3981358 -0.31363427 -4.90559505 -0.00831457 0 0 Z " fill="#FED15B" transform="translate(166.02001953125,219.886474609375)"/>
<path d="M0 0 C1.15667427 -0.00087616 1.15667427 -0.00087616 2.3367157 -0.00177002 C4.88021184 0.00101209 7.42252945 0.03210865 9.96582031 0.06347656 C11.73129638 0.07093854 13.49678075 0.07663167 15.26226807 0.08062744 C19.90507952 0.09588728 24.54738906 0.13517197 29.19000244 0.17944336 C34.76246264 0.22758968 40.33509084 0.24592843 45.90769958 0.26925659 C54.37013039 0.30802296 62.83146028 0.3846737 71.29394531 0.45410156 C71.29394531 18.27410156 71.29394531 36.09410156 71.29394531 54.45410156 C43.90394531 54.45410156 16.51394531 54.45410156 -11.70605469 54.45410156 C-11.78855469 46.28660156 -11.87105469 38.11910156 -11.95605469 29.70410156 C-11.9924707 27.13016602 -12.02888672 24.55623047 -12.06640625 21.90429688 C-12.07808894 19.86361526 -12.08828175 17.82292434 -12.09667969 15.78222656 C-12.11714355 14.72310059 -12.13760742 13.66397461 -12.15869141 12.57275391 C-12.1591748 11.55810059 -12.1596582 10.54344727 -12.16015625 9.49804688 C-12.1690387 8.61868469 -12.17792114 7.73932251 -12.18707275 6.83331299 C-10.83909562 0.16594889 -5.85954896 -0.116338 0 0 Z " fill="#FEF8DE" transform="translate(140.7060546875,412.5458984375)"/>
<path d="M0 0 C19.55527282 -0.16043524 19.55527282 -0.16043524 27.88671875 -0.1953125 C33.57323115 -0.2192302 39.25948609 -0.24753381 44.94580078 -0.30175781 C49.52993339 -0.3451983 54.11378994 -0.36913343 58.69811249 -0.37950897 C60.44765316 -0.38690359 62.19717862 -0.40134355 63.94660187 -0.42292023 C66.39604925 -0.45193101 68.84435395 -0.45595708 71.29394531 -0.45410156 C72.01827255 -0.46848267 72.74259979 -0.48286377 73.48887634 -0.49768066 C76.80304837 -0.47049022 78.70851597 -0.20354714 81.45324707 1.71313477 C83.28211107 4.41709958 83.48684302 5.80254133 83.45410156 9.04394531 C83.45361816 10.05859863 83.45313477 11.07325195 83.45263672 12.11865234 C83.42194092 13.70734131 83.42194092 13.70734131 83.390625 15.328125 C83.38659668 16.30700684 83.38256836 17.28588867 83.37841797 18.29443359 C83.35751038 21.94648009 83.3016648 25.59825912 83.25 29.25 C83.1675 37.4175 83.085 45.585 83 54 C55.61 54 28.22 54 0 54 C0 36.18 0 18.36 0 0 Z " fill="#FFEFAC" transform="translate(300,413)"/>
<path d="M0 0 C5.30617762 3.14739053 9.75146083 7.12156998 11.7421875 13.09375 C11.83383406 16.03047508 11.86814148 18.94304445 11.85571289 21.87963867 C11.85585892 22.77740524 11.85600494 23.67517181 11.8561554 24.60014343 C11.85545814 27.57069303 11.84767447 30.54118009 11.83984375 33.51171875 C11.83797891 35.57009344 11.83655532 37.62846858 11.83555603 39.68684387 C11.83173609 45.10705794 11.82191023 50.52724524 11.81085205 55.94744873 C11.80062671 61.47733193 11.796056 67.00721945 11.79101562 72.53710938 C11.78028752 83.38933657 11.76269492 94.24153687 11.7421875 105.09375 C-0.7978125 105.09375 -13.3378125 105.09375 -26.2578125 105.09375 C-26.37091316 93.23662464 -26.46258649 81.37985936 -26.51687336 69.52231598 C-26.54293244 64.01597502 -26.57826359 58.51002325 -26.63500977 53.00390625 C-26.68946036 47.68706961 -26.71926078 42.37060659 -26.73219872 37.05351257 C-26.74141513 35.0281537 -26.75941284 33.00281456 -26.78646278 30.97761536 C-26.82292641 28.13372104 -26.82775061 25.29135725 -26.82543945 22.44726562 C-26.84341583 21.61575989 -26.86139221 20.78425415 -26.87991333 19.92755127 C-26.82053934 13.14560658 -24.48081994 8.34948359 -19.70876026 3.52896881 C-14.13395881 -1.32692489 -6.99809352 -2.80892335 0 0 Z " fill="#7A6D79" transform="translate(263.2578125,361.90625)"/>
<path d="M0 0 C15.18 0 30.36 0 46 0 C46 18.48 46 36.96 46 56 C30.82 56 15.64 56 0 56 C0 37.52 0 19.04 0 0 Z " fill="#CBC4CA" transform="translate(233,220)"/>
<path d="M0 0 C0.98086578 0.00007553 1.96173157 0.00015106 2.97232056 0.00022888 C4.03381317 0.00539017 5.09530579 0.01055145 6.18896484 0.01586914 C7.27374115 0.01728409 8.35851746 0.01869904 9.47616577 0.02015686 C12.95077234 0.02576737 16.42531515 0.03832167 19.89990234 0.05102539 C22.25146392 0.05603904 24.60302649 0.06060218 26.95458984 0.06469727 C32.72807184 0.07489056 38.50141548 0.09446399 44.27490234 0.11352539 C44.27490234 15.62352539 44.27490234 31.13352539 44.27490234 47.11352539 C26.12490234 47.11352539 7.97490234 47.11352539 -10.72509766 47.11352539 C-10.80759766 40.63727539 -10.89009766 34.16102539 -10.97509766 27.48852539 C-11.01151367 25.45486816 -11.04792969 23.42121094 -11.08544922 21.32592773 C-11.09713989 19.70045017 -11.10733082 18.07496083 -11.11572266 16.44946289 C-11.13618652 15.61648682 -11.15665039 14.78351074 -11.17773438 13.92529297 C-11.18105015 8.35977233 -10.35121324 5.39288123 -6.72509766 1.11352539 C-4.28542269 -0.10631209 -2.72605241 -0.00698988 0 0 Z " fill="#FFD15B" transform="translate(195.72509765625,121.886474609375)"/>
<path d="M0 0 C7.26 0 14.52 0 22 0 C22 36.3 22 72.6 22 110 C14.74 110 7.48 110 0 110 C0 73.7 0 37.4 0 0 Z " fill="#B5ADB6" transform="translate(350,303)"/>
<path d="M0 0 C6.93 0 13.86 0 21 0 C21 36.3 21 72.6 21 110 C14.07 110 7.14 110 0 110 C0 73.7 0 37.4 0 0 Z " fill="#B5ADB5" transform="translate(163,303)"/>
<path d="M0 0 C1.1653125 0.00515625 2.330625 0.0103125 3.53125 0.015625 C4.6965625 0.01046875 5.861875 0.0053125 7.0625 0 C10.03125 0.265625 10.03125 0.265625 12.03125 2.265625 C12.28293228 4.50236416 12.28293228 4.50236416 12.28521729 7.34532166 C12.29085693 8.42074722 12.29649658 9.49617279 12.30230713 10.60418701 C12.29825867 11.78917786 12.29421021 12.9741687 12.29003906 14.19506836 C12.2935437 15.43899857 12.29704834 16.68292877 12.30065918 17.96455383 C12.30796893 21.38196807 12.30623347 24.79914112 12.29990101 28.21654201 C12.29484656 31.78926725 12.29953101 35.361982 12.30267334 38.93470764 C12.30631508 44.93622697 12.30150895 50.93769712 12.29199219 56.93920898 C12.28111217 63.88064612 12.28462905 70.82196574 12.295645 77.76340002 C12.30471787 83.71843756 12.30600301 89.6734397 12.30076766 95.62848192 C12.29764732 99.18716995 12.29724026 102.74580273 12.30384064 106.30448723 C12.31068472 110.27196706 12.30120126 114.23931506 12.29003906 118.20678711 C12.29408752 119.38975372 12.29813599 120.57272034 12.30230713 121.79153442 C12.29666748 122.86977982 12.29102783 123.94802521 12.28521729 125.0589447 C12.28446323 125.9974977 12.28370918 126.9360507 12.28293228 127.9030447 C12.03125 130.265625 12.03125 130.265625 10.03125 133.265625 C7.0625 133.6640625 7.0625 133.6640625 3.53125 133.640625 C2.3659375 133.64835938 1.200625 133.65609375 0 133.6640625 C-0.9796875 133.53257812 -1.959375 133.40109375 -2.96875 133.265625 C-5.18319727 129.9439541 -5.21961056 128.92582012 -5.22271729 125.0589447 C-5.22835693 123.98069931 -5.23399658 122.90245392 -5.23980713 121.79153442 C-5.23575867 120.60856781 -5.23171021 119.4256012 -5.22753906 118.20678711 C-5.2310437 116.96110458 -5.23454834 115.71542206 -5.23815918 114.43199158 C-5.24546085 111.01470349 -5.24373911 107.59765711 -5.23740101 104.18038249 C-5.23234233 100.60719521 -5.23703199 97.03401836 -5.24017334 93.46083069 C-5.2438129 87.46109153 -5.23901367 81.46140161 -5.22949219 75.46166992 C-5.21860268 68.51962402 -5.22213682 61.57769555 -5.233145 54.63565248 C-5.24221227 48.67976116 -5.24350606 42.72390524 -5.23826766 36.76800925 C-5.2351455 33.20880906 -5.23474542 29.64966412 -5.24134064 26.09046745 C-5.24817486 22.12528773 -5.23871051 18.16024028 -5.22753906 14.19506836 C-5.23158752 13.01007751 -5.23563599 11.82508667 -5.23980713 10.60418701 C-5.23416748 9.52876144 -5.22852783 8.45333588 -5.22271729 7.34532166 C-5.22158621 5.93805769 -5.22158621 5.93805769 -5.22043228 4.50236416 C-4.80853823 0.84179839 -3.54575224 0.31725152 0 0 Z " fill="#FEFDFB" transform="translate(427.96875,328.734375)"/>
<path d="M0 0 C1.17433594 0.01417969 2.34867188 0.02835937 3.55859375 0.04296875 C5.32396484 0.05263672 5.32396484 0.05263672 7.125 0.0625 C9.99609375 0.23046875 9.99609375 0.23046875 10.99609375 1.23046875 C11.09661201 2.90875181 11.12685663 4.59127978 11.12980652 6.27256775 C11.1340715 7.36489212 11.13833649 8.45721649 11.14273071 9.5826416 C11.14227753 10.79150024 11.14182434 12.00035889 11.14135742 13.24584961 C11.14471603 14.51074722 11.14807465 15.77564484 11.15153503 17.07887268 C11.16039532 20.55818044 11.162714 24.03746362 11.16335082 27.51678157 C11.16429827 30.41702396 11.16797467 33.31726057 11.17152292 36.21750075 C11.17967521 43.05768249 11.18210645 49.89785107 11.18139648 56.73803711 C11.1807955 63.80386518 11.19134964 70.86961695 11.20714015 77.9354257 C11.22019755 83.99318011 11.22558114 90.05090954 11.22494107 96.10867792 C11.22468555 99.73051383 11.22756641 103.35228198 11.23811913 106.97410393 C11.24956036 111.01135382 11.24506437 115.04843182 11.23901367 119.08569336 C11.24463318 120.29252777 11.25025269 121.49936218 11.25604248 122.74276733 C11.25184799 123.83791153 11.2476535 124.93305573 11.24333191 126.06138611 C11.24387668 127.01690841 11.24442144 127.97243071 11.24498272 128.95690823 C10.99609375 131.23046875 10.99609375 131.23046875 8.99609375 133.23046875 C6.24609375 133.53125 6.24609375 133.53125 2.99609375 133.54296875 C1.92359375 133.55972656 0.85109375 133.57648438 -0.25390625 133.59375 C-1.16140625 133.47386719 -2.06890625 133.35398437 -3.00390625 133.23046875 C-5.21835352 129.90879785 -5.25476681 128.89066387 -5.25787354 125.02378845 C-5.26351318 123.94554306 -5.26915283 122.86729767 -5.27496338 121.75637817 C-5.27091492 120.57341156 -5.26686646 119.39044495 -5.26269531 118.17163086 C-5.26619995 116.92594833 -5.26970459 115.68026581 -5.27331543 114.39683533 C-5.2806171 110.97954724 -5.27889536 107.56250086 -5.27255726 104.14522624 C-5.26749858 100.57203896 -5.27218824 96.99886211 -5.27532959 93.42567444 C-5.27896915 87.42593528 -5.27416992 81.42624536 -5.26464844 75.42651367 C-5.25375893 68.48446777 -5.25729307 61.5425393 -5.26830125 54.60049623 C-5.27736852 48.64460491 -5.27866231 42.68874899 -5.27342391 36.732853 C-5.27030175 33.17365281 -5.26990167 29.61450787 -5.27649689 26.0553112 C-5.28333111 22.09013148 -5.27386676 18.12508403 -5.26269531 14.15991211 C-5.26674377 12.97492126 -5.27079224 11.78993042 -5.27496338 10.56903076 C-5.26932373 9.49360519 -5.26368408 8.41817963 -5.25787354 7.31016541 C-5.25674246 5.90290144 -5.25674246 5.90290144 -5.25558853 4.46720791 C-4.84068699 0.77991406 -3.57303448 0.27413398 0 0 Z " fill="#FEFEFE" transform="translate(60.00390625,328.76953125)"/>
<path d="M0 0 C0.33 0 0.66 0 1 0 C1 5.94 1 11.88 1 18 C2.58981689 17.98952637 4.17963379 17.97905273 5.81762695 17.96826172 C11.70481116 17.93211618 17.59198552 17.90911932 23.47924805 17.89013672 C26.02939502 17.88006672 28.57953042 17.86640996 31.12963867 17.84912109 C34.7908819 17.82491688 38.45197274 17.81352695 42.11328125 17.8046875 C43.82902092 17.78920364 43.82902092 17.78920364 45.579422 17.77340698 C46.64029526 17.77325592 47.70116852 17.77310486 48.79418945 17.77294922 C49.72906693 17.768508 50.6639444 17.76406677 51.62715149 17.75949097 C54 18 54 18 57 20 C57.26676188 22.62248915 57.34852367 25.01254486 57.29296875 27.6328125 C57.28994751 28.29917725 57.28692627 28.96554199 57.28381348 29.65209961 C57.26810776 32.14322378 57.22622356 34.63412731 57.1875 37.125 C57.125625 42.69375 57.06375 48.2625 57 54 C38.19 54 19.38 54 0 54 C0 36.18 0 18.36 0 0 Z " fill="#FEF8DD" transform="translate(300,413)"/>
<path d="M0 0 C29.04 0 58.08 0 88 0 C97 17 97 17 96 21 C94.11114805 22.88885195 91.35948241 22.12010635 88.84675598 22.12442017 C87.9620311 22.12082489 87.07730621 22.11722961 86.16577148 22.11352539 C85.23903625 22.11367142 84.31230103 22.11381744 83.35748291 22.1139679 C80.27866313 22.11326838 77.19990303 22.10547421 74.12109375 22.09765625 C71.99259982 22.09579221 69.86410547 22.09436824 67.73561096 22.09336853 C62.1213768 22.08954228 56.50716832 22.07971108 50.89294434 22.06866455 C45.16886747 22.05845273 39.44478647 22.0538714 33.72070312 22.04882812 C22.48045562 22.0380889 11.24023396 22.02049124 0 22 C0 14.74 0 7.48 0 0 Z " fill="#CAC3CB" transform="translate(359,249)"/>
<path d="M0 0 C44.22 0 88.44 0 134 0 C134 1.65 134 3.3 134 5 C133.15703369 5.02505615 132.31406738 5.0501123 131.44555664 5.07592773 C128.32758326 5.17088155 125.20978497 5.27012448 122.09204102 5.37231445 C120.74085853 5.41571223 119.38961947 5.4573837 118.03833008 5.49731445 C116.09963299 5.55489952 114.16113724 5.61914298 112.22265625 5.68359375 C111.05484619 5.72025146 109.88703613 5.75690918 108.68383789 5.79467773 C106.08220205 5.70076188 106.08220205 5.70076188 105 7 C104.76712992 8.68183948 104.58735834 10.3712416 104.4375 12.0625 C104.31181641 13.44115234 104.31181641 13.44115234 104.18359375 14.84765625 C104.12300781 15.55792969 104.06242187 16.26820313 104 17 C89.95315155 17.153836 75.90625188 17.30180339 61.8592701 17.4429636 C55.33730036 17.50867644 48.81536171 17.57629129 42.29345703 17.64819336 C36.00414814 17.71746214 29.7148067 17.78181261 23.42541122 17.84269524 C21.02112869 17.86684479 18.61686355 17.89279242 16.21261978 17.92053413 C12.85547864 17.95896938 9.49833356 17.99111703 6.14111328 18.02172852 C5.13842407 18.03467453 4.13573486 18.04762054 3.10266113 18.06095886 C1.73544418 18.0715181 1.73544418 18.0715181 0.34060669 18.08229065 C-0.45397886 18.09058679 -1.24856441 18.09888292 -2.06722832 18.10743046 C-4 18 -4 18 -6 17 C-6 11 -6 11 0 0 Z " fill="#B5ADB6" transform="translate(19,271)"/>
<path d="M0 0 C5.03534236 -0.0990984 10.07011342 -0.1715758 15.10620117 -0.21972656 C16.81821586 -0.23980505 18.53016228 -0.26707392 20.24194336 -0.30175781 C22.70704008 -0.35044401 25.1712279 -0.37300573 27.63671875 -0.390625 C28.39836838 -0.41127014 29.16001801 -0.43191528 29.94474792 -0.45318604 C33.68491609 -0.45475467 35.78097498 -0.14053729 38.96020508 1.89941406 C41.92957666 4.95728038 42.12416093 6.57723879 42.11352539 10.72509766 C42.11344986 11.70596344 42.11337433 12.68682922 42.11329651 13.69741821 C42.10813522 14.75891083 42.10297394 15.82040344 42.09765625 16.9140625 C42.0962413 17.99883881 42.09482635 19.08361511 42.09336853 20.20126343 C42.08775802 23.67587 42.07520372 27.15041281 42.0625 30.625 C42.05748635 32.97656157 42.05292321 35.32812415 42.04882812 37.6796875 C42.03863483 43.4531695 42.0190614 49.22651313 42 55 C30.78 55 19.56 55 8 55 C7.94392578 49.99779297 7.94392578 49.99779297 7.88671875 44.89453125 C7.84049363 41.6609851 7.78926345 38.42755426 7.73754883 35.1940918 C7.70431649 32.9487205 7.67627931 30.703266 7.65356445 28.45776367 C7.61998798 25.22799257 7.56766927 21.99898273 7.51171875 18.76953125 C7.50532883 17.76727005 7.4989389 16.76500885 7.49235535 15.7323761 C7.38547027 8.85213309 7.38547027 8.85213309 4 3 C1.93045153 1.21655822 1.93045153 1.21655822 0 0 Z " fill="#FFC344" transform="translate(317,220)"/>
<path d="M0 0 C6.41747234 -0.59177511 10.91248257 -0.29768448 16.2421875 3.5 C19.78740868 6.52525541 22.50095251 9.50285752 24 14 C24.09159687 16.90621604 24.12596172 19.7880145 24.11352539 22.6940918 C24.11367142 23.5821048 24.11381744 24.4701178 24.1139679 25.38504028 C24.11327068 28.32312454 24.10548718 31.26114556 24.09765625 34.19921875 C24.09579139 36.23517319 24.09436781 38.27112808 24.09336853 40.30708313 C24.08954869 45.66811357 24.07972292 51.02911697 24.06866455 56.39013672 C24.05843899 61.8596968 24.05386845 67.32926124 24.04882812 72.79882812 C24.0381002 83.53256589 24.02050769 94.26627646 24 105 C18.39 105 12.78 105 7 105 C6.98598145 100.91999634 6.98598145 100.91999634 6.97167969 96.75756836 C6.93788076 87.76087672 6.88231546 78.76441375 6.81609726 69.76790524 C6.77662356 64.31441499 6.74443443 58.86108619 6.72900391 53.4074707 C6.71383681 48.14233438 6.67938983 42.87764191 6.63169098 37.61270332 C6.61687782 35.60615463 6.60895902 33.59954257 6.60811615 31.59293938 C6.60574458 28.77754522 6.57864944 25.96337578 6.54589844 23.14819336 C6.5509288 22.32244308 6.55595917 21.49669281 6.56114197 20.6459198 C6.45953607 14.98379066 5.21036843 11.68424938 2 7 C1.401875 6.443125 0.80375 5.88625 0.1875 5.3125 C-0.204375 4.879375 -0.59625 4.44625 -1 4 C-0.57421875 1.91796875 -0.57421875 1.91796875 0 0 Z " fill="#685E68" transform="translate(251,361)"/>
<path d="M0 0 C5.03530963 -0.1238722 10.06972697 -0.21446514 15.10620117 -0.2746582 C16.81827245 -0.29975714 18.53023704 -0.33384429 20.24194336 -0.37719727 C22.70713645 -0.43805739 25.17090985 -0.46625432 27.63671875 -0.48828125 C28.77919319 -0.52699089 28.77919319 -0.52699089 29.94474792 -0.56648254 C34.0095468 -0.56861352 35.76334971 -0.19230642 38.96020508 2.40551758 C42.43449843 6.82458586 42.13096961 10.2870277 42.09765625 15.7265625 C42.0962413 16.58937836 42.09482635 17.45219421 42.09336853 18.34115601 C42.08776188 21.1024723 42.07520827 23.86370812 42.0625 26.625 C42.05748586 28.4947905 42.0529228 30.36458226 42.04882812 32.234375 C42.0386403 36.82297277 42.01906622 41.41139608 42 46 C30.45 46 18.9 46 7 46 C6.96132813 41.73835938 6.96132813 41.73835938 6.921875 37.390625 C6.88345479 34.63694376 6.83829453 31.88344978 6.79248047 29.12988281 C6.76426714 27.21721344 6.74305439 25.3044274 6.72900391 23.39160156 C6.70757919 20.64066827 6.6609326 17.89113825 6.609375 15.140625 C6.60814636 14.28631897 6.60691772 13.43201294 6.60565186 12.55181885 C6.51830125 7.67594871 6.51830125 7.67594871 4.08691406 3.55371094 C3.39823242 3.04098633 2.70955078 2.52826172 2 2 C1.34 1.34 0.68 0.68 0 0 Z " fill="#FFC344" transform="translate(285,122)"/>
<path d="M0 0 C10.56 0 21.12 0 32 0 C32 15.51 32 31.02 32 47 C21.44 47 10.88 47 0 47 C0 31.49 0 15.98 0 0 Z " fill="#CCC3C4" transform="translate(240,122)"/>
<path d="M0 0 C1.14204391 -0.00087616 1.14204391 -0.00087616 2.30715942 -0.00177002 C4.81819604 0.00101184 7.32803853 0.03210704 9.83886719 0.06347656 C11.58192293 0.07093863 13.32498707 0.07663172 15.0680542 0.08062744 C19.65168495 0.09588656 24.23480721 0.13517057 28.8182373 0.17944336 C33.49691896 0.22039019 38.17568293 0.23863719 42.85449219 0.25878906 C52.03183466 0.30166487 61.20866655 0.37201681 70.38574219 0.45410156 C70.38574219 6.39410156 70.38574219 12.33410156 70.38574219 18.45410156 C43.65574219 18.45410156 16.92574219 18.45410156 -10.61425781 18.45410156 C-10.61425781 30.33410156 -10.61425781 42.21410156 -10.61425781 54.45410156 C-10.94425781 54.45410156 -11.27425781 54.45410156 -11.61425781 54.45410156 C-11.71562785 47.4067004 -11.78571065 40.35948705 -11.83398438 33.31152344 C-11.85410717 30.91366551 -11.88140841 28.51585669 -11.91601562 26.11816406 C-11.96450272 22.67272833 -11.98722022 19.22794105 -12.00488281 15.78222656 C-12.02552795 14.70918274 -12.0461731 13.63613892 -12.06744385 12.53057861 C-12.06774597 11.52984314 -12.0680481 10.52910767 -12.06835938 9.49804688 C-12.07724182 8.61868469 -12.08612427 7.73932251 -12.09527588 6.83331299 C-10.75605779 0.20927287 -5.83271719 -0.11731981 0 0 Z " fill="#FFEFAC" transform="translate(140.6142578125,412.5458984375)"/>
<path d="M0 0 C7.26 0 14.52 0 22 0 C22 18.48 22 36.96 22 56 C14.74 56 7.48 56 0 56 C0 37.52 0 19.04 0 0 Z " fill="#B5ADB6" transform="translate(257,220)"/>
<path d="M0 0 C6.06888051 -0.09878601 12.13729439 -0.17142949 18.20678711 -0.21972656 C20.27197418 -0.23985731 22.33710416 -0.26716445 24.40209961 -0.30175781 C27.36847001 -0.35021162 30.33408772 -0.37295385 33.30078125 -0.390625 C34.2258699 -0.41127014 35.15095856 -0.43191528 36.1040802 -0.45318604 C42.44384633 -0.45541152 42.44384633 -0.45541152 45.09716797 1.71728516 C46.13345947 4.33743808 46.29361425 6.10316541 46.14453125 8.9140625 C46.07588867 10.30238281 46.07588867 10.30238281 46.00585938 11.71875 C45.94205078 12.6778125 45.87824219 13.636875 45.8125 14.625 C45.74579102 16.07519531 45.74579102 16.07519531 45.67773438 17.5546875 C45.27198025 24.72801975 45.27198025 24.72801975 43 27 C41.08908081 27.24050903 41.08908081 27.24050903 38.73388672 27.22705078 C37.85312469 27.22689972 36.97236267 27.22674866 36.06491089 27.22659302 C35.11278717 27.21627045 34.16066345 27.20594788 33.1796875 27.1953125 C31.71899338 27.19106766 31.71899338 27.19106766 30.22879028 27.18673706 C27.11073651 27.17551913 23.99296732 27.1504117 20.875 27.125 C18.76432706 27.11497228 16.65364962 27.10584607 14.54296875 27.09765625 C9.36188165 27.07557458 4.18096115 27.04208129 -1 27 C-0.34 26.34 0.32 25.68 1 25 C1.29435133 22.60759442 1.29435133 22.60759442 1.23046875 19.84375 C1.22853516 18.82152344 1.22660156 17.79929687 1.22460938 16.74609375 C1.21236328 15.67488281 1.20011719 14.60367187 1.1875 13.5 C1.18685547 12.42878906 1.18621094 11.35757812 1.18554688 10.25390625 C1.39415024 4.95883517 1.39415024 4.95883517 0 0 Z " fill="#E2DDE1" transform="translate(344,276)"/>
<path d="M0 0 C3.76549293 1.33361208 4.72655189 2.80960426 7 6.0625 C7.99985037 8.19639074 8.91616669 10.37071432 9.76171875 12.5703125 C10.1159063 13.48126175 10.1159063 13.48126175 10.47724915 14.41061401 C11.22239851 16.33312441 11.95502258 18.26013107 12.6875 20.1875 C13.18995155 21.48859189 13.69319966 22.78937646 14.19726562 24.08984375 C17.7122093 33.19912791 17.7122093 33.19912791 19 37.0625 C6.46 37.0625 -6.08 37.0625 -19 37.0625 C-17.82190008 29.99390046 -15.38562524 24.04144949 -12.6875 17.4375 C-12.19563993 16.19804504 -11.70410064 14.95846273 -11.21289062 13.71875 C-10.73400391 12.54054688 -10.25511719 11.36234375 -9.76171875 10.1484375 C-9.32819092 9.0764209 -8.89466309 8.0044043 -8.44799805 6.89990234 C-6.36677712 2.82167783 -4.76928682 0.09936014 0 0 Z " fill="#FFD15B" transform="translate(246,39.9375)"/>
<path d="M0 0 C5.28 0 10.56 0 16 0 C16 15.18 16 30.36 16 46 C10.72 46 5.44 46 0 46 C0 30.82 0 15.64 0 0 Z " fill="#B5ADB6" transform="translate(255,122)"/>
<path d="M0 0 C0.66 -0.0103125 1.32 -0.020625 2 -0.03125 C5.02495539 0.77225378 6.09823222 2.01352419 8 4.5 C8.3491005 7.3896512 8.4681562 9.8859271 8.390625 12.765625 C8.38496521 13.55902283 8.37930542 14.35242065 8.37347412 15.16986084 C8.35113147 17.69719473 8.30094176 20.22309665 8.25 22.75 C8.22993214 24.46612532 8.21168187 26.18227292 8.1953125 27.8984375 C8.15467892 32.09995013 8.07639313 36.29837767 8 40.5 C2.72 40.5 -2.56 40.5 -8 40.5 C-8.09190222 35.44537772 -8.17151221 30.39365977 -8.21972656 25.33886719 C-8.23982628 23.62001721 -8.26711089 21.90123548 -8.30175781 20.18261719 C-8.35035034 17.71011511 -8.37298435 15.2385179 -8.390625 12.765625 C-8.41127014 11.99881409 -8.43191528 11.23200317 -8.45318604 10.44195557 C-8.45468704 6.86267032 -8.30713127 4.90156032 -6.10058594 2.01660156 C-3.82782594 0.37569209 -2.77007014 -0.04328235 0 0 Z " fill="#FFD15A" transform="translate(256,-0.5)"/>
</svg>
