<?xml version="1.0" standalone="no"?>
<!DOCTYPE svg PUBLIC "-//W3C//DTD SVG 20010904//EN"
 "http://www.w3.org/TR/2001/REC-SVG-20010904/DTD/svg10.dtd">
<svg version="1.0" xmlns="http://www.w3.org/2000/svg"
 width="512.000000pt" height="512.000000pt" viewBox="0 0 512.000000 512.000000"
 preserveAspectRatio="xMidYMid meet">

<g transform="translate(0.000000,512.000000) scale(0.100000,-0.100000)"
fill="#000000" stroke="none">
<path d="M1283 5100 c-32 -19 -36 -28 -48 -102 -3 -20 -18 -50 -34 -66 -25
-27 -47 -37 -134 -56 -30 -7 -67 -57 -67 -91 0 -11 9 -34 20 -52 19 -31 29
-36 124 -58 47 -10 84 -59 92 -118 9 -66 46 -107 97 -107 48 0 94 40 102 88
16 94 54 135 133 146 136 18 137 182 1 201 -79 11 -118 53 -134 147 -7 44 -54
88 -93 88 -15 0 -42 -9 -59 -20z"/>
<path d="M2380 4460 c-455 -48 -880 -254 -1190 -576 -251 -261 -423 -585 -496
-933 -37 -179 -49 -364 -35 -528 41 -491 246 -919 598 -1252 58 -56 104 -102
102 -104 -2 -1 -25 -13 -52 -26 -54 -28 -106 -81 -138 -143 -30 -57 -37 -175
-15 -238 8 -24 14 -45 13 -45 -145 -62 -254 -158 -310 -276 -74 -156 -76 -288
-6 -325 42 -21 3376 -21 3418 0 70 37 68 169 -6 325 -56 118 -165 214 -310
276 -1 0 5 21 13 45 22 63 15 181 -15 238 -32 62 -84 115 -138 143 -27 13 -50
25 -52 26 -2 2 44 48 102 104 265 251 451 562 540 904 48 183 60 285 60 490
-1 211 -19 345 -73 530 -52 181 -166 425 -217 465 -38 30 -88 26 -124 -9 -44
-44 -39 -75 35 -226 209 -422 240 -885 89 -1319 -123 -356 -357 -659 -670
-868 l-86 -58 -855 0 -855 0 -51 32 c-328 207 -577 518 -706 883 -204 579 -80
1221 329 1692 344 396 892 619 1413 574 241 -21 417 -70 646 -183 135 -66 144
-69 177 -58 45 15 65 44 65 95 0 54 -26 79 -152 143 -177 91 -348 147 -555
182 -135 23 -370 33 -493 20z m1340 -3595 c55 -28 76 -105 45 -165 -33 -63 37
-60 -1205 -60 -1242 0 -1172 -3 -1205 60 -19 37 -19 83 0 120 32 63 -39 59
1203 60 994 0 1137 -2 1162 -15z m201 -456 c32 -15 75 -45 98 -68 38 -38 81
-107 81 -131 0 -7 -481 -10 -1540 -10 -1069 0 -1540 3 -1540 10 0 6 7 25 16
43 43 83 106 137 197 168 49 18 121 18 1342 16 l1290 -2 56 -26z"/>
<path d="M4721 4404 c-24 -20 -32 -36 -37 -77 -6 -41 -14 -59 -43 -88 -29 -29
-47 -37 -88 -43 -135 -17 -139 -178 -4 -200 83 -13 123 -53 136 -138 3 -21 17
-50 30 -65 19 -23 31 -28 70 -28 57 0 88 30 99 95 13 82 54 123 136 136 55 9
89 39 97 86 10 64 -47 118 -123 118 -43 0 -100 64 -108 124 -15 97 -98 137
-165 80z"/>
<path d="M272 3955 c-23 -20 -32 -37 -37 -76 -10 -73 -51 -116 -125 -129 -96
-17 -134 -85 -90 -157 19 -32 28 -36 102 -48 20 -3 50 -18 66 -34 27 -25 37
-47 56 -134 7 -30 57 -67 91 -67 11 0 34 9 52 20 31 19 36 29 58 124 10 47 59
84 118 92 66 9 107 46 107 97 0 48 -40 94 -88 102 -94 16 -135 54 -146 133
-12 92 -98 132 -164 77z"/>
<path d="M3813 3933 c-12 -2 -34 -18 -49 -36 -22 -26 -25 -38 -21 -71 16 -116
178 -116 194 0 5 36 1 45 -23 72 -30 31 -62 42 -101 35z"/>
<path d="M2497 3790 c-31 -24 -45 -81 -29 -115 20 -44 57 -58 170 -66 258 -19
483 -123 665 -306 183 -183 288 -411 306 -668 8 -110 22 -147 66 -167 34 -16
91 -2 115 29 40 51 20 275 -40 455 -106 317 -329 576 -623 724 -169 85 -358
134 -522 134 -68 0 -87 -4 -108 -20z"/>
<path d="M1617 3559 c-23 -14 -47 -62 -47 -96 0 -60 -64 -123 -125 -123 -34 0
-82 -25 -95 -49 -5 -11 -10 -36 -10 -56 0 -48 44 -95 90 -95 37 0 101 -33 118
-61 7 -11 17 -43 22 -72 16 -84 77 -124 143 -92 37 17 51 42 62 109 9 53 58
102 111 111 67 11 92 25 109 61 33 70 -5 127 -95 144 -78 15 -130 73 -130 145
0 41 -50 85 -97 85 -21 0 -46 -5 -56 -11z"/>
</g>
</svg>
