<?xml version="1.0" standalone="no"?>
<!DOCTYPE svg PUBLIC "-//W3C//DTD SVG 20010904//EN"
 "http://www.w3.org/TR/2001/REC-SVG-20010904/DTD/svg10.dtd">
<svg version="1.0" xmlns="http://www.w3.org/2000/svg"
 width="512.000000pt" height="512.000000pt" viewBox="0 0 512.000000 512.000000"
 preserveAspectRatio="xMidYMid meet">

<g transform="translate(0.000000,512.000000) scale(0.100000,-0.100000)"
fill="#000000" stroke="none">
<path d="M2112 5109 c-13 -5 -28 -6 -33 -3 -6 3 -41 -4 -78 -15 -62 -19 -88
-39 -83 -63 1 -4 -5 -5 -13 -1 -13 5 -13 7 2 20 15 13 14 13 -7 0 -14 -9 -24
-21 -22 -27 1 -6 -2 -9 -8 -5 -15 10 -93 -71 -84 -87 4 -7 4 -10 -1 -6 -4 4
-14 3 -22 -3 -16 -14 -18 -33 -1 -23 7 4 8 3 4 -5 -4 -6 -11 -9 -16 -6 -8 5
-40 -65 -40 -91 0 -16 1 -15 -83 -39 -42 -11 -60 -22 -67 -38 -5 -12 -9 -15
-9 -7 -1 8 -20 -4 -48 -31 -27 -25 -84 -65 -128 -89 -179 -96 -378 -245 -532
-397 -625 -619 -870 -1502 -653 -2355 109 -428 327 -805 650 -1128 l115 -115
5 380 c5 380 5 380 32 460 38 111 91 197 174 279 123 124 275 193 446 203 l88
6 2 -884 3 -883 95 -28 c52 -15 104 -30 115 -32 19 -5 59 -14 80 -20 6 -1 19
-5 30 -9 22 -7 25 -8 195 -32 116 -16 275 -30 340 -29 79 0 287 16 320 24 19
5 53 11 75 14 22 3 65 10 95 16 30 6 66 13 80 16 14 3 34 8 45 11 11 4 25 8
30 9 40 7 123 39 116 44 -6 3 7 5 28 5 76 0 71 -72 71 882 0 611 -3 860 -11
875 -11 21 -10 21 87 16 182 -10 331 -76 458 -204 83 -82 136 -168 174 -279
l27 -80 3 -378 3 -377 61 52 c125 109 298 318 409 494 453 719 500 1624 125
2384 -194 391 -482 719 -841 957 -85 56 -235 143 -247 143 -4 0 4 -19 15 -42
21 -41 22 -57 25 -413 3 -282 6 -374 16 -385 35 -41 46 -100 46 -248 l1 -147
39 -27 c21 -15 51 -48 67 -75 27 -46 28 -54 28 -173 0 -141 -7 -163 -76 -230
-49 -48 -123 -74 -189 -68 l-47 5 -43 -86 c-60 -122 -103 -184 -195 -280 -121
-126 -249 -212 -407 -271 l-88 -33 0 -119 0 -118 258 -1 c141 -1 244 -4 228
-8 -23 -5 -65 -49 -183 -189 -84 -101 -151 -188 -147 -193 3 -5 2 -8 -3 -7 -4
2 -30 -21 -57 -50 -51 -55 -68 -61 -102 -37 -12 8 -25 11 -29 7 -5 -4 -5 -1
-1 5 11 19 -125 175 -144 167 -62 -28 -179 -28 -240 0 -19 8 -155 -148 -144
-167 4 -6 4 -9 -1 -5 -4 4 -17 1 -29 -7 -34 -24 -51 -18 -102 37 -27 29 -56
51 -64 50 -12 -2 -12 -1 -2 6 11 7 -17 46 -115 163 -71 85 -142 171 -157 192
l-28 37 231 0 232 0 -3 121 -3 121 -75 28 c-263 96 -474 285 -602 539 l-48 94
-59 -2 c-105 -4 -192 49 -237 144 -20 43 -24 65 -24 155 0 89 4 113 24 155 21
46 85 115 106 115 4 0 10 75 12 168 l3 167 33 51 c29 47 32 59 34 140 l2 89 6
-75 c4 -41 7 -68 8 -60 2 13 3 13 13 0 8 -12 9 -9 4 9 -6 19 -4 23 8 18 12 -4
14 -2 10 10 -4 11 -2 14 5 9 13 -8 28 37 17 53 -3 6 1 11 9 11 15 0 20 19 18
65 0 11 2 15 4 8 3 -6 22 21 43 60 52 101 101 173 157 236 l48 53 37 -38 c40
-43 75 -67 129 -90 19 -8 43 -19 53 -25 25 -14 148 -29 232 -28 63 1 66 2 33
10 -91 21 -198 101 -261 195 -95 141 -85 375 23 518 33 45 112 116 129 116 5
0 11 4 13 9 2 5 30 18 63 29 l60 21 -75 0 c-41 0 -86 -4 -98 -10z m-49 -26
c-7 -2 -21 -2 -30 0 -10 3 -4 5 12 5 17 0 24 -2 18 -5z m60 0 c-7 -2 -19 -2
-25 0 -7 3 -2 5 12 5 14 0 19 -2 13 -5z m-146 -19 c-3 -3 -12 -4 -19 -1 -8 3
-5 6 6 6 11 1 17 -2 13 -5z m113 -8 c0 -2 -9 -6 -20 -9 -11 -3 -18 -1 -14 4 5
9 34 13 34 5z m-176 -79 c-5 -13 -9 -14 -25 -4 -16 10 -23 7 -46 -16 -23 -23
-26 -30 -16 -46 10 -16 9 -20 -4 -25 -24 -9 -39 10 -23 28 7 9 10 22 7 30 -4
10 -1 13 9 9 9 -3 14 0 12 8 -2 8 3 13 11 11 8 -2 11 3 8 11 -4 11 1 14 19 13
13 0 24 -4 24 -8 0 -5 5 -8 11 -8 6 0 8 7 4 18 -4 12 -3 14 5 6 6 -6 8 -18 4
-27z m-207 -223 c-3 -3 -12 -4 -19 -1 -8 3 -5 6 6 6 11 1 17 -2 13 -5z m-75
-17 c-18 -7 -37 -19 -42 -27 -8 -13 -10 -13 -10 2 0 16 39 36 70 36 8 0 0 -5
-18 -11z m-42 -57 c-20 -13 -33 -13 -25 0 3 6 14 10 23 10 15 0 15 -2 2 -10z
m-78 -23 c-7 -8 -8 -18 -4 -22 4 -5 1 -5 -6 -1 -9 5 -9 12 -1 27 6 12 13 18
16 15 3 -3 1 -12 -5 -19z m83 -7 c-3 -5 -11 -10 -16 -10 -6 0 -7 5 -4 10 3 6
11 10 16 10 6 0 7 -4 4 -10z m-100 -38 c-6 -7 -34 11 -29 19 3 5 11 3 19 -4 7
-6 12 -13 10 -15z m-25 -12 c8 -5 11 -10 5 -10 -5 0 -17 5 -25 10 -8 5 -10 10
-5 10 6 0 17 -5 25 -10z m45 -30 c-3 -5 -12 -10 -18 -10 -7 0 -6 4 3 10 19 12
23 12 15 0z m-88 -82 c-3 -7 -5 -2 -5 12 0 14 2 19 5 13 2 -7 2 -19 0 -25z
m271 -119 c-3 -8 -7 -3 -11 10 -4 17 -3 21 5 13 5 -5 8 -16 6 -23z m30 6 c-3
-3 -9 2 -12 12 -6 14 -5 15 5 6 7 -7 10 -15 7 -18z m92 15 c0 -5 -2 -10 -4
-10 -3 0 -8 5 -11 10 -3 6 -1 10 4 10 6 0 11 -4 11 -10z m137 -76 c-3 -3 -12
-4 -19 -1 -8 3 -5 6 6 6 11 1 17 -2 13 -5z m-16 -22 c-7 -2 -18 1 -23 6 -8 8
-4 9 13 5 13 -4 18 -8 10 -11z m-320 -55 c-10 -9 -11 -8 -5 6 3 10 9 15 12 12
3 -3 0 -11 -7 -18z m-194 -209 c-2 -13 -4 -5 -4 17 -1 22 1 32 4 23 2 -10 2
-28 0 -40z m56 -83 c-3 -9 -8 -14 -10 -11 -3 3 -2 9 2 15 9 16 15 13 8 -4z
m1692 -2706 c13 -12 16 -42 17 -150 1 -136 -3 -158 -44 -210 -63 -80 -233 -80
-296 0 -41 52 -46 75 -48 205 -2 178 -9 172 198 171 129 0 160 -3 173 -16z"/>
<path d="M1800 4900 c0 -5 5 -10 10 -10 6 0 10 5 10 10 0 6 -4 10 -10 10 -5 0
-10 -4 -10 -10z"/>
<path d="M2024 3680 c-11 -4 -34 -24 -52 -44 -27 -31 -32 -45 -32 -87 0 -61
19 -96 67 -128 85 -55 223 8 223 102 0 22 -4 24 -41 23 -67 -1 -96 54 -64 127
6 15 1 17 -36 16 -24 0 -53 -4 -65 -9z"/>
<path d="M2934 3646 c-41 -40 -44 -47 -44 -96 0 -65 26 -111 77 -135 45 -21
119 -16 156 11 29 21 57 71 57 102 0 16 -7 19 -41 18 -67 -1 -96 54 -64 127 6
15 1 17 -45 17 -49 0 -56 -3 -96 -44z"/>
<path d="M1420 3276 c0 -2 8 -10 18 -17 15 -13 16 -12 3 4 -13 16 -21 21 -21
13z"/>
<path d="M1460 3236 c0 -2 7 -7 16 -10 8 -3 12 -2 9 4 -6 10 -25 14 -25 6z"/>
</g>
</svg>
