<?xml version="1.0" standalone="no"?>
<!DOCTYPE svg PUBLIC "-//W3C//DTD SVG 20010904//EN"
 "http://www.w3.org/TR/2001/REC-SVG-20010904/DTD/svg10.dtd">
<svg version="1.0" xmlns="http://www.w3.org/2000/svg"
 width="512.000000pt" height="512.000000pt" viewBox="0 0 512.000000 512.000000"
 preserveAspectRatio="xMidYMid meet">

<g transform="translate(0.000000,512.000000) scale(0.100000,-0.100000)"
fill="#000000" stroke="none">
<path d="M2052 5109 c-79 -13 -169 -62 -238 -130 -55 -55 -65 -60 -123 -70
-190 -30 -340 -156 -403 -339 -23 -64 -23 -73 -23 -540 0 -508 0 -506 51 -576
34 -46 33 -56 -14 -99 -74 -66 -87 -102 -87 -235 0 -93 4 -122 19 -150 42 -80
117 -135 198 -145 31 -4 38 -3 23 4 -19 9 -18 10 5 11 23 2 22 3 -7 11 -25 7
-37 20 -53 55 -11 26 -21 59 -22 75 -1 16 -6 29 -10 29 -4 0 -8 43 -8 95 0 58
4 95 10 95 6 0 8 11 4 27 l-7 27 29 -27 c41 -38 54 -34 17 6 -16 17 -33 41
-37 51 -3 10 13 -1 36 -25 37 -38 43 -50 45 -92 1 -29 -3 -45 -9 -41 -7 4 -7
0 0 -12 5 -11 12 -39 16 -64 4 -25 9 -55 13 -67 3 -14 1 -23 -6 -23 -6 0 -11
10 -11 22 0 12 -3 19 -6 15 -3 -3 -3 -20 1 -37 6 -25 9 -29 21 -19 11 9 14 8
14 -2 0 -8 3 -24 6 -36 5 -19 2 -23 -15 -23 -14 0 -21 6 -21 19 0 27 -26 46
-34 25 -8 -22 2 -33 14 -14 6 10 9 5 12 -16 2 -21 9 -29 23 -30 11 -1 25 -2
31 -3 6 0 36 -52 67 -113 64 -128 119 -205 209 -296 l63 -63 6 73 c6 78 26
165 40 174 12 7 12 59 0 82 -5 9 -15 31 -22 47 -8 17 -16 32 -19 35 -8 8 -30
98 -30 123 0 13 -6 29 -12 36 -11 10 -9 11 6 5 16 -6 18 -4 13 10 -4 10 -7 29
-7 42 0 13 -4 24 -10 24 -5 0 -10 -10 -10 -22 0 -36 -9 -15 -18 44 -5 33 -5
63 0 72 7 12 5 16 -7 16 -9 0 -13 5 -10 10 4 7 93 10 248 10 133 0 257 4 275
9 17 5 32 7 32 5 0 -3 12 4 26 15 33 26 44 27 37 1 -3 -11 0 -20 6 -20 6 0 11
-7 11 -15 0 -8 21 -27 48 -42 39 -23 58 -28 113 -27 60 0 71 4 119 38 42 30
59 37 84 33 31 -5 31 -5 4 6 -14 6 -29 19 -31 29 -6 23 9 24 22 1 6 -10 11
-14 11 -9 0 5 7 3 15 -4 8 -7 15 -9 15 -6 0 4 9 2 20 -4 26 -14 701 -14 748
-1 17 5 32 8 32 5 0 -2 11 3 25 12 l25 16 0 -36 c0 -29 -4 -36 -20 -36 -11 0
-20 5 -20 10 0 6 7 10 15 10 8 0 15 4 15 9 0 10 -77 -3 -88 -14 -4 -4 6 -5 21
-1 19 4 26 3 22 -4 -3 -5 -15 -10 -25 -10 -10 0 -21 -4 -24 -8 -3 -5 20 -7 50
-4 43 4 53 2 50 -9 -3 -8 -7 -32 -10 -54 -8 -64 -24 -138 -35 -167 -6 -16 -7
-28 -3 -28 4 -1 -6 -12 -23 -25 -16 -13 -26 -28 -22 -32 5 -4 11 -2 15 4 4 7
35 11 77 11 89 -1 143 21 194 79 50 56 71 118 71 208 0 107 -22 168 -82 228
l-50 50 1 156 c1 145 0 159 -23 206 -39 81 -105 139 -176 154 -14 4 -189 6
-390 6 l-366 0 -53 -28 c-29 -15 -57 -24 -62 -21 -5 3 -9 0 -9 -5 0 -6 4 -11
9 -11 4 0 -6 -15 -23 -34 -36 -39 -47 -39 -21 1 14 22 15 25 3 15 -13 -10 -17
-10 -20 0 -3 8 -7 6 -11 -6 -4 -9 -3 -15 1 -12 5 3 9 -11 9 -30 1 -21 -3 -32
-10 -27 -5 3 -7 1 -4 -4 4 -6 1 -34 -6 -62 -13 -56 -26 -65 -88 -59 -30 3 -34
7 -40 38 -3 19 -11 47 -17 62 -6 14 -9 46 -7 70 1 23 1 37 -2 30 -4 -10 -8
-10 -21 0 -14 11 -14 9 1 -12 9 -13 17 -29 17 -35 -1 -14 -39 34 -51 64 -5 13
-12 21 -15 18 -3 -3 -30 7 -59 23 l-53 29 -238 1 c-131 0 -239 2 -241 3 -4 4
21 71 28 77 4 3 10 20 14 38 7 36 58 124 88 154 9 10 17 25 17 33 0 17 23 20
51 5 20 -11 77 -13 229 -10 80 2 82 3 35 10 -190 29 -347 198 -370 397 -14
122 40 269 130 358 57 57 163 113 233 125 38 6 26 8 -58 8 -58 0 -129 -4 -158
-9z m249 -1388 l39 -39 0 -125 c0 -141 -12 -182 -60 -211 -24 -14 -64 -16
-287 -16 -193 0 -262 3 -272 13 -11 10 -14 10 -18 0 -8 -21 -103 -16 -140 7
-60 36 -65 54 -61 206 l3 136 37 34 38 34 341 0 341 0 39 -39z m1266 19 c17
-10 37 -29 43 -40 18 -33 13 -274 -5 -311 -30 -57 -42 -59 -405 -59 -295 0
-335 2 -361 17 -48 29 -59 66 -59 207 l0 125 38 41 39 40 339 0 c318 0 341 -1
371 -20z m-951 -291 c1 -32 34 -138 45 -145 5 -3 9 -10 9 -15 0 -6 -4 -8 -9
-5 -5 4 -21 2 -35 -4 -29 -11 -59 -3 -49 13 4 6 1 7 -7 2 -10 -6 -9 -11 4 -21
22 -15 4 -28 -25 -19 -14 5 -18 10 -10 14 7 5 -1 8 -19 10 -71 4 -68 -3 -40
83 16 49 29 76 37 74 7 -3 10 1 6 9 -3 8 -9 12 -14 9 -11 -6 -12 10 -2 20 4 4
30 6 58 4 46 -3 50 -5 51 -29z"/>
<path d="M1570 3730 c-8 -5 -12 -12 -9 -15 4 -3 12 1 19 10 14 17 11 19 -10 5z"/>
<path d="M1686 3724 c-9 -24 -2 -26 12 -4 7 11 8 20 3 20 -5 0 -12 -7 -15 -16z"/>
<path d="M2030 3684 c-50 -22 -79 -52 -91 -96 -14 -53 -2 -104 33 -144 76 -87
219 -56 257 55 17 52 15 62 -12 52 -74 -28 -137 51 -92 116 13 19 13 21 -8 27
-33 9 -48 7 -87 -10z"/>
<path d="M1543 3680 c9 -6 17 -20 17 -31 0 -11 5 -17 10 -14 13 8 13 45 1 45
-5 0 -18 3 -28 6 -17 5 -17 5 0 -6z"/>
<path d="M1511 3634 c0 -11 3 -14 6 -6 3 7 2 16 -1 19 -3 4 -6 -2 -5 -13z"/>
<path d="M1511 3484 c0 -11 3 -14 6 -6 3 7 2 16 -1 19 -3 4 -6 -2 -5 -13z"/>
<path d="M1513 3428 c-2 -5 7 -8 21 -8 16 0 26 -6 26 -15 0 -9 -6 -12 -17 -8
-11 4 -14 3 -9 -6 4 -6 16 -9 27 -6 14 5 19 2 19 -14 0 -11 4 -22 9 -26 10 -6
-1 44 -14 66 -4 6 -2 14 4 18 6 4 -5 7 -25 7 -20 -1 -38 -4 -41 -8z"/>
<path d="M1683 3386 c1 -11 9 -21 17 -23 10 -3 11 -2 4 4 -6 4 -14 15 -17 23
-5 11 -6 9 -4 -4z"/>
<path d="M2974 3681 c-59 -27 -88 -73 -88 -138 0 -65 22 -99 87 -131 37 -19
55 -22 88 -17 52 9 105 55 119 103 16 57 14 63 -16 52 -72 -28 -134 53 -89
117 13 19 13 21 -8 27 -34 9 -49 7 -93 -13z"/>
<path d="M2580 3456 c0 -7 7 -13 15 -13 8 0 15 4 15 8 0 4 -7 9 -15 13 -9 3
-15 0 -15 -8z"/>
<path d="M2544 3414 c-7 -37 6 -62 25 -50 6 4 10 19 10 34 -2 24 -2 24 -6 5
-2 -13 -9 -23 -14 -23 -12 0 -12 37 1 45 13 8 13 25 0 25 -5 0 -12 -16 -16
-36z"/>
<path d="M2597 3403 c-4 -3 -7 -16 -6 -27 0 -19 1 -19 10 3 10 24 8 36 -4 24z"/>
<path d="M2521 3374 c0 -11 3 -14 6 -6 3 7 2 16 -1 19 -3 4 -6 -2 -5 -13z"/>
<path d="M3363 4313 c1 -16 6 -27 10 -25 4 1 7 4 7 7 0 3 0 14 0 25 0 11 -4
20 -9 20 -6 0 -9 -12 -8 -27z"/>
<path d="M3420 4245 c0 -9 6 -12 15 -9 8 4 15 7 15 9 0 2 -7 5 -15 9 -9 3 -15
0 -15 -9z"/>
<path d="M2004 4188 c1 -21 5 -23 61 -20 84 3 127 11 120 23 -10 15 -101 11
-115 -6 -14 -17 -46 -20 -55 -5 -3 6 4 10 17 11 22 0 22 1 3 9 -30 13 -32 12
-31 -12z m139 -5 c-13 -2 -33 -2 -45 0 -13 2 -3 4 22 4 25 0 35 -2 23 -4z"/>
<path d="M3170 4192 c0 -5 7 -9 15 -9 8 0 15 4 15 9 0 4 -7 8 -15 8 -8 0 -15
-4 -15 -8z"/>
<path d="M2280 4175 c0 -8 8 -15 18 -15 14 0 14 2 3 9 -11 7 -10 10 5 14 16 4
16 5 -3 6 -14 1 -23 -5 -23 -14z"/>
<path d="M3406 4177 c3 -10 9 -15 12 -12 3 3 0 11 -7 18 -10 9 -11 8 -5 -6z"/>
<path d="M2400 4170 c0 -6 113 -10 320 -10 207 0 320 4 320 10 0 6 -113 10
-320 10 -207 0 -320 -4 -320 -10z"/>
<path d="M3310 4170 c0 -5 7 -10 16 -10 8 0 12 5 9 10 -3 6 -10 10 -16 10 -5
0 -9 -4 -9 -10z"/>
<path d="M2198 4163 c7 -3 16 -2 19 1 4 3 -2 6 -13 5 -11 0 -14 -3 -6 -6z"/>
<path d="M1906 4077 c3 -10 9 -15 12 -12 3 3 0 11 -7 18 -10 9 -11 8 -5 -6z"/>
<path d="M3531 4064 c0 -11 3 -14 6 -6 3 7 2 16 -1 19 -3 4 -6 -2 -5 -13z"/>
<path d="M1878 4030 c-7 -24 -3 -38 8 -28 3 4 4 17 2 30 l-3 23 -7 -25z"/>
<path d="M1934 3992 c6 -10 132 -9 142 1 4 4 -27 7 -70 7 -42 0 -75 -4 -72 -8z"/>
<path d="M2480 3990 c0 -5 5 -10 10 -10 6 0 10 5 10 10 0 6 -4 10 -10 10 -5 0
-10 -4 -10 -10z"/>
<path d="M3040 3992 c0 -10 306 -9 316 1 4 4 -65 7 -154 7 -89 0 -162 -3 -162
-8z"/>
<path d="M2773 3973 c9 -2 23 -2 30 0 6 3 -1 5 -18 5 -16 0 -22 -2 -12 -5z"/>
<path d="M2520 3929 c0 -5 5 -7 10 -4 6 3 10 8 10 11 0 2 -4 4 -10 4 -5 0 -10
-5 -10 -11z"/>
<path d="M2740 3920 c-9 -6 -10 -10 -3 -10 6 0 15 5 18 10 8 12 4 12 -15 0z"/>
<path d="M2340 3910 c0 -5 5 -10 11 -10 5 0 7 5 4 10 -3 6 -8 10 -11 10 -2 0
-4 -4 -4 -10z"/>
<path d="M2380 3916 c0 -2 7 -6 15 -10 8 -3 15 -1 15 4 0 6 -7 10 -15 10 -8 0
-15 -2 -15 -4z"/>
<path d="M2440 3904 c0 -28 20 -54 43 -54 13 0 17 3 11 8 -6 4 -14 19 -18 35
-7 29 -36 38 -36 11z"/>
<path d="M2370 3896 c0 -2 7 -7 16 -10 8 -3 12 -2 9 4 -6 10 -25 14 -25 6z"/>
<path d="M2640 3879 c0 -11 5 -17 10 -14 6 3 10 13 10 21 0 8 -4 14 -10 14 -5
0 -10 -9 -10 -21z"/>
<path d="M2725 3890 c-3 -6 1 -7 9 -4 18 7 21 14 7 14 -6 0 -13 -4 -16 -10z"/>
<path d="M2532 3744 c-5 -10 -6 -29 -2 -45 5 -15 6 -30 2 -33 -3 -3 -1 -6 5
-6 7 0 10 17 7 43 -3 34 -2 36 4 12 6 -25 9 -27 15 -12 4 11 1 27 -7 39 -13
18 -15 19 -24 2z"/>
<path d="M2603 3702 l-1 -57 8 45 c4 25 5 51 1 57 -4 7 -7 -13 -8 -45z"/>
<path d="M2581 3714 c0 -11 3 -14 6 -6 3 7 2 16 -1 19 -3 4 -6 -2 -5 -13z"/>
<path d="M2512 3680 c0 -19 2 -27 5 -17 2 9 2 25 0 35 -3 9 -5 1 -5 -18z"/>
<path d="M2570 3675 c0 -8 4 -15 10 -15 5 0 7 7 4 15 -4 8 -8 15 -10 15 -2 0
-4 -7 -4 -15z"/>
<path d="M2543 3643 c9 -2 25 -2 35 0 9 3 1 5 -18 5 -19 0 -27 -2 -17 -5z"/>
<path d="M1918 3143 c46 -2 118 -2 160 0 42 1 5 3 -83 3 -88 0 -123 -2 -77 -3z"/>
<path d="M2903 3143 c9 -2 23 -2 30 0 6 3 -1 5 -18 5 -16 0 -22 -2 -12 -5z"/>
<path d="M3103 3143 c81 -2 213 -2 295 0 81 1 14 3 -148 3 -162 0 -229 -2
-147 -3z"/>
<path d="M1903 3123 c37 -2 97 -2 135 0 37 2 6 3 -68 3 -74 0 -105 -1 -67 -3z"/>
<path d="M2110 3126 c0 -2 11 -6 25 -8 14 -3 25 -1 25 3 0 5 -11 9 -25 9 -14
0 -25 -2 -25 -4z"/>
<path d="M2956 3122 c-2 -4 14 -6 37 -5 23 2 49 0 57 -4 21 -9 309 -10 304 -1
-3 4 35 9 83 11 48 1 -39 4 -194 5 -155 1 -284 -1 -287 -6z"/>
<path d="M1822 3090 c0 -19 2 -27 5 -17 2 9 2 25 0 35 -3 9 -5 1 -5 -18z"/>
<path d="M3610 3088 c0 -25 3 -29 10 -18 13 20 13 50 0 50 -5 0 -10 -15 -10
-32z"/>
<path d="M3500 3096 c0 -2 9 -6 20 -9 11 -3 20 -1 20 4 0 5 -9 9 -20 9 -11 0
-20 -2 -20 -4z"/>
<path d="M2080 3080 c0 -5 5 -10 11 -10 5 0 7 5 4 10 -3 6 -8 10 -11 10 -2 0
-4 -4 -4 -10z"/>
<path d="M3009 3077 c7 -7 14 -8 21 -1 6 6 2 10 -12 11 -16 2 -18 -1 -9 -10z"/>
<path d="M1792 3060 c0 -14 2 -19 5 -12 2 6 2 18 0 25 -3 6 -5 1 -5 -13z"/>
<path d="M1394 3021 c10 -11 16 -28 14 -40 -2 -11 2 -20 7 -20 6 -1 10 9 10
22 0 23 -23 57 -39 57 -5 0 -1 -9 8 -19z"/>
<path d="M1920 3006 c0 -8 4 -17 8 -20 4 -2 8 4 8 15 0 10 -4 19 -8 19 -4 0
-8 -6 -8 -14z"/>
<path d="M3075 3010 c3 -5 11 -10 16 -10 6 0 7 5 4 10 -3 6 -11 10 -16 10 -6
0 -7 -4 -4 -10z"/>
<path d="M3180 3001 c0 -6 5 -13 10 -16 6 -3 10 1 10 9 0 9 -4 16 -10 16 -5 0
-10 -4 -10 -9z"/>
<path d="M3602 2980 c0 -14 2 -19 5 -12 2 6 2 18 0 25 -3 6 -5 1 -5 -13z"/>
<path d="M1938 2963 c7 -3 16 -2 19 1 4 3 -2 6 -13 5 -11 0 -14 -3 -6 -6z"/>
<path d="M3158 2948 c7 -7 12 -25 12 -40 0 -15 5 -28 10 -28 6 0 10 -8 9 -17
0 -11 -3 -13 -6 -5 -2 6 -9 10 -13 7 -5 -3 -7 -12 -4 -20 4 -8 10 -12 15 -9 6
3 7 -7 5 -23 -3 -15 -1 -35 4 -43 6 -9 8 14 6 65 -3 76 -19 125 -40 125 -6 0
-5 -5 2 -12z"/>
<path d="M3140 2896 c0 -9 5 -16 10 -16 6 0 10 4 10 9 0 6 -4 13 -10 16 -5 3
-10 -1 -10 -9z"/>
<path d="M3546 2871 c-4 -7 -5 -15 -2 -18 9 -9 19 4 14 18 -4 11 -6 11 -12 0z"/>
<path d="M3520 2791 c0 -25 6 -27 13 -6 4 8 2 17 -3 20 -6 4 -10 -3 -10 -14z"/>
<path d="M3540 2765 c-6 -8 -10 -19 -8 -26 2 -6 9 0 16 15 13 29 10 33 -8 11z"/>
<path d="M3380 2710 c0 -5 5 -10 10 -10 6 0 10 5 10 10 0 6 -4 10 -10 10 -5 0
-10 -4 -10 -10z"/>
<path d="M3261 2690 c0 -8 4 -24 9 -35 5 -13 9 -14 9 -5 0 8 -4 24 -9 35 -5
13 -9 14 -9 5z"/>
<path d="M3480 2669 c0 -5 5 -7 10 -4 6 3 10 8 10 11 0 2 -4 4 -10 4 -5 0 -10
-5 -10 -11z"/>
<path d="M3246 2637 c3 -10 9 -15 12 -12 3 3 0 11 -7 18 -10 9 -11 8 -5 -6z"/>
<path d="M3443 2637 c0 -7 8 -13 18 -13 13 0 15 3 7 13 -6 7 -14 13 -18 13 -3
0 -7 -6 -7 -13z"/>
<path d="M3386 2615 c4 -8 8 -15 10 -15 2 0 4 7 4 15 0 8 -4 15 -10 15 -5 0
-7 -7 -4 -15z"/>
<path d="M3271 2564 c0 -11 3 -14 6 -6 3 7 2 16 -1 19 -3 4 -6 -2 -5 -13z"/>
<path d="M3361 2570 c0 -8 3 -21 8 -28 6 -10 10 -10 21 3 11 13 10 15 -3 9
-10 -3 -17 1 -20 13 -3 12 -5 13 -6 3z"/>
<path d="M3313 2546 c-10 -11 -9 -15 1 -19 16 -7 26 1 26 20 0 17 -12 16 -27
-1z"/>
<path d="M3404 2538 l-19 -23 23 19 c12 11 22 21 22 23 0 8 -8 2 -26 -19z"/>
<path d="M3287 2464 c6 -15 23 -19 23 -5 0 5 -7 11 -14 14 -10 4 -13 1 -9 -9z"/>
<path d="M2260 1951 c0 -62 15 -143 35 -185 23 -48 92 -114 144 -137 131 -58
270 -21 358 96 40 53 53 94 60 193 l6 82 -302 0 -301 0 0 -49z"/>
<path d="M1702 1038 l3 -883 100 -34 c235 -79 466 -114 745 -115 285 -1 512
33 750 111 l115 38 3 883 2 882 -198 0 -198 0 -215 -357 -215 -358 -34 0 -34
0 -215 358 -215 357 -198 0 -198 0 2 -882z"/>
</g>
</svg>
