<?xml version="1.0" standalone="no"?>
<!DOCTYPE svg PUBLIC "-//W3C//DTD SVG 20010904//EN"
 "http://www.w3.org/TR/2001/REC-SVG-20010904/DTD/svg10.dtd">
<svg version="1.0" xmlns="http://www.w3.org/2000/svg"
 width="512.000000pt" height="512.000000pt" viewBox="0 0 512.000000 512.000000"
 preserveAspectRatio="xMidYMid meet">

<g transform="translate(0.000000,512.000000) scale(0.100000,-0.100000)"
fill="#000000" stroke="none">
<path d="M2370 5113 c-559 -53 -1006 -230 -1417 -562 -514 -413 -841 -999
-934 -1671 -17 -122 -18 -515 -1 -635 84 -593 330 -1092 740 -1501 218 -218
466 -389 747 -516 123 -56 239 -98 269 -98 60 0 93 78 50 120 -10 10 -73 39
-139 65 -720 281 -1272 905 -1460 1650 -55 219 -69 342 -69 595 0 253 14 376
69 595 170 676 642 1256 1270 1565 173 85 300 132 470 175 219 55 342 69 595
69 168 0 255 -4 345 -18 153 -24 353 -74 480 -121 139 -51 361 -162 480 -239
131 -86 180 -87 200 -4 9 37 -30 75 -155 153 -415 256 -891 389 -1375 383 -71
-1 -146 -3 -165 -5z"/>
<path d="M2780 4716 l-41 -54 -104 -4 c-123 -4 -125 -5 -180 -118 -21 -44 -42
-80 -45 -80 -3 0 -24 36 -45 80 -22 45 -48 88 -57 97 -24 22 -73 21 -98 -2
-37 -34 -26 -77 64 -250 66 -127 88 -162 109 -169 56 -20 74 -2 154 152 l75
143 56 -3 56 -3 28 -85 c52 -163 31 -230 -60 -184 -27 13 -36 13 -59 2 -15 -7
-34 -25 -43 -40 -13 -25 -13 -31 0 -55 20 -36 93 -73 145 -73 53 0 121 35 159
83 30 37 31 43 31 130 0 78 -5 107 -33 190 l-34 97 36 49 c60 82 43 151 -37
151 -32 0 -41 -6 -77 -54z"/>
<path d="M1576 4555 c-128 -74 -148 -99 -122 -151 20 -42 56 -53 102 -31 19 9
34 14 34 11 0 -4 -10 -41 -21 -84 -21 -75 -22 -77 -53 -78 -37 -1 -66 -32 -66
-73 0 -27 24 -62 48 -70 7 -3 0 -42 -18 -109 -16 -58 -29 -115 -30 -128 -1
-56 51 -92 101 -72 33 14 39 28 74 161 27 103 28 106 56 106 40 0 69 29 69 70
0 31 -28 73 -49 73 -8 0 25 146 35 159 2 2 15 -11 29 -28 35 -41 84 -43 114
-5 12 15 21 36 21 47 0 27 -128 245 -150 257 -35 19 -65 9 -174 -55z"/>
<path d="M3292 4567 c-32 -34 -27 -67 22 -165 61 -121 67 -126 165 -119 l78 5
28 -59 c48 -100 55 -103 187 -94 62 4 120 11 129 16 26 13 41 61 30 92 -15 40
-45 50 -128 44 l-74 -5 -34 68 c-19 38 -45 74 -57 81 -14 7 -48 10 -95 6 l-74
-5 -34 68 c-19 38 -44 74 -54 80 -32 16 -66 12 -89 -13z"/>
<path d="M4220 4410 c-42 -42 -29 -72 83 -188 348 -365 565 -811 644 -1322 13
-84 17 -175 17 -340 0 -253 -14 -376 -69 -595 -213 -846 -894 -1527 -1740
-1740 -222 -56 -341 -69 -600 -69 -171 0 -257 5 -335 18 -179 30 -183 30 -210
8 -32 -26 -34 -87 -3 -112 39 -31 336 -69 548 -70 867 -1 1670 434 2151 1166
467 709 543 1640 199 2419 -129 290 -293 535 -506 753 -79 80 -95 92 -125 92
-21 0 -42 -8 -54 -20z"/>
<path d="M3142 4307 c-32 -34 -27 -67 22 -165 61 -122 68 -126 164 -119 l79 6
29 -61 c45 -95 58 -101 184 -93 58 3 113 9 123 11 25 8 49 59 41 89 -11 45
-45 59 -130 52 l-75 -5 -34 68 c-19 38 -45 74 -57 81 -14 7 -48 10 -95 6 l-74
-5 -34 68 c-19 38 -44 74 -54 80 -32 16 -66 12 -89 -13z"/>
<path d="M880 3960 c-41 -41 -29 -67 106 -225 136 -159 155 -186 147 -215 -9
-33 -33 -31 -101 9 -223 129 -299 141 -387 60 -77 -71 -133 -261 -89 -300 44
-38 395 -231 420 -231 32 0 74 42 74 73 0 33 -46 69 -203 159 -140 79 -148 85
-142 109 4 15 14 40 24 56 26 44 61 38 198 -38 65 -36 132 -68 150 -72 39 -8
102 9 137 36 66 52 88 167 47 247 -18 36 -258 325 -286 344 -20 15 -75 8 -95
-12z"/>
<path d="M2415 3914 c-171 -26 -341 -76 -465 -139 -318 -160 -573 -457 -684
-799 -44 -133 -31 -186 46 -186 47 0 60 17 93 125 57 188 160 358 301 499 377
377 936 462 1413 216 218 -113 399 -294 510 -510 103 -200 135 -335 135 -560
0 -225 -32 -360 -135 -560 -111 -216 -293 -398 -509 -509 -200 -103 -335 -135
-560 -135 -225 0 -360 32 -560 135 -115 59 -201 123 -297 221 -98 98 -153 174
-213 289 -86 167 -140 370 -140 530 0 42 -5 61 -20 77 -28 30 -82 29 -111 0
-20 -21 -21 -30 -15 -123 28 -490 313 -922 752 -1143 86 -43 249 -98 352 -119
124 -25 385 -24 507 1 373 77 687 290 887 601 92 142 161 315 195 483 24 120
24 384 0 504 -21 103 -76 266 -119 352 -190 378 -549 651 -960 731 -80 16
-342 28 -403 19z"/>
<path d="M4272 3910 c-13 -6 -31 -29 -43 -57 -22 -52 -65 -113 -79 -113 -5 0
-19 18 -31 39 -26 47 -64 66 -102 52 -50 -19 -60 -70 -25 -132 12 -21 18 -42
14 -46 -4 -5 -50 -8 -101 -8 -108 0 -135 -14 -135 -71 0 -80 133 -105 305 -58
16 4 26 -6 53 -52 l32 -57 -50 -53 c-57 -60 -100 -142 -100 -191 0 -55 51 -87
105 -67 9 4 31 36 49 73 19 36 43 74 54 84 19 18 20 17 43 -20 30 -49 47 -62
82 -63 31 0 77 39 77 65 0 9 -11 38 -25 64 -30 60 -28 61 95 61 84 0 90 1 109
26 27 35 26 57 -3 91 -23 26 -30 28 -113 31 -54 2 -109 -2 -141 -11 l-52 -14
-30 52 c-17 29 -30 56 -30 60 0 4 20 30 45 57 47 50 105 157 105 194 0 48 -60
83 -108 64z"/>
<path d="M2517 3606 c-29 -22 -37 -72 -37 -232 l0 -152 -42 -6 c-24 -4 -66
-15 -94 -25 l-52 -17 -84 145 c-93 161 -115 183 -165 162 -35 -14 -57 -54 -47
-85 4 -11 42 -82 86 -158 l79 -136 -71 -72 -72 -71 -149 87 c-115 66 -155 85
-173 80 -52 -13 -79 -69 -53 -109 8 -13 80 -61 160 -107 127 -72 145 -86 136
-101 -5 -10 -18 -53 -28 -96 l-18 -78 -181 -5 c-166 -5 -182 -7 -196 -25 -19
-25 -20 -64 -2 -87 23 -31 65 -38 225 -38 l157 0 13 -62 c7 -35 19 -77 26 -94
l13 -31 -147 -85 c-161 -93 -183 -115 -162 -165 14 -35 54 -57 85 -47 11 4 82
42 158 86 l136 79 72 -71 71 -72 -87 -149 c-66 -115 -85 -155 -80 -173 13 -52
69 -79 109 -53 13 8 60 80 106 159 l83 144 51 -17 c29 -10 71 -21 95 -25 l42
-6 0 -152 c0 -201 14 -245 80 -245 66 0 80 44 80 245 l0 152 43 6 c23 4 65 15
93 25 l52 17 84 -145 c93 -161 115 -183 165 -162 35 14 57 54 47 85 -4 11 -42
82 -86 158 l-79 136 71 72 72 71 136 -79 c76 -44 147 -82 158 -86 31 -10 71
12 85 47 21 50 -1 72 -162 165 l-145 84 17 52 c10 28 21 70 25 94 l6 42 158 0
c161 0 203 7 226 38 18 23 17 62 -2 87 -14 18 -30 20 -196 25 l-181 5 -18 78
c-10 43 -23 86 -28 96 -9 15 9 29 136 101 80 46 152 94 160 107 26 40 -1 96
-52 109 -19 5 -66 -18 -208 -100 -101 -59 -192 -115 -202 -126 -21 -23 -17
-51 21 -140 15 -36 32 -101 37 -147 9 -71 8 -92 -11 -167 -49 -199 -184 -337
-378 -386 -97 -25 -151 -25 -248 0 -190 48 -328 186 -376 376 -25 97 -25 151
0 248 51 200 200 341 407 383 99 21 193 11 293 -32 93 -39 120 -42 146 -13 24
26 208 342 218 374 10 31 -12 71 -47 85 -50 21 -72 -1 -165 -162 l-84 -145
-52 17 c-28 10 -70 21 -93 25 l-43 6 0 152 c0 201 -14 245 -80 245 -14 0 -33
-6 -43 -13z"/>
<path d="M853 2945 c-16 -7 -33 -20 -37 -30 -3 -9 -6 -166 -6 -349 0 -321 1
-333 20 -354 14 -14 33 -22 55 -22 22 0 41 8 55 22 19 21 20 33 20 356 0 198
-4 341 -10 352 -15 28 -61 40 -97 25z"/>
<path d="M530 2908 c-15 -16 -20 -36 -20 -77 -1 -55 -1 -56 -44 -82 -136 -83
-136 -295 0 -378 43 -26 43 -27 44 -82 0 -68 23 -99 75 -99 61 0 75 27 75 144
-1 118 -7 131 -75 152 -53 16 -74 37 -74 74 0 37 21 58 74 74 68 21 74 34 75
152 0 87 -3 103 -20 122 -28 30 -82 30 -110 0z"/>
<path d="M4471 2909 c-24 -26 -27 -65 -7 -92 7 -9 35 -24 61 -31 52 -16 74
-39 74 -76 0 -66 -42 -80 -234 -80 l-154 0 -20 -26 c-27 -35 -26 -57 3 -91
l24 -28 176 -5 c160 -5 176 -7 190 -25 19 -25 20 -64 2 -88 -8 -10 -35 -25
-61 -33 -26 -7 -54 -22 -61 -31 -20 -27 -17 -66 7 -92 19 -20 29 -23 80 -19
106 8 188 92 197 204 4 44 -1 64 -23 109 l-26 55 26 55 c22 45 27 65 23 109
-9 112 -91 196 -197 204 -51 4 -61 1 -80 -19z"/>
<path d="M947 2057 c-22 -7 -39 -30 -83 -119 l-56 -111 -122 7 c-115 6 -125 5
-150 -15 -34 -27 -36 -77 -3 -106 17 -17 41 -22 113 -28 l90 -7 -18 -51 c-10
-32 -17 -82 -18 -127 0 -97 26 -153 110 -243 89 -96 74 -99 348 60 200 117
220 140 169 199 -38 43 -66 36 -239 -65 -86 -50 -161 -91 -167 -91 -5 0 -23
19 -40 42 -26 35 -31 51 -31 97 0 34 9 78 23 111 l22 55 131 -4 131 -3 21 27
c28 36 28 57 -2 92 -22 25 -31 28 -102 31 -44 2 -85 5 -92 7 -9 3 -1 28 28 85
22 44 40 86 40 93 0 20 -36 64 -57 69 -10 3 -31 1 -46 -5z"/>
<path d="M3995 1916 c-209 -97 -218 -375 -17 -494 41 -23 58 -27 130 -27 l82
0 11 -34 c14 -40 81 -116 121 -137 52 -27 108 8 108 68 0 19 -13 40 -44 71
-53 51 -65 96 -42 150 28 67 104 94 179 62 37 -15 60 -12 90 13 23 20 23 84
-1 105 -32 30 -104 48 -170 45 l-62 -3 -24 50 c-64 135 -226 194 -361 131z
m182 -146 c39 -24 56 -53 56 -100 0 -48 -27 -96 -63 -115 -108 -56 -230 58
-175 165 35 68 116 91 182 50z"/>
<path d="M1533 1374 c-20 -20 -24 -31 -19 -57 7 -35 38 -67 65 -67 10 0 25 -6
35 -13 32 -24 10 -54 -81 -110 -170 -103 -227 -177 -226 -294 1 -85 38 -160
105 -214 154 -122 366 -71 438 106 16 39 29 55 53 66 36 16 53 53 43 92 -8 31
-80 77 -121 77 -42 0 -61 -24 -91 -112 -31 -95 -64 -136 -116 -145 -90 -14
-184 82 -158 162 13 41 46 70 143 127 156 92 206 187 158 294 -21 45 -67 85
-120 103 -52 17 -80 13 -108 -15z"/>
<path d="M3557 1303 c-105 -131 -223 -205 -357 -225 -95 -14 -128 -50 -104
-113 10 -26 61 -47 98 -40 l33 7 67 -116 c36 -63 66 -119 66 -123 0 -4 -10
-26 -22 -49 -27 -51 -19 -88 23 -110 40 -20 80 -5 108 40 63 100 243 206 352
206 70 0 113 55 84 110 -17 33 -33 40 -89 40 l-41 0 -68 116 -67 116 20 33
c11 18 20 46 20 64 0 68 -81 97 -123 44z m-4 -290 c62 -100 73 -125 57 -135
-108 -64 -133 -78 -135 -76 -10 13 -85 147 -87 156 -3 10 113 88 134 91 4 1
18 -16 31 -36z"/>
<path d="M2472 1015 c-138 -31 -221 -107 -230 -208 -9 -107 56 -189 161 -203
41 -6 51 -4 72 16 47 44 21 122 -44 132 -32 4 -49 32 -35 56 5 9 32 28 60 42
68 34 194 35 270 1 64 -28 101 -25 127 11 74 100 -176 200 -381 153z"/>
<path d="M2643 728 c-44 -47 -17 -121 46 -130 32 -4 49 -32 35 -55 -5 -10 -32
-29 -60 -43 -67 -34 -195 -35 -268 -2 -65 30 -99 29 -125 -4 -12 -15 -21 -34
-21 -44 0 -81 206 -148 369 -120 155 26 250 105 259 213 9 108 -58 191 -164
203 -43 5 -52 3 -71 -18z"/>
</g>
</svg>
