<?xml version="1.0" encoding="UTF-8"?>
<svg version="1.1" xmlns="http://www.w3.org/2000/svg" width="512" height="512">
<path d="M0 0 C1.0209375 -0.01160156 1.0209375 -0.01160156 2.0625 -0.0234375 C4.58994877 0.49632011 5.36364247 1.40412921 7 3.375 C7.58081055 5.23291016 7.58081055 5.23291016 7.88671875 7.4140625 C8.01602783 8.2788623 8.14533691 9.14366211 8.27856445 10.03466797 C8.41351318 11.01322754 8.54846191 11.99178711 8.6875 13 C9.02701867 15.26586941 9.36833469 17.53146986 9.7109375 19.796875 C9.80629288 20.43748871 9.90164825 21.07810242 9.99989319 21.73812866 C18.39638495 78.07252217 27.65210624 134.55675641 49.04418945 187.6484375 C51.07234547 193.43399213 50.51492567 198.78003661 48.1796875 204.41796875 C44.81943285 209.99243093 39.90599206 213.01260318 34 215.375 C34 219.005 34 222.635 34 226.375 C34.98097656 226.7153125 35.96195312 227.055625 36.97265625 227.40625 C67.82632549 238.37061778 92.6791367 258.59597827 107.25244141 288.29272461 C115.85738818 306.56131912 118.27569103 325.79392287 120.15405273 345.66601562 C121.29374704 357.56864244 123.20740913 368.99722739 127 380.375 C128.15757812 380.40078125 129.31515625 380.4265625 130.5078125 380.453125 C132.04691128 380.50943349 133.58597233 380.5667802 135.125 380.625 C135.88554687 380.63917969 136.64609375 380.65335937 137.4296875 380.66796875 C142.70674518 380.89542813 145.78199411 381.94144032 150 385.375 C153.38676812 389.21333721 153.51271703 393.01154253 153.3515625 397.94140625 C152.48934959 403.90983564 148.48902725 406.87608987 144 410.375 C150.50447445 418.02326975 157.39542245 424.54398704 165.27172852 430.7734375 C177.57670784 440.52841569 177.57670784 440.52841569 180 445.375 C181.20011719 445.38958252 182.40023438 445.40416504 183.63671875 445.41918945 C188.11731785 445.47745018 192.59742893 445.55468033 197.07763672 445.63745117 C199.01147502 445.67057037 200.94540696 445.69864224 202.87939453 445.72143555 C205.66999979 445.75522185 208.45975691 445.8075483 211.25 445.86328125 C212.10553467 445.86967117 212.96106934 445.8760611 213.8425293 445.88264465 C221.60089322 446.06986919 228.26047352 447.79945999 234 453.375 C237.303945 458.09492143 238.13074739 461.8864481 238.09765625 467.578125 C238.09443359 468.5578125 238.09121094 469.5375 238.08789062 470.546875 C238.07951172 471.56265625 238.07113281 472.5784375 238.0625 473.625 C238.05798828 474.65625 238.05347656 475.6875 238.04882812 476.75 C238.03706088 479.29172573 238.02062011 481.83333319 238 484.375 C238.91579834 484.34563354 238.91579834 484.34563354 239.85009766 484.31567383 C240.65495605 484.30044678 241.45981445 484.28521973 242.2890625 484.26953125 C243.48329834 484.24016479 243.48329834 484.24016479 244.70166016 484.21020508 C249.28783213 484.5390415 251.95911153 487.1953264 254.875 490.5 C256.55591307 494.79566673 256.56258806 498.82178734 256 503.375 C254.54385098 506.63400019 252.74482692 509.08764424 250 511.375 C246.27081394 512.61806202 242.81364481 512.51520197 238.929842 512.50642776 C237.67581177 512.50950672 237.67581177 512.50950672 236.3964476 512.51264787 C233.57052776 512.51834166 230.74465629 512.5168577 227.91873169 512.51544189 C225.88205403 512.51802416 223.84537688 512.52103693 221.80870044 512.5244453 C216.19275157 512.53253469 210.57681546 512.53430594 204.96086144 512.53504276 C198.91167878 512.53688993 192.86250279 512.54443549 186.81332397 512.55117798 C172.88764528 512.56548432 158.9619697 512.57128934 145.0362855 512.57586992 C138.15747358 512.57820475 131.27866249 512.58180725 124.39985122 512.5855653 C100.86118885 512.59840084 77.32252695 512.60912061 53.78386116 512.6125679 C52.30594522 512.61278954 50.82802927 512.61301132 49.35011332 512.61323325 C47.86859544 512.61345389 46.38707755 512.61367438 44.90555966 512.6138947 C41.93329628 512.61433726 38.96103291 512.61478437 35.98876953 512.61523438 C34.88334478 512.61539846 34.88334478 512.61539846 33.75558821 512.61556586 C9.85067842 512.61919789 -14.05420106 512.63512342 -37.95909924 512.65842474 C-63.22249739 512.68300532 -88.48587822 512.69673989 -113.74928868 512.69793582 C-116.52103178 512.69810728 -119.29277488 512.69832271 -122.06451797 512.69857025 C-123.08826756 512.6986539 -123.08826756 512.6986539 -124.13269895 512.69873925 C-135.12869688 512.69989116 -146.12466379 512.71092497 -157.12065123 512.72545731 C-168.16674486 512.73980377 -179.21280697 512.74281667 -190.25890957 512.73501733 C-196.24627681 512.7310984 -202.23353936 512.73210083 -208.22089386 512.74607468 C-213.69711552 512.75873916 -219.173153 512.7576821 -224.64937414 512.74548396 C-226.63523013 512.74351398 -228.62109885 512.74666482 -230.60693692 512.75532833 C-233.29757118 512.76632761 -235.98754465 512.75899953 -238.67815971 512.7469368 C-239.45671375 512.75453199 -240.23526779 512.76212718 -241.03741437 512.76995254 C-246.92970698 512.71256836 -249.95409052 511.14443523 -254.3125 507.375 C-256.88630119 502.79935344 -256.74564414 498.50412789 -256 493.375 C-253.86390823 488.94458744 -251.59601298 486.21340519 -247 484.375 C-245.44309582 484.29875592 -243.88278269 484.279345 -242.32421875 484.3046875 C-241.51428467 484.31483887 -240.70435059 484.32499023 -239.86987305 484.33544922 C-239.25281494 484.34850098 -238.63575684 484.36155273 -238 484.375 C-238.01571045 483.7452124 -238.0314209 483.1154248 -238.04760742 482.46655273 C-238.11040232 479.58196175 -238.14913058 476.69751514 -238.1875 473.8125 C-238.21263672 472.82185547 -238.23777344 471.83121094 -238.26367188 470.81054688 C-238.33779847 463.37317864 -237.62551952 458.41507523 -232.625 452.625 C-227.65169293 448.36216537 -223.44882324 446.21604056 -216.89331055 446.29663086 C-216.09535568 446.30250717 -215.29740082 446.30838348 -214.4752655 446.31443787 C-213.62104507 446.32282181 -212.76682465 446.33120575 -211.88671875 446.33984375 C-210.06314541 446.33613055 -208.23957548 446.3302015 -206.41601562 446.32226562 C-203.55159121 446.31171571 -200.68965655 446.31247112 -197.82543945 446.35083008 C-187.1279288 446.91973489 -187.1279288 446.91973489 -177.29858398 443.67236328 C-175.5553325 441.65745141 -174.28071612 439.70292836 -173 437.375 C-171.59822143 436.00416052 -170.16677679 434.66182719 -168.6875 433.375 C-167.93082031 432.71628906 -167.17414063 432.05757813 -166.39453125 431.37890625 C-163.92245204 429.31010261 -161.40738583 427.30689794 -158.875 425.3125 C-153.04541415 420.68872273 -147.45791302 416.08741939 -144 409.375 C-145.3921875 408.5396875 -145.3921875 408.5396875 -146.8125 407.6875 C-150.13137905 405.27968579 -151.52016173 404.1568089 -153 400.375 C-153.68426057 395.33174616 -153.5739862 391.54423116 -151.3125 386.9375 C-147.84971374 383.10035847 -144.95454477 381.28471586 -139.79296875 380.86328125 C-138.25840388 380.79083398 -136.72311333 380.73255152 -135.1875 380.6875 C-134.39923828 380.65333984 -133.61097656 380.61917969 -132.79882812 380.58398438 C-130.86636881 380.50200125 -128.93320965 380.43681155 -127 380.375 C-122.19012683 366.2871989 -120.8798562 351.73856195 -119.32421875 337.00390625 C-116.2145218 308.16813381 -108.68564412 284.95188134 -90 262.375 C-89.33226562 261.52035156 -88.66453125 260.66570312 -87.9765625 259.78515625 C-85.01525219 256.17423044 -81.59377897 253.34101951 -78 250.375 C-77.071875 249.59769531 -76.14375 248.82039062 -75.1875 248.01953125 C-62.87548862 237.97075725 -49.11779199 231.14273472 -34 226.375 C-34 222.745 -34 219.115 -34 215.375 C-35.19625 214.859375 -36.3925 214.34375 -37.625 213.8125 C-43.24489844 210.99258642 -46.7209579 207.10749903 -49.375 201.4375 C-51.21081109 192.44202565 -48.75316689 186.15899779 -45.4375 177.8125 C-26.07976869 127.24473797 -17.66045988 73.47950843 -9.78125 20.1484375 C-9.60303711 18.96886475 -9.42482422 17.78929199 -9.24121094 16.57397461 C-8.92585353 14.48010802 -8.6209028 12.38463262 -8.32910156 10.28735352 C-8.1947168 9.39717529 -8.06033203 8.50699707 -7.921875 7.58984375 C-7.81456055 6.83823975 -7.70724609 6.08663574 -7.59667969 5.31225586 C-6.36408667 1.31036322 -4.04533456 -0.04596971 0 0 Z " fill="#F5C55F" transform="translate(256,-0.375)"/>
<path d="M0 0 C4.8828125 2.63671875 4.8828125 2.63671875 7 4 C8.02151154 4.64450607 9.04302307 5.28901215 10.0954895 5.95304871 C12.07319792 7.63243033 12.8951138 8.5803414 13.52920151 11.11738014 C13.6995908 13.80204633 13.67646389 16.42567307 13.58935547 19.11450195 C13.58047806 20.12960342 13.57160065 21.1447049 13.56245422 22.19056702 C13.5260309 25.54088007 13.446814 28.88873963 13.3671875 32.23828125 C13.33355437 34.56280412 13.30259434 36.88736707 13.27420044 39.21195984 C13.19232727 45.32655884 13.07414147 51.43993819 12.94842529 57.55377197 C12.82652523 63.79398111 12.73891765 70.03466082 12.6484375 76.27539062 C12.46588287 88.51763228 12.24496882 100.75885937 12 113 C-14.5119235 113.07004093 -41.02383316 113.12296408 -67.5358305 113.15543652 C-79.84545164 113.17091391 -92.15501534 113.19202014 -104.46459961 113.22631836 C-115.19201168 113.25619395 -125.91938216 113.27556865 -136.64683467 113.28226548 C-142.32840264 113.28618085 -148.00985159 113.29540071 -153.69138145 113.31719017 C-159.03715442 113.33752619 -164.38275915 113.34383961 -169.72856712 113.33932304 C-171.69218357 113.34014953 -173.65580554 113.34613228 -175.61938858 113.35761642 C-178.29783291 113.37251534 -180.97563981 113.3689631 -183.65409851 113.36076355 C-184.43328776 113.36950207 -185.212477 113.3782406 -186.01527804 113.38724393 C-191.92226717 113.33827796 -194.94394349 111.77821104 -199.3125 108 C-201.88630119 103.42435344 -201.74564414 99.12912789 -201 94 C-198.86390823 89.56958744 -196.59601298 86.83840519 -192 85 C-190.44309582 84.92375592 -188.88278269 84.904345 -187.32421875 84.9296875 C-186.51428467 84.93983887 -185.70435059 84.94999023 -184.86987305 84.96044922 C-184.25281494 84.97350098 -183.63575684 84.98655273 -183 85 C-183.01571045 84.3702124 -183.0314209 83.7404248 -183.04760742 83.09155273 C-183.11040232 80.20696175 -183.14913058 77.32251514 -183.1875 74.4375 C-183.21263672 73.44685547 -183.23777344 72.45621094 -183.26367188 71.43554688 C-183.33779847 63.99817864 -182.62551952 59.04007523 -177.625 53.25 C-172.65169293 48.98716537 -168.44882324 46.84104056 -161.89331055 46.92163086 C-161.09535568 46.92750717 -160.29740082 46.93338348 -159.4752655 46.93943787 C-158.19393486 46.95201378 -158.19393486 46.95201378 -156.88671875 46.96484375 C-155.06314541 46.96113055 -153.23957548 46.9552015 -151.41601562 46.94726562 C-148.55159121 46.93671571 -145.68965655 46.93747112 -142.82543945 46.97583008 C-132.13501637 47.54506498 -132.13501637 47.54506498 -122.30957031 44.30615234 C-120.56754386 42.28973562 -119.29184088 40.32238846 -118 38 C-116.49360808 36.54588036 -114.9581538 35.12014765 -113.375 33.75 C-112.24384766 32.76773438 -112.24384766 32.76773438 -111.08984375 31.765625 C-108.76108238 29.7981481 -106.41075025 27.86638729 -104 26 C-103.34 26.33 -102.68 26.66 -102 27 C-102.66 27.66 -103.32 28.32 -104 29 C-103.44147339 29.00142502 -102.88294678 29.00285004 -102.30749512 29.00431824 C-96.46654868 29.02408524 -90.62663747 29.07850764 -84.78613281 29.15258789 C-82.60977621 29.17570966 -80.43330864 29.19014987 -78.25683594 29.19555664 C-75.11844187 29.20488855 -71.98177926 29.24597343 -68.84375 29.29296875 C-67.39639465 29.28706978 -67.39639465 29.28706978 -65.9197998 29.28105164 C-59.5860096 29.41623413 -54.73908247 30.57775328 -50 35 C-47.05736463 39.04095179 -48 41.35825395 -48 47 C-39.75 47 -31.5 47 -23 47 C-22.9175 44.256875 -22.835 41.51375 -22.75 38.6875 C-22.28602499 28.60444236 -20.26503033 20.16352437 -14 12 C-13.278125 11.01 -12.55625 10.02 -11.8125 9 C-8.55496549 5.12783634 -4.27289805 2.62517919 0 0 Z " fill="#FCD961" transform="translate(201,399)"/>
<path d="M0 0 C11.09209448 -0.04639217 22.18416579 -0.0819042 33.27633762 -0.10362434 C38.42717993 -0.11405024 43.57795573 -0.12818769 48.72875977 -0.15087891 C53.70191538 -0.17264978 58.67500711 -0.18457761 63.64820671 -0.18975449 C65.54316144 -0.19344261 67.43811278 -0.20064459 69.33304024 -0.21146011 C71.99236665 -0.2260314 74.65143094 -0.22797558 77.31079102 -0.22705078 C78.0897876 -0.23424133 78.86878418 -0.24143188 79.67138672 -0.24884033 C85.37764248 -0.22744437 90.72432048 0.15485445 95.3125 3.875 C98.4960851 7.88395902 99.45789853 10.69524934 99.3203125 15.97265625 C98.6464408 20.23777103 96.08355978 23.0477808 92.9375 25.8125 C89.75509311 27.76300745 87.0840174 28.13537501 83.43676758 28.20532227 C82.05567558 28.2352401 82.05567558 28.2352401 80.64668274 28.26576233 C79.65597275 28.28247482 78.66526276 28.29918732 77.64453125 28.31640625 C76.62775803 28.33718735 75.6109848 28.35796844 74.56340027 28.37937927 C71.31316937 28.44480048 68.06285723 28.50372537 64.8125 28.5625 C62.61001762 28.60569227 60.40754347 28.64930679 58.20507812 28.69335938 C52.80347147 28.80047427 47.40178388 28.90225457 42 29 C42.63389648 29.77794922 43.26779297 30.55589844 43.92089844 31.35742188 C45.78025283 33.72069711 47.03853255 35.76939083 48.25 38.5 C48.58515625 39.2321875 48.9203125 39.964375 49.265625 40.71875 C50.08479206 43.26339662 50.05173119 45.34299799 50 48 C50.80630859 47.98952637 51.61261719 47.97905273 52.44335938 47.96826172 C56.12887401 47.92645304 59.81433854 47.90059487 63.5 47.875 C64.7684375 47.85824219 66.036875 47.84148437 67.34375 47.82421875 C73.9511734 47.78980509 79.69750135 47.9829133 86 50 C86.93585938 50.27199219 87.87171875 50.54398437 88.8359375 50.82421875 C96.03823816 53.27300097 103.91052107 56.75221578 108.51269531 63.07983398 C112.39054622 66.07348312 116.22134383 65.54532596 120.98828125 65.50390625 C122.45312202 65.5180381 122.45312202 65.5180381 123.94755554 65.53245544 C127.06941665 65.56113067 130.1905178 65.56418353 133.3125 65.5625 C136.42365999 65.56611343 139.53426463 65.57573199 142.64530945 65.60325623 C144.57965634 65.61997338 146.51418539 65.6229766 148.44856262 65.61024475 C155.45769517 65.66460747 160.2964446 66.66511124 165.75 71.375 C174.80992212 81.94490914 171 84.8091947 171 103 C132.06 103.33 93.12 103.66 53 104 C52.67 112.91 52.34 121.82 52 131 C40.78 131 29.56 131 18 131 C17.97812622 126.59575684 17.97812622 126.59575684 17.95581055 122.10253906 C17.90532174 112.36750675 17.83870177 102.63263199 17.76428509 92.89775467 C17.71968588 86.9993961 17.68040687 81.10110494 17.65356445 75.20263672 C17.62742709 69.50313192 17.58695139 63.803888 17.53681374 58.10454559 C17.52021536 55.93744926 17.50865756 53.77030787 17.50238609 51.60315704 C17.44235832 32.75546506 16.31193298 18.25451507 2.92578125 4.1015625 C1 2 1 2 0 0 Z " fill="#F8C665" transform="translate(282,381)"/>
<path d="M0 0 C0.76425293 0.01796631 1.52850586 0.03593262 2.31591797 0.05444336 C7.49755434 0.31765735 10.54173025 1.45939639 14.6875 4.8125 C18.07426812 8.65083721 18.20021703 12.44904253 18.0390625 17.37890625 C17.17684959 23.34733564 13.17652725 26.31358987 8.6875 29.8125 C15.19197445 37.46076975 22.08292245 43.98148704 29.95922852 50.2109375 C42.26420784 59.96591569 42.26420784 59.96591569 44.6875 64.8125 C45.88761719 64.82708252 47.08773437 64.84166504 48.32421875 64.85668945 C52.80481785 64.91495018 57.28492893 64.99218033 61.76513672 65.07495117 C63.69897502 65.10807037 65.63290696 65.13614224 67.56689453 65.15893555 C70.35749979 65.19272185 73.14725691 65.2450483 75.9375 65.30078125 C76.79303467 65.30717117 77.64856934 65.3135611 78.5300293 65.32014465 C86.28839322 65.50736919 92.94797352 67.23695999 98.6875 72.8125 C101.991445 77.53242143 102.81824739 81.3239481 102.78515625 87.015625 C102.78193359 87.9953125 102.77871094 88.975 102.77539062 89.984375 C102.76701172 91.00015625 102.75863281 92.0159375 102.75 93.0625 C102.74548828 94.09375 102.74097656 95.125 102.73632812 96.1875 C102.72456088 98.72922573 102.70812011 101.27083319 102.6875 103.8125 C103.29803223 103.79292236 103.90856445 103.77334473 104.53759766 103.75317383 C105.74488525 103.73033325 105.74488525 103.73033325 106.9765625 103.70703125 C107.77271973 103.68745361 108.56887695 103.66787598 109.38916016 103.64770508 C113.97533213 103.9765415 116.64661153 106.6328264 119.5625 109.9375 C121.24341307 114.23316673 121.25008806 118.25928734 120.6875 122.8125 C119.23135098 126.07150019 117.43232692 128.52514424 114.6875 130.8125 C111.22826334 131.96557889 108.56144744 131.93546067 104.9108429 131.93275452 C103.87181746 131.93403615 103.87181746 131.93403615 102.81180161 131.93534368 C100.48559227 131.93699371 98.15945468 131.9314849 95.83325195 131.92602539 C94.16780601 131.92574339 92.50235994 131.9259015 90.83691406 131.9264679 C86.31036572 131.92675537 81.78384377 131.92086671 77.25730157 131.91389394 C72.52872872 131.90765209 67.80015531 131.90705594 63.07157898 131.90586853 C54.11497491 131.90275768 45.15838302 131.89454758 36.20178431 131.88451904 C26.00602163 131.87335029 15.81025838 131.86784553 5.61449111 131.86282361 C-15.3611794 131.85236478 -36.33683893 131.83477007 -57.3125 131.8125 C-57.34136338 127.33334672 -57.35925187 122.85421709 -57.375 118.375 C-57.38756836 116.4559082 -57.38756836 116.4559082 -57.40039062 114.49804688 C-57.40522461 112.67563477 -57.40522461 112.67563477 -57.41015625 110.81640625 C-57.41539307 109.69049072 -57.42062988 108.5645752 -57.42602539 107.40454102 C-57.3125 104.8125 -57.3125 104.8125 -56.3125 103.8125 C-54.78164161 103.71668178 -53.24636244 103.69061892 -51.71250916 103.69224548 C-50.71826431 103.69087082 -49.72401947 103.68949615 -48.699646 103.68807983 C-47.59985413 103.69167511 -46.50006226 103.69527039 -45.36694336 103.69897461 C-44.21587601 103.69882858 -43.06480865 103.69868256 -41.87886047 103.6985321 C-38.05333609 103.69923182 -34.22785969 103.70702698 -30.40234375 103.71484375 C-27.75818407 103.71670772 -25.11402404 103.71813172 -22.46986389 103.71913147 C-16.20834583 103.72224451 -9.94684514 103.73045752 -3.68533474 103.74048096 C3.44151537 103.75164295 10.5683663 103.75715276 17.69522297 103.76217639 C32.3593243 103.77264016 47.02341191 103.79023907 61.6875 103.8125 C61.66450308 99.97787711 61.58692611 96.14616448 61.5 92.3125 C61.49419922 91.23484375 61.48839844 90.1571875 61.48242188 89.046875 C61.29177597 82.09889101 60.35483981 77.13385643 55.6875 71.8125 C51.42100732 68.58661529 47.51760838 67.67483742 42.24536133 67.73413086 C40.93798759 67.74294533 40.93798759 67.74294533 39.60420227 67.75193787 C38.20104012 67.76451378 38.20104012 67.76451378 36.76953125 67.77734375 C34.77278132 67.77362953 32.7760345 67.76769939 30.77929688 67.75976562 C27.64297829 67.74923038 24.50893054 67.74989054 21.37280273 67.78833008 C1.66875433 68.00448214 1.66875433 68.00448214 -3.95703125 62.9296875 C-5.08208359 61.56266647 -6.20109967 60.19064316 -7.3125 58.8125 C-16.62069043 52.42842538 -26.84392351 49.85506897 -38.0234375 49.49609375 C-39.26738281 49.45419922 -40.51132812 49.41230469 -41.79296875 49.36914062 C-43.07816406 49.32982422 -44.36335938 49.29050781 -45.6875 49.25 C-46.99589844 49.20681641 -48.30429687 49.16363281 -49.65234375 49.11914062 C-52.87229797 49.01337571 -56.09232531 48.91128421 -59.3125 48.8125 C-59.50513428 48.21356934 -59.69776855 47.61463867 -59.89624023 46.99755859 C-61.81634989 41.08946856 -61.81634989 41.08946856 -64.375 35.4375 C-64.69597656 34.81101562 -65.01695312 34.18453125 -65.34765625 33.5390625 C-66.2549208 31.91553647 -67.28085222 30.35997167 -68.3125 28.8125 C-67.73700409 28.80663376 -67.16150818 28.80076752 -66.568573 28.79472351 C-60.56590288 28.73067164 -54.56376305 28.64622168 -48.56152344 28.55004883 C-46.32298789 28.51684334 -44.08436951 28.48879784 -41.84570312 28.46606445 C-38.62333961 28.43243855 -35.40173226 28.38011728 -32.1796875 28.32421875 C-30.68403763 28.31463387 -30.68403763 28.31463387 -29.15817261 28.30485535 C-23.8170276 28.19244601 -19.90155309 27.8529632 -15.3125 24.8125 C-11.88215871 20.93079801 -10.64473428 17.84385309 -10.92578125 12.765625 C-12.01391049 7.2700228 -15.96897308 3.94949166 -20.3125 0.8125 C-13.52562237 -0.15918953 -6.83522077 -0.2725445 0 0 Z " fill="#E19851" transform="translate(391.3125,380.1875)"/>
<path d="M0 0 C1.0209375 -0.01160156 1.0209375 -0.01160156 2.0625 -0.0234375 C4.58994877 0.49632011 5.36364247 1.40412921 7 3.375 C7.58081055 5.23291016 7.58081055 5.23291016 7.88671875 7.4140625 C8.08068237 8.71126221 8.08068237 8.71126221 8.27856445 10.03466797 C8.41351318 11.01322754 8.54846191 11.99178711 8.6875 13 C9.02701867 15.26586941 9.36833469 17.53146986 9.7109375 19.796875 C9.85397057 20.75779556 9.85397057 20.75779556 9.99989319 21.73812866 C18.39638495 78.07252217 27.65210624 134.55675641 49.04418945 187.6484375 C51.07234547 193.43399213 50.51492567 198.78003661 48.1796875 204.41796875 C44.97460633 209.73500738 39.86477647 213.52136344 34 215.375 C31.06352423 215.64065394 28.14560159 215.60807554 25.19921875 215.5703125 C23.9446563 215.56606766 23.9446563 215.56606766 22.66474915 215.56173706 C20.00551774 215.5505832 17.34662882 215.52548763 14.6875 215.5 C12.87956217 215.48996399 11.07161904 215.48083923 9.26367188 215.47265625 C4.84231688 215.45065959 0.42121642 215.41616294 -4 215.375 C-4 215.045 -4 214.715 -4 214.375 C0.62 214.045 5.24 213.715 10 213.375 C11.1845131 209.82146071 11.26641894 207.10486522 11 203.375 C9.16884793 200.75906847 8.09031634 200.40510545 5 199.375 C2.7019314 199.28182042 0.40150223 199.24326079 -1.8984375 199.234375 C-3.27866235 199.21604785 -4.65887115 199.19647762 -6.0390625 199.17578125 C-8.20730753 199.14682551 -10.37451782 199.12500011 -12.54296875 199.12451172 C-14.6415507 199.12116698 -16.73776808 199.08657137 -18.8359375 199.046875 C-20.08938965 199.0375293 -21.3428418 199.02818359 -22.63427734 199.01855469 C-26.89038377 198.20475108 -28.36628438 196.75657589 -31 193.375 C-31.87304656 189.2112395 -32.0126143 187.13942774 -29.90893555 183.47387695 C-25.75691319 178.94154486 -21.86630321 177.93041335 -15.938797 177.55950928 C-11.29048829 177.40936046 -6.65014272 177.40871753 -2 177.4375 C-0.06117399 177.42438012 1.87763354 177.40813484 3.81640625 177.38867188 C8.54482479 177.34797638 13.27149141 177.34992265 18 177.375 C17.10010999 174.90930139 16.18136455 172.45378738 15.25 170 C14.99734375 169.30132812 14.7446875 168.60265625 14.484375 167.8828125 C12.97977135 163.93285242 12.97977135 163.93285242 10.13623047 160.91333008 C7.54758355 160.26099105 5.24211208 160.13558143 2.5703125 160.13671875 C1.52746094 160.12060547 0.48460937 160.10449219 -0.58984375 160.08789062 C-2.77207645 160.07102438 -4.95443065 160.06573183 -7.13671875 160.07226562 C-16.08070165 159.90132637 -16.08070165 159.90132637 -19.69140625 157.08203125 C-22.42890422 153.8720717 -22.95761158 152.36038793 -23.171875 148.3046875 C-22.9067714 145.32829712 -21.92127434 143.62752853 -20 141.375 C-16.86131466 139.40796481 -14.46816709 139.13699806 -10.796875 139.1796875 C-9.32734375 139.18935547 -9.32734375 139.18935547 -7.828125 139.19921875 C-6.81234375 139.21597656 -5.7965625 139.23273438 -4.75 139.25 C-3.71875 139.25902344 -2.6875 139.26804688 -1.625 139.27734375 C0.91690287 139.30087989 3.4583328 139.33375977 6 139.375 C5.26712446 136.76488177 4.51479926 134.16326475 3.75 131.5625 C3.54503906 130.82451172 3.34007812 130.08652344 3.12890625 129.32617188 C2.15646434 126.06996488 1.48482878 123.86867961 -0.92578125 121.4140625 C-3.00229951 120.37384808 -4.65074962 119.90211639 -6.9375 119.5625 C-10.03710766 118.85567358 -11.8246835 118.03014854 -14 115.6875 C-16.33803352 111.81513198 -16.57656345 109.82277519 -16 105.375 C-15.15712242 102.77612747 -14.49709737 101.74322027 -12.3125 100.125 C-9.18138434 99.10950303 -6.27205643 99.32929025 -3 99.375 C-3.26554687 98.31925781 -3.53109375 97.26351562 -3.8046875 96.17578125 C-5.7703077 88.06664482 -7.34592977 80.02066122 -8.1171875 71.70703125 C-8.20071472 70.81186798 -8.28424194 69.91670471 -8.37030029 68.99441528 C-9.2035916 59.24836056 -9.30248733 49.51809102 -9.26074219 39.74169922 C-9.24988124 36.71692452 -9.26079178 33.69272729 -9.2734375 30.66796875 C-9.27211772 28.70312372 -9.26955911 26.73827904 -9.265625 24.7734375 C-9.26967346 23.88989594 -9.27372192 23.00635437 -9.27789307 22.09603882 C-9.15910902 6.03647327 -9.15910902 6.03647327 -5.5479126 1.58505249 C-3.59170868 0.05582569 -2.46217464 -0.02797926 0 0 Z " fill="#F0B261" transform="translate(256,-0.375)"/>
<path d="M0 0 C0.99 0.495 0.99 0.495 2 1 C1.34 1.66 0.68 2.32 0 3 C0.55852661 3.00142502 1.11705322 3.00285004 1.69250488 3.00431824 C7.53345132 3.02408524 13.37336253 3.07850764 19.21386719 3.15258789 C21.39022379 3.17570966 23.56669136 3.19014987 25.74316406 3.19555664 C28.88155813 3.20488855 32.01822074 3.24597343 35.15625 3.29296875 C36.60360535 3.28706978 36.60360535 3.28706978 38.0802002 3.28105164 C44.4139904 3.41623413 49.26091753 4.57775328 54 9 C61.43153459 19.75851342 57 57.75247927 57 59 C12.12 59 -32.76 59 -79 59 C-79 33.47368421 -79 33.47368421 -73.625 27.25 C-68.65169293 22.98716537 -64.44882324 20.84104056 -57.89331055 20.92163086 C-57.09535568 20.92750717 -56.29740082 20.93338348 -55.4752655 20.93943787 C-54.62104507 20.94782181 -53.76682465 20.95620575 -52.88671875 20.96484375 C-51.06314541 20.96113055 -49.23957548 20.9552015 -47.41601562 20.94726562 C-44.55159121 20.93671571 -41.68965655 20.93747112 -38.82543945 20.97583008 C-28.13501637 21.54506498 -28.13501637 21.54506498 -18.30957031 18.30615234 C-16.56754386 16.28973562 -15.29184088 14.32238846 -14 12 C-12.49360808 10.54588036 -10.9581538 9.12014765 -9.375 7.75 C-8.62089844 7.09515625 -7.86679688 6.4403125 -7.08984375 5.765625 C-4.76108238 3.7981481 -2.41075025 1.86638729 0 0 Z " fill="#FDE85A" transform="translate(97,425)"/>
<path d="M0 0 C9.8821295 4.94106475 17.24945618 12.96370673 20.875 23.4375 C21.96154427 27.70946673 22.01037491 31.87698506 21.98852539 36.25708008 C21.98867142 37.02834229 21.98881744 37.79960449 21.9889679 38.59423828 C21.98827378 41.131865 21.98050492 43.66941742 21.97265625 46.20703125 C21.97079029 47.97108419 21.96936723 49.73513764 21.96836853 51.49919128 C21.96455738 56.1335494 21.95473909 60.76787599 21.94366455 65.40222168 C21.9316179 70.96729633 21.92704151 76.53238155 21.92121124 82.09746552 C21.91152657 90.54416558 21.8923602 98.99079651 21.875 107.4375 C6.695 107.4375 -8.485 107.4375 -24.125 107.4375 C-24.28543524 87.91342292 -24.28543524 87.91342292 -24.3203125 79.53710938 C-24.34414615 73.84026021 -24.37222209 68.14367027 -24.42675781 62.44702148 C-24.4704879 57.84988899 -24.49419402 53.2530348 -24.50450897 48.65571022 C-24.51185191 46.90916379 -24.52618995 45.16263113 -24.54792023 43.41620445 C-24.71593148 29.3429538 -23.37061044 18.04190613 -13.125 7.4375 C-3.5266456 -0.93352384 -3.5266456 -0.93352384 0 0 Z " fill="#535F67" transform="translate(257.125,404.5625)"/>
<path d="M0 0 C13.43901491 -0.06780532 26.877916 -0.12283339 40.31706333 -0.15543652 C46.55755029 -0.1710852 52.79791403 -0.19230925 59.03833008 -0.22631836 C65.06187589 -0.25893973 71.08530325 -0.27685902 77.10893059 -0.28463173 C79.40581056 -0.2901702 81.70268414 -0.30098547 83.99951363 -0.31719017 C87.21930013 -0.33900092 90.43859864 -0.34196534 93.65844727 -0.34057617 C94.60575714 -0.351362 95.55306702 -0.36214783 96.52908325 -0.3732605 C103.50775567 -0.34072951 108.32163701 0.68686833 113.75 5.375 C122.80992212 15.94490914 119 18.8091947 119 37 C79.73 37 40.46 37 0 37 C0 24.79 0 12.58 0 0 Z " fill="#FBCB69" transform="translate(334,447)"/>
<path d="M0 0 C0.33 0 0.66 0 1 0 C1.029729 1.60717896 1.029729 1.60717896 1.06005859 3.24682617 C1.43194064 37.92788653 1.43194064 37.92788653 6.4140625 72.1640625 C7 75 7 75 7 78 C6.37351563 78.13277344 5.74703125 78.26554687 5.1015625 78.40234375 C3.87566406 78.66724609 3.87566406 78.66724609 2.625 78.9375 C1.40683594 79.19853516 1.40683594 79.19853516 0.1640625 79.46484375 C-2.029463 79.92330693 -2.029463 79.92330693 -4 81 C-5.20190901 84.60572704 -5.32670315 87.2102435 -5 91 C-3.39587376 94.20825248 -2.07026401 95.63731917 1.3515625 96.796875 C2.22554687 97.02890625 3.09953125 97.2609375 4 97.5 C7.24497925 98.37199883 8.83293797 98.85863982 11.4375 101.0625 C14.30650906 106.45623704 16 111.88211517 16 118 C15.03175293 118.029729 15.03175293 118.029729 14.04394531 118.06005859 C11.11222779 118.15546328 8.18120768 118.26507971 5.25 118.375 C4.23421875 118.4059375 3.2184375 118.436875 2.171875 118.46875 C1.1921875 118.50742188 0.2125 118.54609375 -0.796875 118.5859375 C-1.69760742 118.6173584 -2.59833984 118.6487793 -3.52636719 118.68115234 C-6.87538891 119.11283635 -9.17178117 119.9745862 -11.3125 122.625 C-12.33040683 126.14140541 -12.33440429 129.56675882 -11 133 C-8.75466134 135.74969119 -6.95115558 136.8672471 -3.42163086 137.35986328 C-0.2767221 137.51166694 2.85145064 137.56062139 6 137.5625 C8.14592878 137.57146271 10.29185049 137.59314542 12.4375 137.62890625 C13.38496094 137.62963135 14.33242188 137.63035645 15.30859375 137.63110352 C18.55064906 138.07547449 20.3905616 139.04369472 23 141 C24.31441648 143.5832133 25.34987669 145.922543 26.3125 148.625 C26.57611328 149.31851563 26.83972656 150.01203125 27.11132812 150.7265625 C29 155.74993912 29 155.74993912 29 157 C27.76435303 156.99887207 26.52870605 156.99774414 25.25561523 156.99658203 C20.6500105 157.0002664 16.04544643 157.04317851 11.44018555 157.09765625 C9.45099612 157.11577067 7.46168131 157.12339305 5.47241211 157.12011719 C2.60432797 157.11724695 -0.26118023 157.15269639 -3.12890625 157.1953125 C-4.45276085 157.1816716 -4.45276085 157.1816716 -5.80335999 157.16775513 C-11.4601881 157.2994756 -14.54906617 158.50004553 -18.74864197 162.31295776 C-20.25191819 164.33962832 -20.54700567 165.61762994 -20.6875 168.125 C-19.92148768 172.44252399 -19.43480114 173.43309294 -16 176 C-12.70079724 176.59370366 -12.70079724 176.59370366 -9.00390625 176.50390625 C-8.33334702 176.51332748 -7.66278778 176.52274872 -6.97190857 176.53245544 C-4.83512654 176.56105441 -2.69945768 176.56418625 -0.5625 176.5625 C1.57072451 176.56611604 3.70314013 176.57574381 5.8361969 176.60325623 C7.77404838 176.62768299 9.71214139 176.6299767 11.65014648 176.63110352 C16.23677012 177.13619704 18.78325162 178.78325162 22 182 C22.40887172 185.67984546 22.65105312 188.03393876 20.54174805 191.16381836 C16.82877722 193.84610187 13.44592211 193.79857049 8.95703125 194.00390625 C8.07399826 194.05449692 7.19096527 194.10508759 6.28117371 194.1572113 C4.41312334 194.25807537 2.54451786 194.34907498 0.67553711 194.4309082 C-2.16264933 194.56135781 -4.99487307 194.74056955 -7.83007812 194.92382812 C-9.65089276 195.01601074 -11.47185686 195.10529554 -13.29296875 195.19140625 C-14.5497065 195.2769149 -14.5497065 195.2769149 -15.83183289 195.364151 C-22.30151112 195.58461329 -26.77003162 193.79015088 -32 190 C-37.16257056 185.14645493 -39.64255159 180.75536162 -40.32421875 173.59375 C-40.26559415 167.46957255 -37.66680239 162.04930242 -35.4375 156.4375 C-16.270194 106.36718169 -7.47029196 52.88861429 0 0 Z " fill="#FCDA61" transform="translate(246,21)"/>
<path d="M0 0 C0.76425293 0.01796631 1.52850586 0.03593262 2.31591797 0.05444336 C7.49755434 0.31765735 10.54173025 1.45939639 14.6875 4.8125 C18.07426812 8.65083721 18.20021703 12.44904253 18.0390625 17.37890625 C17.17684959 23.34733564 13.17652725 26.31358987 8.6875 29.8125 C15.19344079 37.46249394 22.09003791 43.97491731 29.95922852 50.21533203 C43.3714444 60.87072717 43.3714444 60.87072717 44.6875 66.8125 C38.72862941 67.01134571 32.77171864 67.1559329 26.81030273 67.25195312 C24.78587172 67.29200569 22.76166952 67.3464671 20.73803711 67.41601562 C1.7350846 68.05241098 1.7350846 68.05241098 -3.91015625 62.95703125 C-5.05006768 61.58030003 -6.18462537 60.19910944 -7.3125 58.8125 C-16.62157151 52.42902485 -26.84323419 49.8550911 -38.0234375 49.49609375 C-39.26738281 49.45419922 -40.51132812 49.41230469 -41.79296875 49.36914062 C-43.07816406 49.32982422 -44.36335938 49.29050781 -45.6875 49.25 C-46.99589844 49.20681641 -48.30429687 49.16363281 -49.65234375 49.11914062 C-52.87229797 49.01337571 -56.09232531 48.91128421 -59.3125 48.8125 C-59.50513428 48.21356934 -59.69776855 47.61463867 -59.89624023 46.99755859 C-61.81634989 41.08946856 -61.81634989 41.08946856 -64.375 35.4375 C-64.69597656 34.81101562 -65.01695312 34.18453125 -65.34765625 33.5390625 C-66.2549208 31.91553647 -67.28085222 30.35997167 -68.3125 28.8125 C-67.73700409 28.80663376 -67.16150818 28.80076752 -66.568573 28.79472351 C-60.56590288 28.73067164 -54.56376305 28.64622168 -48.56152344 28.55004883 C-46.32298789 28.51684334 -44.08436951 28.48879784 -41.84570312 28.46606445 C-38.62333961 28.43243855 -35.40173226 28.38011728 -32.1796875 28.32421875 C-30.68403763 28.31463387 -30.68403763 28.31463387 -29.15817261 28.30485535 C-23.8170276 28.19244601 -19.90155309 27.8529632 -15.3125 24.8125 C-11.88215871 20.93079801 -10.64473428 17.84385309 -10.92578125 12.765625 C-12.01391049 7.2700228 -15.96897308 3.94949166 -20.3125 0.8125 C-13.52562237 -0.15918953 -6.83522077 -0.2725445 0 0 Z " fill="#D58344" transform="translate(391.3125,380.1875)"/>
<path d="M0 0 C1.24523437 0.01804687 2.49046875 0.03609375 3.7734375 0.0546875 C5.18496094 0.08949219 5.18496094 0.08949219 6.625 0.125 C5.34916797 2.91738709 4.00383583 4.92749205 1.875 7.125 C-2.30731645 11.85060756 -4.71948941 17.45404516 -7.375 23.125 C-8.035 24.445 -8.695 25.765 -9.375 27.125 C-13.005 24.485 -16.635 21.845 -20.375 19.125 C-31.05938527 24.83309624 -37.2936795 31.64902891 -41.375 43.125 C-42.16910765 45.93074866 -42.54590059 48.54301179 -42.69140625 51.453125 C-42.73330078 52.25234375 -42.77519531 53.0515625 -42.81835938 53.875 C-42.85767578 54.7 -42.89699219 55.525 -42.9375 56.375 C-43.00227539 57.63570313 -43.00227539 57.63570313 -43.06835938 58.921875 C-43.17408543 60.98940671 -43.27501295 63.05718281 -43.375 65.125 C-46.02322012 66.44911006 -47.86438194 66.14392401 -50.8203125 66.00390625 C-51.89667969 65.95556641 -52.97304687 65.90722656 -54.08203125 65.85742188 C-55.20996094 65.80134766 -56.33789062 65.74527344 -57.5 65.6875 C-58.63566406 65.63529297 -59.77132812 65.58308594 -60.94140625 65.52929688 C-63.75286631 65.39935544 -66.56399465 65.26438086 -69.375 65.125 C-69.49762207 64.43212891 -69.62024414 63.73925781 -69.74658203 63.02539062 C-69.91528809 62.11982422 -70.08399414 61.21425781 -70.2578125 60.28125 C-70.42168457 59.38212891 -70.58555664 58.48300781 -70.75439453 57.55664062 C-71.55858536 54.40568051 -72.73150271 52.99099809 -75.375 51.125 C-78.40760419 49.35013816 -80.64137287 48.86263915 -84.14355469 48.80615234 C-85.55456451 48.77634781 -85.55456451 48.77634781 -86.99407959 48.74594116 C-88.00150208 48.73438995 -89.00892456 48.72283875 -90.046875 48.7109375 C-91.08442932 48.69157135 -92.12198364 48.6722052 -93.190979 48.6522522 C-96.50223592 48.59251158 -99.81352771 48.5460927 -103.125 48.5 C-105.37110884 48.46181518 -107.61720312 48.42276315 -109.86328125 48.3828125 C-115.36705815 48.28681458 -120.87092288 48.20175084 -126.375 48.125 C-125.42148295 46.84037172 -124.46613235 45.55710427 -123.51000977 44.27441406 C-122.97819595 43.55964905 -122.44638214 42.84488403 -121.89845276 42.10845947 C-120.17563319 39.86543437 -118.33466537 37.85149018 -116.3125 35.875 C-115.68214844 35.25109375 -115.05179688 34.6271875 -114.40234375 33.984375 C-113.73332031 33.37078125 -113.06429687 32.7571875 -112.375 32.125 C-111.41170776 31.0887146 -111.41170776 31.0887146 -110.42895508 30.03149414 C-105.8720779 27.18677003 -101.7475605 27.65451458 -96.484375 27.76171875 C-94.30859366 27.76185322 -92.13281214 27.7611766 -89.95703125 27.75976562 C-86.5424755 27.78060702 -83.12863828 27.81244869 -79.71435547 27.8605957 C-76.4078878 27.8995882 -73.10351359 27.89544318 -69.796875 27.88671875 C-68.78719666 27.91352219 -67.77751831 27.94032562 -66.73724365 27.96794128 C-59.9269676 27.92145682 -56.41594607 26.39443835 -51.43048096 21.72712708 C-49.04054445 19.86431148 -47.37098064 19.4058901 -44.375 19.125 C-43.03312182 19.7742959 -41.70020503 20.44231862 -40.375 21.125 C-37.43831149 21.58355157 -37.43831149 21.58355157 -34.375 21.125 C-32.37602747 19.26245946 -32.37602747 19.26245946 -30.8125 16.6875 C-23.35513644 6.58629271 -12.76677707 -0.24088259 0 0 Z " fill="#F9C46A" transform="translate(222.375,380.875)"/>
<path d="M0 0 C1.88141716 0.02437952 3.76284138 0.04821873 5.64427185 0.07154846 C10.53498553 0.13361214 15.42556985 0.20288771 20.31616211 0.27380371 C25.33115883 0.34520103 30.34624542 0.40958678 35.36132812 0.47460938 C45.1563488 0.60261583 54.95124694 0.73826166 64.74609375 0.87890625 C62.93312172 2.08755427 61.10700028 3.27721097 59.2578125 4.4296875 C49.37104173 10.56545304 49.37104173 10.56545304 41.74609375 19.19140625 C39.15167008 22.79779098 39.15167008 22.79779098 35.62109375 23.50390625 C32.74609375 22.87890625 32.74609375 22.87890625 30.68359375 21.81640625 C27.97574964 20.5061591 26.6019521 21.0354825 23.74609375 21.87890625 C21.64219855 23.46981511 21.64219855 23.46981511 19.65185547 25.39160156 C14.31022236 29.70408489 9.9380008 29.83148572 3.25390625 29.67578125 C2.1861496 29.68095764 1.11839294 29.68613403 0.01828003 29.69146729 C-3.36507783 29.70329515 -6.74579788 29.66892877 -10.12890625 29.62890625 C-13.53289492 29.61016076 -16.9363297 29.60138971 -20.34036255 29.60919189 C-22.4516361 29.61187466 -24.56300855 29.59807045 -26.67404175 29.56610107 C-27.62578278 29.56330139 -28.5775238 29.56050171 -29.55810547 29.55761719 C-30.39477753 29.54760681 -31.23144958 29.53759644 -32.09347534 29.52728271 C-34.72667937 29.95585301 -35.59597945 30.84527776 -37.25390625 32.87890625 C-37.91390625 32.54890625 -38.57390625 32.21890625 -39.25390625 31.87890625 C-38.59390625 30.88890625 -37.93390625 29.89890625 -37.25390625 28.87890625 C-38.18203125 28.32203125 -39.11015625 27.76515625 -40.06640625 27.19140625 C-43.3852853 24.78359204 -44.77406798 23.66071515 -46.25390625 19.87890625 C-46.93816682 14.83565241 -46.82789245 11.04813741 -44.56640625 6.44140625 C-40.75114393 2.21368314 -37.54026759 0.57472771 -31.80154324 0.25329494 C-31.11043485 0.23037412 -30.41932646 0.20745329 -29.70727539 0.18383789 C-28.59634695 0.13356115 -28.59634695 0.13356115 -27.4629755 0.08226871 C-18.30999634 -0.28053415 -9.15620504 -0.14039619 0 0 Z " fill="#FDED57" transform="translate(149.25390625,380.12109375)"/>
<path d="M0 0 C40.83783784 0 40.83783784 0 56 13 C57.32 14.65 58.64 16.3 60 18 C40.53 18 21.06 18 1 18 C1.185625 23.713125 1.37125 29.42625 1.5625 35.3125 C2.0305823 51.26515793 1.91506736 67.05998309 1 83 C0.67 83 0.34 83 0 83 C0 55.61 0 28.22 0 0 Z " fill="#EEB05F" transform="translate(333,429)"/>
<path d="M0 0 C0.76425293 0.01796631 1.52850586 0.03593262 2.31591797 0.05444336 C7.49755434 0.31765735 10.54173025 1.45939639 14.6875 4.8125 C18.07320467 8.64963196 18.20041172 12.44651462 18.0390625 17.375 C17.51327497 21.02046018 16.13215904 23.1035535 13.6875 25.8125 C9.61292903 28.84800347 6.66649889 29.16967871 1.63671875 29.10546875 C0.97791214 29.10122391 0.31910553 29.09697906 -0.35966492 29.09260559 C-2.44853885 29.07591196 -4.53642139 29.03828058 -6.625 29 C-8.04751203 28.98494097 -9.4700393 28.97125469 -10.89257812 28.95898438 C-14.36620351 28.92604003 -17.83925487 28.87432408 -21.3125 28.8125 C-20.3225 28.1525 -19.3325 27.4925 -18.3125 26.8125 C-13.7937038 23.58059087 -13.7937038 23.58059087 -11.3125 18.8125 C-10.85260817 14.0602844 -10.79171149 11.81550009 -13 7.5625 C-15.24510171 4.89264932 -17.49019896 2.85082853 -20.3125 0.8125 C-13.52562237 -0.15918953 -6.83522077 -0.2725445 0 0 Z " fill="#DA8C49" transform="translate(391.3125,380.1875)"/>
</svg>
