<?xml version="1.0" standalone="no"?>
<!DOCTYPE svg PUBLIC "-//W3C//DTD SVG 20010904//EN"
 "http://www.w3.org/TR/2001/REC-SVG-20010904/DTD/svg10.dtd">
<svg version="1.0" xmlns="http://www.w3.org/2000/svg"
 width="512.000000pt" height="512.000000pt" viewBox="0 0 512.000000 512.000000"
 preserveAspectRatio="xMidYMid meet">

<g transform="translate(0.000000,512.000000) scale(0.100000,-0.100000)"
fill="#000000" stroke="none">
<path d="M1545 4629 c-91 -12 -230 -51 -328 -94 -138 -59 -242 -131 -367 -255
-154 -152 -231 -272 -299 -462 -69 -197 -66 -145 -66 -1258 0 -927 1 -1011 18
-1088 56 -261 173 -470 362 -649 154 -147 313 -238 516 -297 158 -45 220 -47
1244 -43 1059 4 999 0 1193 69 183 64 331 159 468 300 137 140 220 273 283
450 69 197 66 145 66 1258 0 927 -1 1011 -18 1088 -55 256 -171 466 -355 643
-140 136 -266 215 -444 277 -195 69 -130 66 -1218 68 -542 1 -1016 -2 -1055
-7z m2030 -324 c171 -30 321 -106 453 -229 132 -125 217 -266 265 -440 l22
-81 0 -995 c0 -993 0 -995 -22 -1075 -75 -275 -269 -501 -523 -611 -167 -73
-103 -69 -1210 -69 -993 0 -995 0 -1075 22 -165 45 -313 132 -426 250 -118
123 -187 245 -231 405 l-23 83 0 995 0 995 23 83 c80 295 304 538 583 632 138
48 149 48 1140 49 797 1 949 -1 1024 -14z"/>
<path d="M2415 3985 c-411 -76 -699 -468 -647 -879 64 -510 584 -831 1063
-656 414 151 629 610 479 1021 -134 367 -513 585 -895 514z m260 -320 c256
-67 415 -329 350 -578 -45 -173 -178 -307 -350 -352 -251 -65 -513 94 -580
350 -89 343 237 669 580 580z"/>
<path d="M1976 2275 c-343 -70 -625 -298 -752 -610 -18 -44 -50 -147 -70 -230
-44 -178 -42 -209 15 -266 64 -65 158 -65 221 -1 34 34 40 50 73 187 51 212
93 293 211 410 74 74 107 99 176 132 149 72 155 73 706 73 398 0 501 -3 552
-15 179 -42 332 -149 433 -303 50 -77 82 -163 123 -332 35 -142 71 -187 158
-197 80 -9 157 50 174 133 6 30 -47 256 -86 368 -85 247 -308 483 -555 585
-183 76 -169 75 -770 77 -428 2 -554 0 -609 -11z"/>
</g>
</svg>
