<?xml version="1.0" standalone="no"?>
<!DOCTYPE svg PUBLIC "-//W3C//DTD SVG 20010904//EN"
 "http://www.w3.org/TR/2001/REC-SVG-20010904/DTD/svg10.dtd">
<svg version="1.0" xmlns="http://www.w3.org/2000/svg"
 width="512.000000pt" height="512.000000pt" viewBox="0 0 512.000000 512.000000"
 preserveAspectRatio="xMidYMid meet">

<g transform="translate(0.000000,512.000000) scale(0.100000,-0.100000)"
fill="#000000" stroke="none">
<path d="M1909 4953 c-10 -2 -58 -52 -108 -109 -85 -99 -91 -109 -91 -150 l0
-45 -45 26 c-71 42 -100 34 -160 -47 -27 -36 -65 -92 -84 -123 l-34 -56 34
-177 c29 -150 38 -181 60 -207 26 -29 26 -32 12 -59 -14 -27 -11 -49 43 -334
48 -250 56 -306 44 -310 -8 -3 -24 -15 -37 -28 l-23 -23 0 -1551 0 -1551 25
-24 24 -25 991 0 991 0 24 25 25 24 0 1548 c0 1702 4 1583 -59 1600 l-28 8
113 395 c62 217 114 405 114 418 0 13 -5 32 -11 44 -9 17 -6 24 20 47 26 22
37 49 76 186 25 88 45 172 45 188 0 34 -113 241 -143 262 -12 8 -30 15 -41 15
-23 0 -239 -115 -259 -139 -16 -17 -107 -327 -107 -361 0 -12 5 -30 11 -42 9
-17 6 -24 -20 -47 -29 -24 -40 -57 -150 -446 l-120 -420 0 369 -1 369 40 43
c28 31 40 52 40 74 0 22 -12 43 -40 74 l-40 43 0 125 0 124 40 39 40 39 40
-39 c33 -32 40 -46 40 -77 0 -49 35 -88 80 -88 19 0 40 9 55 25 22 21 25 33
25 97 l0 72 -103 103 c-90 90 -107 103 -137 103 -30 0 -47 -13 -137 -103
l-103 -103 0 -191 c0 -177 1 -192 21 -217 l20 -26 -20 -26 c-21 -26 -21 -37
-21 -480 l0 -454 -40 0 -40 0 0 454 c0 443 0 454 -21 480 l-20 26 20 26 c20
25 21 40 21 217 l0 191 -103 103 c-90 90 -107 103 -137 103 -30 0 -47 -13
-137 -103 l-103 -103 0 -191 c0 -177 1 -192 21 -217 l20 -26 -20 -26 c-21 -26
-21 -37 -21 -480 0 -447 0 -454 -20 -454 -14 0 -20 7 -20 23 0 12 -14 211 -30
442 -16 231 -30 428 -30 437 0 9 -11 29 -24 45 l-24 27 20 27 c19 25 19 33 7
210 l-12 184 -61 60 c-120 118 -172 151 -217 138z m83 -230 c37 -38 37 -39 47
-158 9 -112 8 -122 -10 -145 -11 -14 -27 -37 -36 -51 l-16 -25 -44 41 -44 42
-9 114 c-5 63 -10 120 -10 126 0 14 68 93 79 93 4 0 23 -17 43 -37z m610 0
l38 -37 0 -126 -1 -125 -39 -42 -40 -42 -40 42 -39 42 -1 125 0 124 37 38 c20
21 39 38 42 38 3 0 22 -17 43 -37z m1080 -42 l26 -48 -24 -84 c-13 -46 -29
-100 -34 -120 -8 -28 -22 -44 -65 -72 -44 -28 -55 -32 -55 -19 0 9 -9 32 -20
50 -11 18 -20 38 -20 45 0 6 14 64 32 128 l32 115 45 27 c26 14 48 26 51 26 3
1 17 -21 32 -48z m-2030 -187 c17 -9 38 -14 48 -11 21 5 30 -17 30 -80 0 -29
7 -50 24 -69 23 -28 23 -28 4 -59 -18 -32 -18 -39 12 -463 16 -236 30 -435 30
-441 0 -15 -37 -14 -42 2 -3 6 -29 139 -58 294 l-54 281 27 41 c16 24 27 54
27 75 0 34 -16 53 -78 96 -17 12 -25 37 -43 136 l-22 122 29 46 c16 25 30 46
32 46 2 0 17 -7 34 -16z m439 -687 c16 -221 29 -412 29 -424 0 -22 -4 -23 -80
-23 l-80 0 -1 28 c0 15 -13 203 -28 417 l-28 390 26 33 c14 19 30 42 35 51 8
15 15 12 54 -26 l45 -44 28 -402z m508 441 l40 -43 1 -422 0 -423 -80 0 -80 0
0 421 0 422 38 42 c20 24 38 44 39 44 1 1 20 -18 42 -41z m971 -81 c0 -7 -50
-191 -112 -409 l-112 -398 -84 0 c-63 0 -83 3 -80 13 3 6 58 199 123 427 l118
415 51 30 51 30 23 -48 c12 -27 22 -54 22 -60z m-130 -1187 l0 -220 -880 0
-880 0 0 220 0 220 880 0 880 0 0 -220z m0 -340 l0 -40 -880 0 -880 0 0 40 0
40 880 0 880 0 0 -40z m0 -320 l0 -200 -880 0 -880 0 0 200 0 200 880 0 880 0
0 -200z m0 -320 l0 -40 -880 0 -880 0 0 40 0 40 880 0 880 0 0 -40z m0 -900
l0 -780 -880 0 -880 0 0 780 0 780 880 0 880 0 0 -780z"/>
<path d="M1011 4906 c-19 -22 -10 -126 12 -140 32 -20 52 4 55 68 3 61 -8 86
-38 86 -10 0 -23 -6 -29 -14z"/>
<path d="M772 4668 c-16 -16 -15 -43 2 -57 22 -19 126 -10 140 12 8 12 8 22 0
35 -14 21 -122 30 -142 10z"/>
<path d="M1172 4668 c-16 -16 -15 -43 2 -57 22 -19 126 -10 140 12 8 12 8 22
0 35 -14 21 -122 30 -142 10z"/>
<path d="M1011 4506 c-19 -22 -10 -126 12 -140 32 -20 52 4 55 68 3 61 -8 86
-38 86 -10 0 -23 -6 -29 -14z"/>
<path d="M4211 4016 c-19 -22 -10 -126 12 -140 32 -20 52 4 55 68 3 61 -8 86
-38 86 -10 0 -23 -6 -29 -14z"/>
<path d="M995 3951 c-45 -20 -70 -60 -70 -112 0 -42 5 -53 33 -81 28 -28 39
-33 82 -33 43 0 54 5 82 33 28 28 33 39 33 82 0 42 -5 54 -31 81 -33 33 -92
46 -129 30z m75 -86 c26 -32 -13 -81 -47 -59 -35 22 -23 74 17 74 10 0 23 -7
30 -15z"/>
<path d="M3972 3778 c-16 -16 -15 -43 2 -57 22 -19 126 -10 140 12 8 12 8 22
0 35 -14 21 -122 30 -142 10z"/>
<path d="M4372 3778 c-16 -16 -15 -43 2 -57 22 -19 126 -10 140 12 8 12 8 22
0 35 -14 21 -122 30 -142 10z"/>
<path d="M4211 3616 c-19 -22 -10 -126 12 -140 32 -20 52 4 55 68 3 61 -8 86
-38 86 -10 0 -23 -6 -29 -14z"/>
<path d="M691 3066 c-19 -22 -10 -126 12 -140 32 -20 52 4 55 68 3 61 -8 86
-38 86 -10 0 -23 -6 -29 -14z"/>
<path d="M4515 3061 c-61 -27 -89 -103 -61 -163 36 -75 129 -89 190 -29 26 27
31 39 31 81 0 42 -5 54 -31 81 -33 33 -92 46 -129 30z m75 -86 c26 -32 -13
-81 -47 -59 -35 22 -23 74 17 74 10 0 23 -7 30 -15z"/>
<path d="M452 2828 c-16 -16 -15 -43 2 -57 22 -19 126 -10 140 12 8 12 8 22 0
35 -14 21 -122 30 -142 10z"/>
<path d="M852 2828 c-16 -16 -15 -43 2 -57 22 -19 126 -10 140 12 8 12 8 22 0
35 -14 21 -122 30 -142 10z"/>
<path d="M691 2666 c-19 -22 -10 -126 12 -140 32 -20 52 4 55 68 3 61 -8 86
-38 86 -10 0 -23 -6 -29 -14z"/>
<path d="M3971 2586 c-19 -22 -10 -126 12 -140 32 -20 52 4 55 68 3 61 -8 86
-38 86 -10 0 -23 -6 -29 -14z"/>
<path d="M3732 2348 c-16 -16 -15 -43 2 -57 22 -19 126 -10 140 12 8 12 8 22
0 35 -14 21 -122 30 -142 10z"/>
<path d="M4132 2348 c-16 -16 -15 -43 2 -57 22 -19 126 -10 140 12 8 12 8 22
0 35 -14 21 -122 30 -142 10z"/>
<path d="M3971 2186 c-19 -22 -10 -126 12 -140 32 -20 52 4 55 68 3 61 -8 86
-38 86 -10 0 -23 -6 -29 -14z"/>
</g>
</svg>
