<?xml version="1.0" standalone="no"?>
<!DOCTYPE svg PUBLIC "-//W3C//DTD SVG 20010904//EN"
 "http://www.w3.org/TR/2001/REC-SVG-20010904/DTD/svg10.dtd">
<svg version="1.0" xmlns="http://www.w3.org/2000/svg"
 width="512.000000pt" height="512.000000pt" viewBox="0 0 512.000000 512.000000"
 preserveAspectRatio="xMidYMid meet">

<g transform="translate(0.000000,512.000000) scale(0.100000,-0.100000)"
fill="#000000" stroke="none">
<path d="M2390 5105 c-37 -8 -110 -37 -170 -68 -132 -68 -181 -84 -298 -97
-215 -24 -343 -102 -465 -285 -89 -134 -119 -168 -212 -235 -130 -94 -207
-200 -240 -328 -8 -31 -19 -120 -23 -197 -8 -119 -13 -150 -37 -205 -58 -137
-77 -203 -82 -295 -7 -110 19 -218 73 -309 54 -92 84 -173 95 -261 34 -270
110 -396 317 -524 102 -62 154 -112 236 -225 27 -38 75 -87 107 -111 l58 -42
-112 -6 c-196 -9 -339 -71 -471 -203 -83 -83 -136 -168 -173 -279 l-27 -80 -4
-378 -3 -378 23 -20 c189 -165 485 -334 763 -437 96 -36 253 -82 277 -82 4 0
8 306 8 680 l0 680 530 0 530 0 0 -680 c0 -374 4 -680 8 -680 27 0 186 48 300
91 254 94 469 215 685 384 l76 60 1 342 c0 368 -6 435 -53 550 -49 119 -146
238 -261 315 -115 79 -253 118 -419 118 l-92 0 55 23 c118 48 206 131 293 272
62 100 98 139 206 219 163 120 241 271 241 464 0 110 23 214 70 322 86 195 78
374 -24 550 -56 97 -83 182 -96 301 -5 53 -16 115 -25 138 -48 136 -140 245
-276 326 -98 57 -176 128 -229 206 -105 154 -281 248 -465 249 -105 1 -209 23
-321 68 -156 63 -245 74 -374 47z m440 -398 c305 -79 566 -289 704 -566 92
-183 126 -335 126 -563 0 -142 -1 -148 -20 -148 -12 0 -24 10 -30 23 -8 21 -9
20 -7 -5 1 -23 6 -28 28 -28 l27 0 -5 -127 c-2 -71 -9 -164 -15 -208 -6 -44
-11 -90 -10 -102 0 -12 -6 -24 -13 -26 -8 -4 -11 4 -9 21 l4 27 -8 -25 c-4
-14 -16 -27 -27 -29 -24 -4 -48 -28 -40 -40 3 -5 17 1 31 14 15 14 31 22 36
19 4 -3 -5 -18 -22 -34 -16 -15 -30 -32 -30 -37 0 -4 8 2 18 15 20 25 76 42
116 35 76 -15 102 -104 47 -165 -40 -44 -93 -45 -143 -3 -20 17 -40 39 -45 49
-9 18 -10 18 -16 2 -5 -11 -3 -15 5 -10 8 5 9 2 5 -9 -16 -40 -17 -50 -3 -27
10 16 15 19 16 10 0 -21 -81 -161 -132 -227 -43 -57 -185 -193 -200 -193 -5 0
-7 4 -4 8 2 4 0 14 -5 22 -7 11 -8 8 -5 -11 2 -14 1 -30 -2 -35 -8 -11 -53
-38 -102 -62 -19 -9 -41 -23 -48 -29 -7 -7 -19 -13 -25 -13 -7 0 -24 -6 -39
-14 -35 -18 -101 -41 -112 -38 -4 2 -15 -3 -23 -10 -25 -20 -263 -15 -315 7
-125 51 -147 62 -141 68 3 4 -2 7 -13 7 -27 0 -129 54 -158 83 -10 9 -34 30
-54 45 -55 41 -97 93 -95 116 1 16 0 16 -3 4 -3 -10 -9 -18 -12 -18 -9 1 -66
81 -68 95 0 6 -2 18 -2 28 -1 9 -7 17 -13 17 -6 0 -8 -7 -5 -17 4 -10 -7 -2
-25 17 -24 26 -32 44 -32 75 0 22 -2 32 -5 23 -3 -16 -5 -16 -18 -4 -8 8 -14
19 -14 25 0 11 -20 52 -31 61 -3 3 -13 37 -23 75 -9 39 -22 88 -27 110 -20 75
-26 134 -16 138 6 2 3 18 -7 39 -15 31 -16 65 -13 284 3 137 9 276 15 309 17
98 39 187 56 235 35 92 36 101 18 91 -42 -23 -172 -155 -224 -227 -57 -80
-115 -185 -148 -272 l-19 -47 0 90 c-1 176 50 386 130 535 161 299 438 500
779 565 116 22 339 13 460 -18z m-1373 -1323 c-3 -3 -12 -4 -19 -1 -8 3 -5 6
6 6 11 1 17 -2 13 -5z m-13 -20 c-8 -3 -10 -20 -7 -44 4 -26 2 -40 -6 -40 -6
0 -11 -5 -11 -11 0 -5 4 -8 9 -5 5 3 12 -25 15 -62 14 -145 39 -267 58 -280
43 -31 58 -56 58 -97 0 -57 -43 -100 -101 -100 -34 0 -46 6 -70 33 -32 36 -39
93 -14 126 16 21 13 112 -4 129 -14 14 -14 180 -1 193 5 5 11 30 13 55 5 63
32 110 62 108 6 0 5 -3 -1 -5z"/>
<path d="M2647 4314 c-10 -11 5 -101 24 -141 23 -47 100 -129 132 -139 20 -6
20 -7 -4 -20 -20 -12 -21 -13 -4 -11 11 1 25 5 30 9 6 3 35 2 65 -3 30 -4 63
-8 73 -8 9 -1 17 -8 17 -16 0 -8 12 -17 28 -20 15 -4 35 -10 44 -16 23 -12 31
-12 23 1 -3 5 -24 14 -45 20 -22 6 -40 15 -40 20 0 15 2 15 75 -22 17 -8 29
-20 27 -27 -1 -7 2 -10 8 -6 6 3 21 -2 35 -13 14 -11 42 -23 62 -27 46 -8 83
-32 62 -39 -8 -2 -21 -7 -29 -10 -8 -2 16 -3 55 0 80 6 98 14 34 15 l-44 1 39
9 c56 13 59 21 6 15 -35 -4 -38 -4 -15 3 17 4 47 18 67 30 46 28 43 37 -39
107 -182 158 -398 254 -645 287 -20 3 -38 3 -41 1z"/>
<path d="M2375 4290 c-27 -7 -27 -8 -5 -8 14 0 36 4 50 8 20 6 21 8 5 8 -11 0
-33 -4 -50 -8z"/>
<path d="M2285 4280 c-13 -6 -15 -9 -5 -9 8 0 22 4 30 9 18 12 2 12 -25 0z"/>
<path d="M2380 4270 c-14 -4 -19 -8 -11 -9 8 -1 12 -4 8 -7 -3 -4 -19 -2 -35
4 -23 8 -29 7 -29 -4 0 -8 10 -14 24 -14 13 0 23 -4 23 -10 0 -5 5 -10 11 -10
5 0 7 5 4 10 -4 6 6 10 22 10 20 0 24 3 14 9 -10 7 -2 12 30 19 l44 10 -40 0
c-22 0 -51 -4 -65 -8z"/>
<path d="M2250 4260 c8 -5 24 -10 34 -10 26 0 18 6 -19 14 -22 5 -26 4 -15 -4z"/>
<path d="M2458 4253 c7 -3 16 -2 19 1 4 3 -2 6 -13 5 -11 0 -14 -3 -6 -6z"/>
<path d="M2055 4195 c-34 -17 -41 -22 -21 -18 17 3 27 2 23 -3 -3 -5 13 -10
36 -10 27 -1 35 1 23 6 -19 6 -19 7 0 14 11 4 20 3 22 -3 2 -6 8 -9 13 -6 5 4
3 12 -4 20 -10 11 -16 11 -35 -1 -13 -9 -31 -13 -40 -11 -12 2 -7 8 18 19 19
9 31 17 25 17 -5 0 -32 -10 -60 -24z"/>
<path d="M2630 4199 c-11 -8 -12 -12 -2 -16 6 -2 12 -14 13 -26 0 -13 3 -16 6
-8 5 11 7 11 14 0 6 -9 9 -10 9 -2 0 6 -7 19 -16 27 -8 9 -12 20 -9 26 8 13 4
12 -15 -1z"/>
<path d="M1938 4134 c-16 -8 -28 -22 -28 -30 0 -11 -5 -14 -17 -10 -10 4 -14
4 -10 0 4 -5 26 -9 49 -10 24 -1 36 1 28 6 -9 6 -8 10 6 19 24 14 -1 15 -27 1
-13 -7 -19 -7 -19 -1 0 6 11 13 25 17 14 3 25 10 25 15 0 11 1 11 -32 -7z"/>
<path d="M2654 4100 c1 -9 12 -15 28 -15 16 -1 35 -11 46 -25 11 -14 22 -23
25 -20 3 3 -12 22 -34 44 -26 26 -39 33 -39 22 0 -19 -17 -21 -23 -3 -2 7 -3
6 -3 -3z"/>
<path d="M1875 4027 c-4 -10 -5 -21 -1 -24 10 -10 18 4 13 24 -4 17 -4 17 -12
0z"/>
<path d="M2726 4011 c-4 -5 3 -7 14 -4 23 6 26 13 6 13 -8 0 -17 -4 -20 -9z"/>
<path d="M1825 3918 c-3 -13 -1 -36 4 -53 7 -26 8 -23 7 22 -1 59 -3 64 -11
31z"/>
<path d="M2975 3930 c-4 -7 3 -8 22 -4 38 9 42 14 10 14 -14 0 -29 -5 -32 -10z"/>
<path d="M3040 3929 c0 -5 9 -9 20 -9 11 0 20 2 20 4 0 2 -9 6 -20 9 -11 3
-20 1 -20 -4z"/>
<path d="M3406 3893 c-12 -13 -5 -31 18 -47 14 -9 27 -12 30 -8 6 9 -40 63
-48 55z"/>
<path d="M3192 3865 c-16 -19 -3 -19 22 0 14 11 16 15 5 15 -8 -1 -20 -7 -27
-15z"/>
<path d="M3040 3850 c0 -5 7 -10 16 -10 8 0 12 5 9 10 -3 6 -10 10 -16 10 -5
0 -9 -4 -9 -10z"/>
<path d="M1800 3826 c0 -8 5 -18 10 -21 6 -3 10 3 10 14 0 12 -4 21 -10 21 -5
0 -10 -6 -10 -14z"/>
<path d="M2160 3825 c0 -8 9 -15 20 -15 13 0 20 6 19 18 0 10 -3 12 -6 5 -2
-7 -9 -13 -14 -13 -6 0 -7 5 -4 10 3 6 1 10 -4 10 -6 0 -11 -7 -11 -15z"/>
<path d="M3080 3806 c0 -10 -12 -30 -27 -43 -22 -21 -30 -23 -50 -14 -13 6
-29 11 -36 11 -7 0 21 -15 62 -32 62 -26 77 -29 94 -19 12 8 22 9 26 3 3 -5
17 -13 30 -17 l25 -8 -27 25 c-19 18 -34 24 -53 20 -20 -3 -23 -7 -12 -14 9
-7 5 -8 -12 -4 -14 3 -29 6 -35 7 -5 0 -1 5 10 10 16 7 14 8 -10 4 l-30 -5 24
20 c13 11 31 20 41 20 10 0 20 9 23 21 4 16 2 19 -10 14 -9 -3 -20 0 -25 7 -5
9 -8 8 -8 -6z"/>
<path d="M3490 3806 c0 -8 5 -18 10 -21 6 -3 10 1 10 9 0 8 -4 18 -10 21 -5 3
-10 -1 -10 -9z"/>
<path d="M3460 3801 c0 -17 12 -41 20 -41 10 0 1 38 -11 46 -5 3 -9 1 -9 -5z"/>
<path d="M1791 3774 c0 -11 3 -14 6 -6 3 7 2 16 -1 19 -3 4 -6 -2 -5 -13z"/>
<path d="M1816 3761 c-4 -5 -2 -20 3 -33 9 -21 10 -21 10 10 1 32 -3 39 -13
23z"/>
<path d="M2128 3763 c6 -2 18 -2 25 0 6 3 1 5 -13 5 -14 0 -19 -2 -12 -5z"/>
<path d="M3161 3761 c-11 -7 -9 -10 8 -16 13 -4 25 -4 28 -1 4 3 -2 6 -13 7
-18 0 -18 1 1 9 13 6 15 9 5 9 -8 0 -21 -3 -29 -8z"/>
<path d="M2025 3744 c-23 -10 -25 -13 -10 -13 21 -1 53 15 45 22 -3 2 -18 -2
-35 -9z"/>
<path d="M1793 3715 c0 -22 2 -30 4 -17 2 12 2 30 0 40 -3 9 -5 -1 -4 -23z"/>
<path d="M2072 3735 c-5 -10 -24 -17 -50 -18 -23 0 -36 -4 -30 -8 7 -4 26 -6
43 -3 28 4 28 4 6 -6 -13 -5 -37 -20 -54 -32 -26 -19 -30 -19 -24 -4 4 11 3
15 -4 11 -6 -4 -8 -13 -5 -20 3 -8 -4 -33 -15 -56 -19 -37 -19 -47 -9 -86 7
-24 17 -46 21 -49 16 -10 9 -23 -8 -17 -10 3 -15 3 -11 -1 3 -4 12 -9 20 -10
7 -1 24 -8 38 -16 14 -8 39 -20 55 -27 25 -10 26 -12 8 -12 -12 -1 -29 -4 -39
-8 -13 -5 -15 -3 -9 7 5 9 4 11 -3 6 -24 -15 -10 -23 37 -22 34 1 47 5 44 14
-3 8 4 12 21 12 36 0 79 23 105 56 12 15 21 22 21 16 0 -6 -7 -17 -15 -26 -8
-8 -15 -17 -15 -20 0 -3 7 -3 15 0 22 9 18 -5 -7 -28 l-23 -20 25 15 c21 12
25 22 27 68 2 70 7 92 21 97 7 2 12 13 12 25 -1 19 -2 20 -10 5 -6 -9 -25 -21
-44 -28 -57 -18 -106 14 -106 70 0 29 30 78 49 83 9 1 -6 8 -32 15 -26 7 -45
17 -42 22 3 6 4 10 1 10 -3 0 -9 -7 -14 -15z m28 -25 c0 -5 -4 -10 -10 -10 -5
0 -10 5 -10 10 0 6 5 10 10 10 6 0 10 -4 10 -10z m37 -6 c-3 -3 -12 -4 -19 -1
-8 3 -5 6 6 6 11 1 17 -2 13 -5z"/>
<path d="M2118 3737 c-9 -6 -6 -7 9 -4 12 3 23 1 25 -3 2 -5 11 -3 20 4 15 11
14 13 -12 13 -16 0 -35 -4 -42 -10z"/>
<path d="M3527 3743 c-4 -3 -7 -11 -7 -17 0 -6 5 -5 12 2 6 6 9 14 7 17 -3 3
-9 2 -12 -2z"/>
<path d="M2193 3733 c-21 -8 -15 -21 17 -32 18 -6 28 -6 25 -1 -4 6 -13 10
-22 10 -13 0 -13 3 -3 15 12 15 6 18 -17 8z"/>
<path d="M3543 3710 c-3 -11 -9 -20 -13 -20 -12 0 7 -62 22 -72 19 -12 58 -10
58 3 0 6 -9 9 -20 6 -22 -6 -54 19 -44 34 8 13 14 69 8 69 -3 0 -8 -9 -11 -20z"/>
<path d="M2967 3713 c-3 -5 8 -8 26 -6 31 4 31 3 -6 -11 -81 -30 -107 -78
-105 -188 1 -52 5 -71 19 -84 23 -20 26 -9 4 12 -8 9 -15 20 -15 25 0 6 11 -3
25 -20 47 -55 151 -67 212 -23 29 21 33 22 59 22 8 0 12 5 9 10 -5 8 -11 7
-21 -1 -19 -15 -18 -6 4 33 10 18 17 39 14 46 -2 7 2 21 10 30 8 9 18 24 22
32 4 8 -1 5 -12 -7 -26 -29 -67 -45 -98 -37 -49 13 -70 77 -38 122 14 21 14
23 -13 33 -43 16 -90 22 -96 12z"/>
<path d="M2910 3685 c-7 -8 -15 -13 -19 -11 -3 2 -7 -8 -8 -22 -1 -26 -1 -26
14 -7 31 43 42 75 13 40z"/>
<path d="M1929 3678 c-4 -11 -7 -79 -3 -75 6 6 13 77 8 77 -2 0 -4 -1 -5 -2z"/>
<path d="M2256 3667 c3 -10 9 -15 12 -12 3 3 0 11 -7 18 -10 9 -11 8 -5 -6z"/>
<path d="M2280 3670 c0 -15 39 -72 40 -58 0 4 -9 22 -20 40 -11 18 -20 26 -20
18z"/>
<path d="M2392 3660 c0 -14 2 -19 5 -12 2 6 2 18 0 25 -3 6 -5 1 -5 -13z"/>
<path d="M3236 3660 c4 -14 11 -26 15 -28 5 -2 9 -11 10 -20 0 -11 3 -9 10 7
5 13 7 26 4 29 -3 3 -5 -1 -5 -9 0 -12 -2 -12 -10 1 -5 9 -5 19 2 27 7 9 7 13
-1 13 -6 0 -11 -6 -11 -12 0 -9 -4 -8 -11 2 -8 11 -9 9 -3 -10z"/>
<path d="M3565 3660 c3 -5 11 -10 16 -10 6 0 7 5 4 10 -3 6 -11 10 -16 10 -6
0 -7 -4 -4 -10z"/>
<path d="M2268 3622 c-4 -13 -2 -19 6 -16 8 3 12 -5 10 -24 -2 -30 13 -55 35
-60 9 -2 11 3 7 13 -3 9 -6 22 -6 28 0 7 -4 6 -10 -3 -7 -11 -10 -8 -10 16 0
16 -6 38 -13 49 -13 17 -14 17 -19 -3z"/>
<path d="M3344 3609 c-3 -6 -1 -16 5 -22 8 -8 11 -5 11 11 0 24 -5 28 -16 11z"/>
<path d="M3240 3591 c0 -11 -4 -23 -10 -26 -5 -3 -10 -16 -10 -28 1 -17 4 -15
17 13 8 19 17 30 20 23 2 -7 -1 -22 -8 -35 -11 -20 -11 -22 3 -10 12 9 17 10
20 1 2 -7 9 -5 18 7 14 16 13 17 -2 11 -14 -5 -18 -1 -18 14 0 11 -7 27 -15
35 -13 14 -15 13 -15 -5z"/>
<path d="M2360 3585 c0 -8 4 -15 8 -15 5 0 9 7 9 15 0 8 -4 15 -9 15 -4 0 -8
-7 -8 -15z"/>
<path d="M3607 3586 c-10 -26 -7 -44 4 -21 6 15 8 8 5 -25 -2 -25 -1 -34 1
-21 4 19 7 21 14 10 14 -22 11 9 -5 46 -10 25 -13 27 -19 11z"/>
<path d="M2265 3530 c-3 -5 -1 -10 4 -10 6 0 11 5 11 10 0 6 -2 10 -4 10 -3 0
-8 -4 -11 -10z"/>
<path d="M3631 3498 c1 -7 5 -24 9 -38 8 -24 8 -24 9 7 1 17 -3 35 -9 38 -5 3
-10 0 -9 -7z"/>
<path d="M3621 3454 c0 -11 3 -14 6 -6 3 7 2 16 -1 19 -3 4 -6 -2 -5 -13z"/>
<path d="M3563 3410 c3 -65 17 -65 17 0 0 28 -4 50 -9 50 -5 0 -9 -22 -8 -50z"/>
<path d="M1961 3404 c13 -16 29 -19 29 -5 0 5 -9 11 -21 14 -16 4 -18 3 -8 -9z"/>
<path d="M2882 3409 c4 -12 48 -46 48 -37 0 2 -12 15 -26 27 -15 13 -24 17
-22 10z"/>
<path d="M3148 3413 c-10 -2 -18 -9 -18 -14 0 -14 16 -11 30 6 7 8 11 14 9 14
-2 -1 -12 -3 -21 -6z"/>
<path d="M2160 3394 c-14 -7 -34 -14 -45 -14 -18 -1 -18 -2 -3 -10 11 -7 25
-5 47 7 17 10 31 21 31 26 0 8 2 9 -30 -9z"/>
<path d="M2933 3396 c9 -7 17 -19 17 -27 0 -12 2 -12 9 0 10 15 -12 40 -34 40
-5 0 -2 -6 8 -13z"/>
<path d="M3600 3400 c0 -6 4 -9 8 -6 22 13 28 -14 21 -104 l-7 -95 2 93 c1 76
-2 92 -14 91 -8 0 -10 -2 -5 -5 6 -2 10 -65 10 -159 -1 -256 17 -156 29 160 1
24 -4 31 -21 33 -13 2 -23 -2 -23 -8z"/>
<path d="M1934 3385 c11 -8 24 -15 30 -15 5 0 1 7 -10 15 -10 8 -23 14 -29 14
-5 0 -1 -6 9 -14z"/>
<path d="M3166 3385 c-11 -8 -15 -15 -10 -15 6 0 19 7 30 15 10 8 15 14 9 14
-5 0 -19 -6 -29 -14z"/>
<path d="M3080 3379 c-22 -8 -21 -8 8 -4 20 3 31 1 27 -5 -3 -6 -1 -10 5 -10
13 0 8 23 -6 26 -5 1 -20 -2 -34 -7z"/>
<path d="M2880 3370 c0 -6 7 -10 15 -10 8 0 15 2 15 4 0 2 -7 6 -15 10 -8 3
-15 1 -15 -4z"/>
<path d="M2990 3376 c0 -2 11 -6 25 -8 13 -3 22 -1 19 3 -5 9 -44 13 -44 5z"/>
<path d="M2345 3270 c3 -5 8 -10 11 -10 2 0 4 5 4 10 0 6 -5 10 -11 10 -5 0
-7 -4 -4 -10z"/>
<path d="M2366 3264 c-3 -9 -6 -28 -6 -42 -1 -26 -1 -26 -15 -8 -13 17 -15 18
-15 3 0 -9 4 -17 9 -17 16 0 19 -40 4 -56 -18 -17 -10 -32 9 -16 12 10 19 12
35 12 3 0 -2 9 -11 19 -17 19 -15 45 9 104 4 9 3 17 -3 17 -5 0 -13 -7 -16
-16z"/>
<path d="M2401 3254 c-25 -32 -26 -56 -5 -89 9 -13 13 -28 11 -33 -9 -14 10
-35 24 -27 9 6 8 10 -7 16 -15 6 -15 8 -3 8 9 1 22 -6 29 -13 21 -26 113 -41
165 -26 25 7 48 17 51 22 3 5 12 4 20 -3 8 -6 18 -8 22 -4 4 4 2 10 -5 12 -8
3 -4 13 12 31 31 33 32 71 4 106 -19 24 -26 26 -85 24 -35 -1 -59 -5 -53 -9
25 -15 -12 -19 -47 -4 -58 24 -109 20 -133 -11z"/>
<path d="M2745 3253 c4 -16 8 -46 9 -68 4 -61 5 -65 20 -65 31 0 36 74 6 90
-13 7 -20 21 -20 40 0 17 -5 30 -11 30 -7 0 -9 -10 -4 -27z m45 -83 c0 -21 -5
-30 -16 -30 -11 0 -14 5 -10 16 3 9 6 22 6 30 0 8 5 14 10 14 6 0 10 -13 10
-30z"/>
<path d="M2776 3265 c4 -8 8 -15 10 -15 2 0 4 7 4 15 0 8 -4 15 -10 15 -5 0
-7 -7 -4 -15z"/>
<path d="M1807 3180 c3 -11 7 -20 9 -20 2 0 4 9 4 20 0 11 -4 20 -9 20 -5 0
-7 -9 -4 -20z"/>
<path d="M2322 3170 c0 -14 2 -19 5 -12 2 6 2 18 0 25 -3 6 -5 1 -5 -13z"/>
<path d="M1820 3101 c0 -23 2 -41 4 -41 8 0 12 71 4 76 -4 3 -8 -13 -8 -35z"/>
<path d="M2440 3080 c0 -5 10 -10 23 -10 18 0 19 2 7 10 -19 13 -30 13 -30 0z"/>
<path d="M2650 3080 c-12 -8 -11 -10 8 -10 12 0 22 5 22 10 0 13 -11 13 -30 0z"/>
<path d="M1795 3055 c15 -82 18 -95 26 -95 10 0 4 29 -17 86 -12 32 -14 33 -9
9z"/>
<path d="M2497 3069 c7 -7 15 -10 18 -7 3 3 -2 9 -12 12 -14 6 -15 5 -6 -5z"/>
<path d="M2540 3060 c0 -11 14 -11 50 0 22 7 21 8 -12 9 -21 1 -38 -3 -38 -9z"/>
<path d="M2428 3043 c7 -3 16 -2 19 1 4 3 -2 6 -13 5 -11 0 -14 -3 -6 -6z"/>
<path d="M2498 3043 c7 -3 16 -2 19 1 4 3 -2 6 -13 5 -11 0 -14 -3 -6 -6z"/>
<path d="M2618 3043 c6 -2 18 -2 25 0 6 3 1 5 -13 5 -14 0 -19 -2 -12 -5z"/>
<path d="M2678 3043 c7 -3 16 -2 19 1 4 3 -2 6 -13 5 -11 0 -14 -3 -6 -6z"/>
<path d="M2760 3030 c0 -5 9 -10 20 -10 11 0 20 5 20 10 0 6 -9 10 -20 10 -11
0 -20 -4 -20 -10z"/>
<path d="M2288 2993 c7 -3 16 -2 19 1 4 3 -2 6 -13 5 -11 0 -14 -3 -6 -6z"/>
<path d="M2390 2980 c-8 -5 -12 -12 -9 -15 4 -3 12 1 19 10 14 17 11 19 -10 5z"/>
<path d="M2268 2973 c7 -3 16 -2 19 1 4 3 -2 6 -13 5 -11 0 -14 -3 -6 -6z"/>
<path d="M2728 2973 c7 -3 16 -2 19 1 4 3 -2 6 -13 5 -11 0 -14 -3 -6 -6z"/>
<path d="M2255 2939 c10 -10 23 -19 29 -19 6 0 5 4 -3 9 -7 5 -11 13 -8 18 3
5 -4 10 -15 10 -19 2 -19 1 -3 -18z"/>
<path d="M2469 2958 c-5 -17 -4 -48 3 -48 4 0 8 5 8 10 0 6 49 11 123 12 l122
2 -125 6 -125 6 125 5 125 5 -127 2 c-71 1 -128 1 -129 0z"/>
<path d="M2800 2938 c0 -15 -9 -18 -52 -19 l-53 -2 63 -7 c61 -7 102 -29 102
-56 0 -27 15 -21 16 6 1 21 -5 30 -20 35 -21 6 -21 6 -1 15 15 7 10 8 -20 5
-22 -2 -32 -2 -22 1 9 3 14 10 11 16 -5 7 4 9 25 6 17 -2 31 -1 31 3 0 4 -18
9 -40 11 -33 3 -40 0 -40 -14z"/>
<path d="M2306 2929 c13 -15 30 -19 73 -17 l56 1 -60 7 -60 7 70 2 c84 3 76 8
-23 14 -71 4 -72 4 -56 -14z"/>
<path d="M2254 2901 c11 -12 14 -21 7 -26 -6 -3 -11 -1 -11 6 0 7 -3 10 -6 6
-3 -3 -2 -11 3 -19 6 -10 14 -7 36 15 21 22 23 27 8 22 -11 -3 -22 -1 -26 5
-3 5 -11 10 -17 10 -6 0 -3 -9 6 -19z"/>
<path d="M2518 2913 c12 -2 30 -2 40 0 9 3 -1 5 -23 4 -22 0 -30 -2 -17 -4z"/>
<path d="M3526 2877 c3 -10 9 -15 12 -12 3 3 0 11 -7 18 -10 9 -11 8 -5 -6z"/>
<path d="M2861 2754 c0 -11 3 -14 6 -6 3 7 2 16 -1 19 -3 4 -6 -2 -5 -13z"/>
<path d="M2249 2753 c-4 -21 -5 -86 -2 -75 7 20 22 14 16 -7 -3 -10 0 -22 5
-25 6 -4 8 3 5 16 -4 19 -3 20 6 8 6 -8 11 -10 11 -4 0 5 -9 20 -21 32 -13 15
-18 29 -14 42 4 11 4 20 1 20 -3 0 -7 -3 -7 -7z"/>
<path d="M2840 2694 c-22 -59 -23 -61 -5 -39 15 18 17 19 29 3 10 -14 12 -12
12 18 0 18 -3 29 -7 22 -4 -7 -9 -2 -11 12 -3 20 -5 18 -18 -16z"/>
<path d="M3360 2700 c0 -23 10 -26 28 -8 18 18 15 28 -8 28 -13 0 -20 -7 -20
-20z"/>
<path d="M3466 2712 c-4 -6 -1 -22 5 -34 15 -28 23 -11 11 22 -6 15 -11 19
-16 12z"/>
<path d="M3500 2705 c-7 -9 -8 -15 -2 -15 5 0 12 7 16 15 3 8 4 15 2 15 -2 0
-9 -7 -16 -15z"/>
<path d="M3444 2651 c0 -33 3 -56 7 -50 7 12 4 98 -4 105 -2 3 -4 -22 -3 -55z"/>
<path d="M2324 2601 c0 -11 4 -17 8 -15 4 3 13 2 19 -2 8 -5 8 -9 -1 -14 -7
-5 -2 -7 14 -7 15 0 25 0 24 1 -2 0 -17 13 -33 28 -27 25 -31 26 -31 9z"/>
<path d="M2789 2615 c-1 -3 -2 -11 -3 -17 0 -7 -7 -13 -13 -13 -22 0 -19 -18
3 -20 16 -1 20 4 20 27 0 25 -4 37 -7 23z"/>
<path d="M2240 2569 c0 -5 5 -7 10 -4 6 3 10 8 10 11 0 2 -4 4 -10 4 -5 0 -10
-5 -10 -11z"/>
<path d="M3380 2550 c13 -9 7 -14 -12 -11 -4 0 -5 -6 -2 -14 7 -17 20 -12 33
13 8 14 5 18 -12 19 -17 2 -19 0 -7 -7z"/>
<path d="M2406 2533 c-8 -20 1 -30 35 -38 17 -4 30 -1 38 9 9 11 10 16 2 16
-6 0 -11 -4 -11 -10 0 -5 -8 -10 -17 -10 -16 0 -16 2 -3 11 11 8 8 9 -13 4
-25 -5 -28 -3 -22 15 8 24 0 27 -9 3z"/>
<path d="M2655 2525 c-16 -8 -24 -14 -17 -15 7 0 11 -4 8 -9 -4 -5 4 -7 16 -4
19 4 21 3 8 -7 -13 -10 -12 -11 3 -6 10 3 24 6 30 6 7 1 -1 7 -18 15 -25 11
-27 14 -10 16 11 1 26 2 33 2 6 -1 12 3 12 8 0 13 -30 10 -65 -6z"/>
<path d="M2510 2500 c0 -5 9 -10 20 -10 11 0 20 -5 20 -12 0 -6 3 -8 6 -5 9 9
-15 37 -32 37 -8 0 -14 -4 -14 -10z"/>
<path d="M2598 2503 c7 -3 16 -2 19 1 4 3 -2 6 -13 5 -11 0 -14 -3 -6 -6z"/>
<path d="M2428 2473 c17 -9 32 -20 32 -25 0 -4 21 -7 48 -6 39 1 41 2 12 5
-19 2 -40 11 -47 20 -6 8 -16 12 -22 9 -5 -4 -12 -2 -16 4 -3 5 -14 10 -23 9
-10 0 -4 -7 16 -16z"/>
<path d="M2578 2483 c7 -3 16 -2 19 1 4 3 -2 6 -13 5 -11 0 -14 -3 -6 -6z"/>
<path d="M2100 2471 c0 -9 30 -24 36 -18 2 1 -6 8 -16 15 -11 7 -20 8 -20 3z"/>
<path d="M2145 2470 c3 -5 8 -10 11 -10 2 0 4 5 4 10 0 6 -5 10 -11 10 -5 0
-7 -4 -4 -10z"/>
<path d="M3298 2473 c6 -3 12 -9 12 -15 0 -6 -6 -8 -12 -5 -8 3 -14 -5 -14
-20 -1 -13 -1 -23 0 -21 0 2 14 17 29 34 l28 32 -28 -1 c-15 0 -22 -2 -15 -4z"/>
<path d="M2400 2410 c0 -5 5 -10 10 -10 6 0 10 5 10 10 0 6 -4 10 -10 10 -5 0
-10 -4 -10 -10z"/>
<path d="M2655 2410 c3 -5 11 -10 16 -10 6 0 7 5 4 10 -3 6 -11 10 -16 10 -6
0 -7 -4 -4 -10z"/>
<path d="M3040 2389 c0 -5 5 -7 10 -4 6 3 10 8 10 11 0 2 -4 4 -10 4 -5 0 -10
-5 -10 -11z"/>
<path d="M3227 2385 c3 -8 9 -12 14 -9 12 7 11 11 -5 17 -10 4 -13 1 -9 -8z"/>
<path d="M2378 2313 c7 -3 16 -2 19 1 4 3 -2 6 -13 5 -11 0 -14 -3 -6 -6z"/>
<path d="M3041 2295 c0 -11 3 -14 6 -7 2 6 13 12 23 12 10 0 21 4 25 10 3 5
-7 8 -25 7 -23 -2 -30 -7 -29 -22z"/>
<path d="M3119 2303 c-13 -17 -13 -17 6 -3 11 8 22 16 24 17 2 2 0 3 -6 3 -6
0 -17 -8 -24 -17z"/>
<path d="M2358 2283 c7 -3 16 -2 19 1 4 3 -2 6 -13 5 -11 0 -14 -3 -6 -6z"/>
<path d="M3065 2280 c-3 -5 1 -10 9 -10 8 0 18 5 21 10 3 6 -1 10 -9 10 -8 0
-18 -4 -21 -10z"/>
<path d="M2530 2230 c-8 -5 -24 -12 -35 -16 -16 -5 -13 -8 19 -16 21 -4 41 -6
44 -3 3 3 -2 5 -11 5 -9 0 -17 5 -17 10 0 6 7 10 15 10 8 0 15 5 15 10 0 12
-10 12 -30 0z"/>
<path d="M2838 2233 c6 -2 18 -2 25 0 6 3 1 5 -13 5 -14 0 -19 -2 -12 -5z"/>
<path d="M2954 2232 c5 -8 -2 -10 -23 -6 -17 4 -37 2 -43 -3 -26 -20 -48 -22
-63 -6 -19 19 -33 9 -16 -11 7 -8 10 -20 6 -26 -10 -16 11 -12 26 6 7 8 22 13
33 11 12 -3 30 -1 41 4 16 7 14 8 -10 4 -25 -4 -27 -3 -12 6 10 6 29 8 42 5
26 -7 43 8 24 20 -8 4 -9 3 -5 -4z"/>
<path d="M2988 2233 c7 -3 16 -2 19 1 4 3 -2 6 -13 5 -11 0 -14 -3 -6 -6z"/>
<path d="M1417 3334 c-4 -4 -7 -14 -7 -23 0 -11 3 -12 11 -4 6 6 10 16 7 23
-2 6 -7 8 -11 4z"/>
<path d="M1407 3220 c-3 -11 -1 -20 4 -20 5 0 9 9 9 20 0 11 -2 20 -4 20 -2 0
-6 -9 -9 -20z"/>
<path d="M1407 3020 c3 -11 7 -20 9 -20 2 0 4 9 4 20 0 11 -4 20 -9 20 -5 0
-7 -9 -4 -20z"/>
<path d="M1450 2969 c0 -16 4 -28 9 -25 8 5 3 56 -5 56 -2 0 -4 -14 -4 -31z"/>
<path d="M1420 2966 c0 -9 5 -16 10 -16 6 0 10 4 10 9 0 6 -4 13 -10 16 -5 3
-10 -1 -10 -9z"/>
<path d="M1390 2950 c0 -5 5 -10 11 -10 5 0 7 5 4 10 -3 6 -8 10 -11 10 -2 0
-4 -4 -4 -10z"/>
</g>
</svg>
