<?xml version="1.0" standalone="no"?>
<!DOCTYPE svg PUBLIC "-//W3C//DTD SVG 20010904//EN"
 "http://www.w3.org/TR/2001/REC-SVG-20010904/DTD/svg10.dtd">
<svg version="1.0" xmlns="http://www.w3.org/2000/svg"
 width="512.000000pt" height="512.000000pt" viewBox="0 0 512.000000 512.000000"
 preserveAspectRatio="xMidYMid meet">

<g transform="translate(0.000000,512.000000) scale(0.100000,-0.100000)"
fill="#000000" stroke="none">
<path d="M2070 5104 c-123 -33 -224 -137 -257 -265 -15 -58 -22 -71 -48 -84
-16 -8 -27 -15 -24 -15 3 0 -46 -51 -108 -114 -62 -63 -113 -119 -113 -125 0
-5 -20 -38 -44 -73 -190 -274 -261 -656 -186 -1005 l12 -53 28 15 c16 8 31 15
34 15 3 0 17 -22 30 -48 37 -74 101 -148 159 -187 88 -58 154 -76 312 -82 242
-10 361 24 476 134 66 63 124 162 135 232 l7 41 77 0 77 0 7 -41 c11 -70 69
-169 135 -232 115 -110 234 -144 476 -134 103 4 155 11 197 25 68 25 152 77
194 123 37 41 94 134 94 154 0 20 20 19 48 -1 13 -9 25 -14 27 -13 12 13 38
184 42 286 13 268 -66 553 -210 767 -26 38 -47 73 -47 78 0 11 -211 228 -222
228 -22 0 -58 56 -73 112 -29 116 -106 203 -223 253 -44 19 -71 20 -502 22
-375 2 -465 0 -510 -13z m-126 -638 c93 -71 96 -71 621 -71 l470 0 57 27 c32
15 73 39 92 53 42 32 44 31 150 -73 111 -109 190 -228 250 -379 43 -109 47
-134 14 -103 -42 39 -160 89 -233 100 -88 12 -228 12 -323 0 -155 -20 -289
-118 -361 -263 -23 -46 -41 -90 -41 -100 0 -15 -11 -17 -78 -17 l-79 0 -12 43
c-21 72 -78 162 -134 214 -116 106 -246 141 -483 130 -159 -7 -270 -45 -339
-114 -18 -17 -18 -17 -11 12 16 65 78 202 128 283 34 54 90 123 155 189 57 57
105 103 108 103 3 0 25 -15 49 -34z m218 -619 c62 -31 116 -84 149 -149 17
-32 24 -66 27 -129 4 -78 2 -92 -23 -148 -30 -67 -87 -125 -157 -163 -41 -22
-53 -23 -238 -23 -185 0 -197 1 -243 24 -65 31 -124 93 -156 161 -34 73 -36
191 -4 262 39 86 136 168 228 191 11 3 97 5 190 4 164 -2 172 -3 227 -30z
m1280 4 c67 -34 126 -95 157 -160 37 -80 37 -192 0 -272 -33 -69 -89 -127
-155 -160 -47 -23 -58 -24 -244 -24 -220 0 -236 4 -325 86 -78 72 -116 205
-89 314 21 90 92 176 176 213 65 30 71 31 258 29 163 -2 178 -4 222 -26z"/>
<path d="M2006 3671 c-44 -29 -66 -70 -66 -124 0 -89 58 -147 146 -147 74 0
128 43 144 115 l8 33 -45 -1 c-37 -2 -48 2 -65 23 -20 24 -21 62 -3 103 6 15
1 17 -41 17 -31 0 -60 -7 -78 -19z"/>
<path d="M2956 3671 c-45 -30 -66 -70 -66 -126 0 -88 57 -145 144 -145 77 0
146 58 146 123 0 22 -4 24 -41 23 -32 0 -45 5 -60 23 -23 28 -24 69 -3 99 15
22 15 22 -38 22 -35 0 -63 -7 -82 -19z"/>
<path d="M1154 4445 c-10 -8 -14 -15 -8 -15 6 0 17 7 24 15 16 19 9 19 -16 0z"/>
<path d="M4090 4336 c0 -2 7 -7 16 -10 8 -3 12 -2 9 4 -6 10 -25 14 -25 6z"/>
<path d="M4170 4275 c13 -14 26 -25 28 -25 3 0 -5 11 -18 25 -13 14 -26 25
-28 25 -3 0 5 -11 18 -25z"/>
<path d="M924 4258 l-19 -23 23 19 c21 18 27 26 19 26 -2 0 -12 -10 -23 -22z"/>
<path d="M865 4209 c-4 -6 -5 -12 -2 -15 2 -3 7 2 10 11 7 17 1 20 -8 4z"/>
<path d="M4240 4217 c0 -2 15 -16 33 -33 l32 -29 -29 33 c-28 30 -36 37 -36
29z"/>
<path d="M829 4173 c-13 -16 -12 -17 4 -4 9 7 17 15 17 17 0 8 -8 3 -21 -13z"/>
<path d="M749 4083 c-13 -16 -12 -17 4 -4 16 13 21 21 13 21 -2 0 -10 -8 -17
-17z"/>
<path d="M664 3988 l-19 -23 23 19 c21 18 27 26 19 26 -2 0 -12 -10 -23 -22z"/>
<path d="M4445 3990 c10 -11 20 -20 23 -20 3 0 -3 9 -13 20 -10 11 -20 20 -23
20 -3 0 3 -9 13 -20z"/>
<path d="M4726 3557 c3 -10 9 -15 12 -12 3 3 0 11 -7 18 -10 9 -11 8 -5 -6z"/>
<path d="M1362 2780 c-23 -60 -22 -178 2 -248 23 -67 80 -140 143 -180 77 -49
148 -63 313 -60 l142 3 -84 66 c-133 104 -250 252 -317 401 l-28 61 -77 1 -76
1 -18 -45z"/>
<path d="M3550 2740 c-23 -47 -59 -110 -79 -140 -48 -74 -190 -220 -258 -267
-68 -47 -67 -47 137 -41 131 4 151 7 202 30 79 36 120 70 162 131 65 95 80
213 41 327 l-15 45 -74 0 -74 0 -42 -85z"/>
<path d="M4735 1359 c-4 -6 -5 -12 -2 -15 2 -3 7 2 10 11 7 17 1 20 -8 4z"/>
<path d="M660 916 c0 -2 8 -10 18 -17 15 -13 16 -12 3 4 -13 16 -21 21 -21 13z"/>
<path d="M930 636 c0 -2 8 -10 18 -17 15 -13 16 -12 3 4 -13 16 -21 21 -21 13z"/>
<path d="M4169 623 c-13 -16 -12 -17 4 -4 16 13 21 21 13 21 -2 0 -10 -8 -17
-17z"/>
</g>
</svg>
