<?xml version="1.0" standalone="no"?>
<!DOCTYPE svg PUBLIC "-//W3C//DTD SVG 20010904//EN"
 "http://www.w3.org/TR/2001/REC-SVG-20010904/DTD/svg10.dtd">
<svg version="1.0" xmlns="http://www.w3.org/2000/svg"
 width="512.000000pt" height="512.000000pt" viewBox="0 0 512.000000 512.000000"
 preserveAspectRatio="xMidYMid meet">

<g transform="translate(0.000000,512.000000) scale(0.100000,-0.100000)"
fill="#000000" stroke="none">
<path d="M1395 4809 c-47 -13 -107 -49 -146 -86 -48 -46 -93 -52 -161 -23
-112 48 -235 9 -305 -97 -34 -50 -37 -61 -37 -121 0 -65 26 -140 54 -157 25
-15 43 -73 45 -140 3 -113 50 -183 162 -239 32 -16 76 -44 98 -62 55 -44 121
-59 201 -44 55 11 64 10 100 -9 21 -12 47 -21 56 -21 28 0 22 -13 -34 -66 -29
-27 -75 -77 -103 -109 -27 -33 -53 -62 -56 -65 -3 -3 -19 -25 -34 -50 -15 -25
-31 -47 -34 -50 -13 -10 -98 -187 -119 -246 -77 -223 -85 -307 -79 -849 5
-491 8 -524 68 -712 17 -54 49 -133 71 -176 l39 -78 -42 -47 c-89 -101 -150
-232 -169 -359 -16 -109 -13 -403 4 -417 322 -257 628 -414 989 -507 456 -117
957 -94 1415 66 238 83 487 221 700 390 l82 65 0 168 c-1 292 -47 443 -184
597 -20 22 -36 42 -36 45 0 3 13 30 29 60 41 81 88 215 111 316 33 149 43 355
37 754 -5 307 -9 380 -26 461 -41 203 -146 435 -262 582 -139 174 -297 307
-478 401 -223 115 -394 154 -726 163 -240 6 -384 -4 -525 -38 -91 -22 -249
-76 -264 -90 -18 -17 -21 -9 -22 69 0 59 -5 87 -23 121 l-23 43 34 62 c31 58
33 67 33 161 0 89 -3 106 -28 157 -35 71 -116 147 -183 171 -53 18 -176 22
-229 6z m1204 -802 c46 -89 112 -165 204 -240 74 -60 153 -100 264 -133 81
-25 106 -27 324 -31 l235 -5 14 -57 c7 -31 15 -143 17 -248 l5 -193 32 0 c70
-1 162 -68 197 -145 15 -31 19 -65 19 -155 0 -130 -13 -171 -71 -229 -51 -50
-103 -71 -182 -71 -64 0 -68 -1 -78 -27 -61 -164 -232 -377 -386 -480 -81 -56
-205 -118 -275 -139 l-57 -18 -3 -215 c-3 -200 -5 -219 -25 -257 -28 -53 -72
-97 -131 -132 -42 -24 -56 -27 -142 -27 -85 0 -100 3 -140 27 -58 33 -95 70
-128 128 -27 44 -27 48 -30 262 l-3 217 -57 16 c-128 37 -314 159 -434 283
-93 97 -152 181 -204 292 l-36 75 -60 -3 c-78 -5 -132 16 -186 71 -56 58 -72
107 -72 231 0 85 4 109 24 151 40 85 122 145 196 145 l30 0 0 148 c0 140 9
233 31 313 l9 37 228 5 c239 5 292 13 416 67 156 67 313 222 380 378 11 23 22
42 25 42 3 0 26 -37 50 -83z m771 -2133 c87 -52 74 -186 -22 -222 -80 -31
-168 32 -168 121 0 32 7 46 39 78 33 33 45 39 81 39 23 0 54 -7 70 -16z m333
-258 c99 -36 161 -126 162 -236 0 -84 -28 -144 -94 -201 l-50 -43 20 -27 c50
-70 62 -178 30 -257 -55 -138 -189 -204 -334 -167 -72 18 -116 50 -164 116
-28 39 -42 49 -71 54 -138 22 -210 75 -258 190 -12 29 -15 59 -12 111 8 116
62 189 178 242 30 14 61 34 68 44 20 27 87 58 148 68 40 7 71 21 119 55 36 26
77 50 92 55 43 13 124 11 166 -4z"/>
<path d="M2509 3647 c-44 -34 -49 -83 -13 -126 20 -25 34 -31 64 -31 30 0 44
6 64 31 28 33 32 59 14 92 -17 33 -39 46 -78 46 -19 0 -42 -5 -51 -12z"/>
<path d="M2030 3362 c-59 -26 -90 -73 -90 -135 0 -61 21 -99 73 -127 89 -51
217 10 217 103 0 22 -4 24 -41 23 -67 -1 -96 54 -64 127 6 15 1 17 -36 16 -24
0 -51 -3 -59 -7z"/>
<path d="M2959 3354 c-96 -60 -92 -212 8 -259 90 -43 213 19 213 108 0 22 -4
24 -41 23 -67 -1 -96 54 -64 127 6 15 1 17 -41 17 -27 0 -61 -8 -75 -16z"/>
<path d="M715 3720 c28 -8 28 -9 -10 -7 -26 1 -39 -3 -37 -11 1 -7 -7 -12 -18
-12 -48 0 -50 -111 -3 -145 39 -29 66 -34 81 -16 12 14 13 14 8 -1 -8 -26 6
-22 47 15 32 28 37 38 37 77 0 35 -3 42 -11 30 -8 -12 -10 -9 -6 12 2 15 0 25
-4 22 -5 -3 -9 0 -9 5 0 6 -10 11 -22 11 -17 0 -19 3 -10 9 10 6 8 10 -10 14
-12 4 -32 6 -43 6 -13 -1 -10 -4 10 -9z m10 -30 c-3 -5 -16 -10 -28 -9 -21 0
-21 1 -2 9 28 12 37 12 30 0z m-92 -91 c-4 -4 -9 6 -10 24 -1 30 -1 31 8 8 5
-14 6 -28 2 -32z m83 -26 c-7 -7 -26 7 -26 19 0 6 6 6 15 -2 9 -7 13 -15 11
-17z m94 9 c0 -5 -13 -7 -30 -4 -16 2 -30 6 -30 8 0 2 14 4 30 4 17 0 30 -4
30 -8z m-30 -26 c0 -3 -4 -8 -10 -11 -5 -3 -10 -1 -10 4 0 6 5 11 10 11 6 0
10 -2 10 -4z"/>
</g>
</svg>
