<?xml version="1.0" standalone="no"?>
<!DOCTYPE svg PUBLIC "-//W3C//DTD SVG 20010904//EN"
 "http://www.w3.org/TR/2001/REC-SVG-20010904/DTD/svg10.dtd">
<svg version="1.0" xmlns="http://www.w3.org/2000/svg"
 width="512.000000pt" height="512.000000pt" viewBox="0 0 512.000000 512.000000"
 preserveAspectRatio="xMidYMid meet">

<g transform="translate(0.000000,512.000000) scale(0.100000,-0.100000)"
fill="#000000" stroke="none">
<path d="M2224 4538 l-331 -573 -807 -3 c-443 -1 -806 -5 -806 -8 0 -3 180
-318 401 -699 l401 -695 -401 -695 c-221 -381 -401 -696 -401 -699 0 -3 363
-7 806 -8 l807 -3 331 -572 c181 -315 333 -573 336 -573 3 0 155 258 336 573
l331 572 807 3 c443 1 806 5 806 8 0 3 -180 318 -401 699 l-401 695 401 695
c221 381 401 696 401 699 0 3 -363 7 -806 8 l-807 3 -331 573 c-181 314 -333
572 -336 572 -3 0 -155 -258 -336 -572z m584 -147 c133 -231 242 -422 242
-425 0 -3 -220 -6 -490 -6 -269 0 -490 3 -490 6 0 11 484 844 490 844 3 0 115
-189 248 -419z m-1010 -589 c-11 -29 -624 -1082 -629 -1082 -6 0 -629 1074
-629 1084 0 3 284 6 631 6 347 0 629 -4 627 -8z m1702 -609 c195 -339 355
-624 355 -633 0 -9 -160 -294 -355 -633 l-355 -617 -585 0 -585 0 -355 617
c-195 339 -355 624 -355 633 0 9 160 294 355 633 l355 617 585 0 585 0 355
-617z m1080 611 c0 -10 -623 -1084 -629 -1084 -5 0 -618 1053 -629 1082 -2 4
280 8 627 8 347 0 631 -3 631 -6z m-3095 -1941 c171 -295 312 -540 313 -545 2
-4 -280 -8 -627 -8 -347 0 -631 3 -631 6 0 10 623 1084 629 1084 3 0 146 -242
316 -537z m2784 -2 c171 -297 311 -542 311 -545 0 -3 -284 -6 -631 -6 -347 0
-629 4 -627 8 11 29 624 1082 629 1082 4 0 146 -243 318 -539z m-1219 -707 c0
-11 -484 -844 -490 -844 -6 0 -490 833 -490 844 0 3 221 6 490 6 270 0 490 -3
490 -6z"/>
<path d="M2467 4343 c-4 -3 -7 -37 -7 -75 l0 -68 75 0 75 0 0 75 0 75 -68 0
c-38 0 -72 -3 -75 -7z"/>
<path d="M1040 3445 l0 -75 75 0 75 0 0 75 0 75 -75 0 -75 0 0 -75z"/>
<path d="M2451 3289 c-198 -26 -412 -139 -606 -320 -84 -78 -195 -205 -253
-287 l-42 -61 76 -101 c93 -123 262 -291 375 -372 242 -173 483 -233 710 -177
105 26 244 91 346 161 106 72 309 272 399 391 l74 98 -31 46 c-18 25 -64 84
-104 132 -295 351 -640 530 -944 490z m242 -165 c173 -41 403 -204 578 -410
70 -82 72 -86 58 -112 -27 -51 -281 -296 -369 -354 -163 -108 -266 -143 -425
-143 -88 0 -124 5 -180 23 -82 27 -172 75 -264 140 -74 51 -318 292 -340 334
-13 26 -12 30 25 75 64 80 218 228 296 286 225 167 401 212 621 161z"/>
<path d="M2421 3054 c-212 -57 -359 -284 -323 -500 37 -222 218 -376 442 -376
330 0 543 337 402 635 -93 196 -312 297 -521 241z m201 -144 c182 -51 273
-282 173 -441 -105 -165 -334 -192 -468 -54 -59 61 -82 118 -82 205 1 141 81
250 215 291 37 11 120 10 162 -1z"/>
<path d="M2460 2735 c0 -33 -2 -35 -35 -35 l-35 0 0 -75 0 -75 34 0 c33 0 35
-2 38 -37 l3 -38 72 -3 72 -3 3 38 c3 36 5 38 41 41 l37 3 0 75 0 74 -40 0
c-39 0 -40 1 -40 35 l0 35 -75 0 -75 0 0 -35z"/>
<path d="M3890 3445 l0 -75 75 0 75 0 0 75 0 75 -75 0 -75 0 0 -75z"/>
<path d="M1040 1645 l0 -75 75 0 75 0 0 75 0 75 -75 0 -75 0 0 -75z"/>
<path d="M3890 1645 l0 -75 75 0 75 0 0 75 0 75 -75 0 -75 0 0 -75z"/>
<path d="M2467 893 c-4 -3 -7 -37 -7 -75 l0 -68 75 0 75 0 0 75 0 75 -68 0
c-38 0 -72 -3 -75 -7z"/>
<path d="M1407 4602 c-26 -26 -47 -52 -47 -58 0 -5 23 -32 50 -59 l50 -49 -52
-53 -53 -53 53 -52 52 -53 53 53 52 52 53 -52 52 -53 50 50 c27 27 50 54 50
59 0 6 -21 32 -47 58 l-47 48 47 48 c26 26 47 52 47 57 0 5 -21 31 -47 57
l-47 48 -53 -52 -53 -52 -53 52 c-29 29 -55 52 -58 52 -2 0 -26 -22 -52 -48z"/>
<path d="M3362 4597 l-52 -52 52 -53 53 -52 -53 -53 -52 -53 55 -54 55 -54 53
52 52 52 53 -52 52 -53 52 53 53 52 -53 53 -52 53 50 49 c27 27 50 54 50 60 0
6 -23 33 -50 60 l-50 49 -55 -54 -55 -54 -53 52 -53 52 -52 -53z"/>
<path d="M435 2750 l-50 -50 53 -52 52 -53 -52 -52 -52 -53 49 -50 c27 -27 54
-50 59 -50 6 0 32 21 58 47 l48 47 48 -47 c26 -26 52 -47 58 -47 5 0 32 23 59
50 l49 50 -52 53 -52 52 52 53 53 52 -50 50 c-27 27 -54 50 -59 50 -6 0 -32
-21 -58 -47 l-48 -47 -48 47 c-26 26 -52 47 -58 47 -5 0 -32 -23 -59 -50z"/>
<path d="M4412 2737 l-52 -53 50 -49 c27 -27 50 -54 50 -59 0 -6 -21 -32 -47
-58 l-48 -48 53 -52 52 -53 53 53 52 52 53 -52 52 -53 52 53 53 52 -53 53 -52
52 52 53 53 52 -52 52 -53 53 -48 -48 c-26 -26 -52 -47 -57 -47 -5 0 -32 23
-60 50 l-51 50 -52 -53z"/>
<path d="M1405 820 l-50 -50 53 -52 52 -53 -52 -52 -53 -53 53 -52 52 -53 53
53 52 52 53 -52 52 -53 52 53 53 52 -53 53 -52 52 52 53 53 52 -53 52 -52 53
-53 -53 -53 -52 -49 50 c-27 27 -52 50 -55 50 -3 0 -28 -23 -55 -50z"/>
<path d="M3365 820 l-49 -50 47 -48 c26 -26 47 -52 47 -57 0 -5 -21 -31 -47
-57 l-48 -48 53 -52 52 -53 53 53 52 52 53 -52 52 -53 52 53 53 52 -53 53 -52
52 52 53 53 52 -53 52 -52 53 -53 -53 -53 -52 -49 50 c-27 27 -52 50 -55 50
-3 0 -28 -22 -55 -50z"/>
</g>
</svg>
